<svg width="302" height="301" viewBox="0 0 302 301" fill="none" xmlns="http://www.w3.org/2000/svg">
<path opacity="0.5" d="M7.06479 201.209C7.06479 196.739 7.06479 192.883 7.06479 189.017C7.06479 171.585 7.03034 154.153 7.08202 136.721C7.10785 127.037 12.904 120.803 22.4552 120.716C43.2628 120.535 64.0704 120.647 84.8695 120.647C85.4207 120.647 85.9805 120.811 87.1087 120.993C87.1087 129.441 87.3929 137.88 86.9881 146.285C86.79 150.34 82.4149 151.81 78.3068 149.475C74.3623 147.236 70.3575 146.319 65.9307 147.599C57.7489 149.951 53.081 158.71 55.8025 166.683C58.6618 175.087 67.4896 179.229 75.5594 175.969C85.8685 171.81 87.3584 172.831 87.3843 184.089C87.3929 189.657 87.3843 195.226 87.3843 201.218C80.2618 201.218 73.6991 201.192 67.1365 201.218C59.747 201.261 57.3355 205.377 60.8666 211.845C64.7422 218.944 63.3384 227.133 57.3872 232.208C51.5738 237.163 43.1422 237.224 37.1824 232.347C31.0848 227.358 29.5518 219.264 33.3413 212.07C37.0619 204.997 34.7624 201.235 26.6667 201.209C20.259 201.184 13.8428 201.209 7.06479 201.209Z" fill="white"/>
<path opacity="0.5" d="M188.691 177.259C182.343 174.483 176.385 171.87 170.435 169.266C165.062 166.92 164.875 165.622 169.401 161.807C177.453 155 178.038 143.08 170.673 135.586C163.528 128.316 151.755 128.806 145.102 136.747C141.848 140.64 140.551 145.177 141.102 150.317C141.551 154.519 140.034 155.696 136.254 154.081C129.779 151.322 123.371 148.392 116.6 145.392C119.363 138.938 122.007 132.819 124.6 126.683C126.982 121.045 126.38 120.177 120.346 120.409C109.836 120.822 101.632 112.898 101.81 102.525C101.979 92.6337 110.429 84.7702 120.286 85.4577C125.482 85.8187 129.686 88.1906 132.94 92.3587C136.042 96.3377 137.678 96.1229 139.712 91.5079C142.475 85.2515 145.153 78.9521 148.069 72.2058C155.027 75.2395 161.841 78.1958 168.638 81.1865C180.284 86.3171 191.912 91.4735 203.549 96.6127C214.134 101.288 217.711 110.148 213.168 120.779C205.6 138.5 197.946 156.186 190.327 173.881C189.886 174.913 189.352 175.909 188.7 177.259H188.691Z" fill="white"/>
<path opacity="0.5" d="M174.922 208.032C174.922 216.196 174.922 223.66 174.922 231.124C174.922 244.659 174.957 258.203 174.896 271.739C174.852 282.567 168.73 288.491 157.737 288.491C138.046 288.491 118.356 288.491 98.6655 288.491C97.0713 288.491 95.4859 288.491 93.5677 288.491V267.207C106.4 273.053 117.515 271.462 125.433 259.241C130.566 251.319 129.384 241.157 123.165 233.909C116.245 225.84 106.829 224.292 93.6816 229.273V208.032C100.557 208.032 107.486 207.989 114.414 208.049C118.049 208.084 121.027 206.778 121.571 203.154C121.877 201.148 120.712 198.786 119.784 196.771C116.858 190.423 117.217 184.464 121.606 178.938C125.582 173.939 132.73 171.837 138.992 173.964C145.509 176.187 149.573 180.849 149.95 187.647C150.134 190.907 149.109 194.505 147.699 197.515C144.695 203.924 146.928 207.954 154.154 208.015C160.846 208.067 167.538 208.023 174.913 208.023L174.922 208.032Z" fill="white"/>
<path opacity="0.5" d="M7.05355 206.099C13.5217 206.099 19.4106 206.09 25.2994 206.108C26.2592 206.108 27.2191 206.249 28.2308 206.338C23.3797 221.271 25.2994 230.801 34.3877 237.4C42.6113 243.369 53.04 243.174 60.9436 236.912C69.6082 230.048 71.329 220.483 66.3136 206.338H87.5082C87.5082 213.043 87.3957 219.624 87.5773 226.204C87.6379 228.33 87.9059 230.836 89.0474 232.457C91.7194 236.266 95.0573 235.141 98.5594 233.122C105.832 228.915 114.557 230.996 119.348 237.763C124.06 244.423 123.256 253.316 117.419 259.126C112.404 264.121 105.054 265.086 98.6199 261.588C91.434 257.682 87.5254 260.162 87.5082 268.665C87.4909 275.113 87.5082 281.561 87.5082 288.239C85.7441 288.345 84.4902 288.487 83.2277 288.487C63.3476 288.487 43.4587 288.504 23.5786 288.469C13.0288 288.46 7.04491 282.207 7.05355 271.366C7.05355 251.588 7.05355 231.811 7.05355 212.042C7.05355 210.288 7.05355 208.543 7.05355 206.108V206.099Z" fill="white"/>
<path d="M113.868 94.3376C113.868 94.3376 111.471 88.0287 108.67 88.6056C105.869 89.184 102.807 91.3339 102.807 91.3339L98.3086 97.4164C98.3086 97.4164 110.937 102.389 115.377 99.5403C115.377 99.5403 128.275 101.768 144.564 99.0965C142.206 94.1188 140.801 89.1365 139.976 85.2698C131.726 89.9384 122.84 93.4256 113.868 94.3376Z" fill="url(#paint0_linear_278_175)"/>
<path d="M182.191 48.5745C182.191 48.5745 163.724 71.8286 139.974 85.2682C140.799 89.1365 142.204 94.1188 144.563 99.0949C156.882 97.0736 171.141 92.2504 183.229 81.533L182.191 48.5745Z" fill="#9395FF"/>
<path d="M205.222 151.644C201.61 134.494 198 124.565 185.907 92.056C182.102 81.8252 178.646 71.475 180.316 60.6888L182.192 48.5743C182.192 48.5743 205.694 40.6235 231.743 48.2392C231.743 48.2392 267.284 63.6757 243.144 139.909C232.264 152.08 219.528 155.549 205.224 151.644H205.222Z" fill="#9395FF"/>
<path d="M186.192 33.1134L192.285 47.7496C192.671 48.6738 193.502 49.3333 194.489 49.5017C198.001 50.1046 206.499 51.0456 212.081 47.3762C212.745 46.9386 212.915 46.0358 212.46 45.3824L201.202 29.2222L186.192 33.1119V33.1134Z" fill="url(#paint1_linear_278_175)"/>
<path d="M192.393 10.5127C191.738 10.8203 191.094 11.2916 190.471 11.9587C187.748 14.8722 185.779 18.4329 184.39 22.1727C183.527 24.4971 182.883 26.8979 182.368 29.3232C181.899 31.5374 181.218 33.6644 182.318 35.7852C182.984 37.066 184.161 38.0713 185.531 38.5273C186.307 38.7859 187.127 38.8716 187.941 38.9435C188.524 38.9955 189.112 39.0399 189.695 38.9848C190.978 38.8624 192.914 38.1983 193.789 37.2297C194.039 36.9543 194.236 36.6008 194.452 36.2978L196.968 32.7631L203.62 23.4183C203.814 23.1444 206.698 19.4826 206.554 19.2975C205.887 18.436 205.167 17.6128 204.437 16.8048C201.557 13.6236 196.725 8.48217 192.393 10.5142V10.5127Z" fill="url(#paint2_linear_278_175)"/>
<path d="M211.24 21.0648C212.779 20.0534 214.447 18.1559 212.857 15.0818C211.248 11.9709 208.374 11.6909 206.418 11.9311C205.551 12.0367 204.673 11.5823 204.341 10.7758C204.194 10.4178 203.902 10.1118 203.357 10.0016C202.331 9.79347 201.658 8.85548 201.86 7.82873C202.204 6.06749 201.946 3.78139 199.134 2.2359C193.978 -0.599525 189.459 4.0201 188.312 7.919C187.162 11.8179 192.929 14.5738 196.555 15.0328C199.22 15.371 200.68 18.2783 201.267 19.7978C201.48 20.3487 201.428 20.9638 201.124 21.4718L195.865 30.2352C195.872 30.249 195.88 30.2627 195.888 30.2765C196.697 31.6843 197.695 32.962 198.78 34.1662C199.922 32.708 200.937 31.4746 201.546 30.8687C203.178 29.2436 206.19 29.8557 207.547 30.2459C208.063 30.3943 208.611 30.3224 209.07 30.047C210.448 29.2176 212.851 27.1534 210.651 23.6569C210.105 22.7878 210.383 21.6294 211.242 21.0663L211.24 21.0648Z" fill="#0A0A0A"/>
<path d="M199.034 33.8419C199.034 33.8419 201.6 27.8083 204.535 28.0547C207.471 28.3011 209.78 31.2237 206.142 34.5105C201.618 38.5992 199.034 33.8419 199.034 33.8419Z" fill="url(#paint3_linear_278_175)"/>
<path d="M226.201 304.424C218.435 304.082 208.585 303.285 202.908 302.794C208.489 295.949 226.201 291.336 226.201 291.336H231.203C234.644 296.294 235.141 301.016 235.104 303.553C233.557 304.173 230.87 304.629 226.201 304.424Z" fill="url(#paint4_linear_278_175)"/>
<path d="M232.047 283.172L231.578 292.435C231.528 293.437 230.776 294.28 229.772 294.424C228.773 294.566 227.434 294.584 226.015 294.113C225.141 293.822 224.493 293.086 224.331 292.19L222.713 283.174H232.047V283.172Z" fill="url(#paint5_linear_278_175)"/>
<path d="M285.418 283.113H289.542C295.827 282.985 299.773 296.236 301.064 301.367C300.597 302.733 299.483 304.012 297.022 304.355C292.917 304.928 290.314 304.82 288.46 303.902C285.066 299.436 283.382 292.894 282.574 289.076C281.654 284.734 285.418 283.113 285.418 283.113Z" fill="url(#paint6_linear_278_175)"/>
<path d="M289.013 274.517L291.304 283.626C291.586 284.743 291.05 285.898 290.017 286.428C288.736 287.086 286.931 287.776 285.272 287.577C284.492 287.483 283.844 286.934 283.587 286.2L280.225 276.616L289.013 274.518V274.517Z" fill="url(#paint7_linear_278_175)"/>
<path d="M291.745 277.15C288.895 279.678 279.625 280.012 279.625 280.012C246.231 199.882 232.308 177.823 232.308 177.823C237.129 208.067 233.347 285.701 233.347 285.701C227.838 288.132 220.733 285.701 220.733 285.701C220.286 236.186 213.313 182.981 204.319 148.938C226.89 148.431 239.156 143.512 243.074 140.413C261.887 170.737 291.745 277.152 291.745 277.152V277.15Z" fill="url(#paint8_linear_278_175)"/>
<path d="M198.633 171.329L202.786 197.154C203.51 201.657 207.682 204.78 212.232 204.226L274.39 196.646C277.431 196.275 279.736 193.737 279.798 190.689C279.931 184.015 279.669 172.14 276.867 161.32L198.632 171.329H198.633Z" fill="url(#paint9_linear_278_175)"/>
<path d="M213.972 202.509C213.884 202.509 213.807 202.443 213.796 202.353C213.784 202.255 213.855 202.168 213.951 202.156L215.358 201.984C215.459 201.969 215.543 202.042 215.555 202.139C215.567 202.237 215.497 202.324 215.4 202.336L213.994 202.508C213.994 202.508 213.979 202.508 213.972 202.508V202.509ZM210.685 202.428C210.673 202.428 210.659 202.428 210.645 202.423C210.177 202.318 209.713 202.168 209.268 201.981C209.177 201.943 209.134 201.839 209.173 201.749C209.211 201.658 209.317 201.615 209.405 201.654C209.831 201.833 210.275 201.975 210.723 202.078C210.818 202.099 210.878 202.194 210.856 202.29C210.838 202.373 210.764 202.428 210.683 202.428H210.685ZM218.664 201.937C218.575 201.937 218.498 201.871 218.488 201.781C218.475 201.683 218.546 201.596 218.642 201.583L220.049 201.412C220.142 201.4 220.234 201.47 220.246 201.567C220.258 201.663 220.188 201.752 220.091 201.764L218.683 201.935C218.683 201.935 218.67 201.935 218.662 201.935L218.664 201.937ZM223.355 201.365C223.266 201.365 223.189 201.299 223.179 201.208C223.166 201.111 223.237 201.023 223.333 201.011L224.74 200.84C224.841 200.826 224.925 200.896 224.937 200.994C224.949 201.092 224.879 201.179 224.783 201.192L223.376 201.363C223.376 201.363 223.361 201.363 223.355 201.363V201.365ZM228.046 200.792C227.957 200.792 227.88 200.726 227.87 200.636C227.857 200.54 227.928 200.451 228.024 200.439L229.431 200.267C229.532 200.251 229.616 200.326 229.628 200.422C229.64 200.52 229.57 200.607 229.474 200.619L228.067 200.791C228.067 200.791 228.052 200.791 228.046 200.791V200.792ZM232.737 200.22C232.648 200.22 232.571 200.154 232.561 200.064C232.548 199.966 232.619 199.879 232.715 199.866L234.122 199.695C234.223 199.684 234.307 199.753 234.319 199.85C234.332 199.948 234.261 200.035 234.165 200.047L232.758 200.218C232.758 200.218 232.743 200.218 232.737 200.218V200.22ZM206.632 200.133C206.586 200.133 206.539 200.114 206.503 200.078C206.17 199.73 205.865 199.351 205.597 198.951C205.542 198.87 205.565 198.76 205.646 198.705C205.726 198.65 205.838 198.671 205.893 198.754C206.15 199.137 206.441 199.499 206.761 199.833C206.828 199.903 206.826 200.015 206.756 200.084C206.721 200.116 206.678 200.133 206.634 200.133H206.632ZM237.428 199.648C237.339 199.648 237.263 199.582 237.252 199.492C237.24 199.394 237.31 199.306 237.406 199.294L238.813 199.123C238.914 199.109 238.998 199.181 239.01 199.277C239.023 199.375 238.952 199.463 238.856 199.475L237.449 199.646C237.449 199.646 237.434 199.646 237.428 199.646V199.648ZM242.119 199.075C242.03 199.075 241.954 199.01 241.943 198.919C241.931 198.821 242.001 198.734 242.097 198.722L243.504 198.551C243.597 198.535 243.689 198.609 243.701 198.705C243.714 198.801 243.643 198.89 243.547 198.902L242.14 199.074C242.14 199.074 242.127 199.074 242.119 199.074V199.075ZM246.81 198.503C246.721 198.503 246.645 198.437 246.634 198.347C246.622 198.249 246.692 198.162 246.789 198.15L248.195 197.978C248.295 197.968 248.38 198.036 248.393 198.133C248.405 198.231 248.334 198.318 248.238 198.33L246.831 198.502C246.831 198.502 246.816 198.502 246.81 198.502V198.503ZM251.501 197.931C251.412 197.931 251.336 197.865 251.325 197.775C251.313 197.678 251.383 197.59 251.48 197.577L252.886 197.406C252.986 197.392 253.071 197.464 253.084 197.561C253.096 197.658 253.025 197.746 252.929 197.758L251.523 197.929C251.523 197.929 251.507 197.929 251.501 197.929V197.931ZM256.192 197.359C256.103 197.359 256.027 197.293 256.016 197.202C256.004 197.104 256.074 197.017 256.171 197.005L257.577 196.834C257.677 196.818 257.762 196.892 257.775 196.988C257.787 197.086 257.717 197.173 257.62 197.186L256.214 197.357C256.214 197.357 256.198 197.357 256.192 197.357V197.359ZM260.883 196.786C260.794 196.786 260.718 196.72 260.707 196.63C260.695 196.532 260.765 196.445 260.862 196.433L262.268 196.261C262.368 196.251 262.454 196.32 262.466 196.416C262.478 196.514 262.408 196.601 262.311 196.613L260.905 196.785C260.905 196.785 260.889 196.785 260.883 196.785V196.786ZM265.574 196.214C265.486 196.214 265.409 196.148 265.398 196.058C265.386 195.96 265.456 195.873 265.553 195.86L266.959 195.689C267.059 195.675 267.145 195.747 267.157 195.844C267.169 195.94 267.099 196.029 267.002 196.041L265.596 196.212C265.596 196.212 265.582 196.212 265.574 196.212V196.214ZM204.517 195.983C204.433 195.983 204.358 195.923 204.342 195.836L204.116 194.434C204.101 194.338 204.166 194.248 204.263 194.231C204.361 194.214 204.449 194.281 204.466 194.378L204.693 195.775C204.71 195.871 204.645 195.963 204.549 195.98C204.538 195.981 204.529 195.983 204.518 195.983H204.517ZM270.265 195.642C270.177 195.642 270.1 195.576 270.089 195.486C270.077 195.388 270.148 195.3 270.244 195.288L271.651 195.117C271.75 195.102 271.836 195.175 271.848 195.271C271.86 195.369 271.79 195.456 271.693 195.469L270.287 195.64C270.287 195.64 270.272 195.64 270.265 195.64V195.642ZM274.84 194.623C274.779 194.623 274.719 194.59 274.687 194.532C274.638 194.448 274.667 194.339 274.753 194.29C275.151 194.064 275.52 193.787 275.852 193.472C275.924 193.405 276.035 193.408 276.103 193.478C276.17 193.548 276.167 193.662 276.097 193.729C275.743 194.066 275.35 194.358 274.927 194.598C274.9 194.615 274.869 194.621 274.84 194.621V194.623ZM203.765 191.317C203.68 191.317 203.605 191.256 203.591 191.169L203.366 189.769C203.351 189.672 203.416 189.582 203.513 189.565C203.614 189.547 203.7 189.616 203.716 189.712L203.941 191.112C203.957 191.209 203.891 191.299 203.794 191.316C203.785 191.316 203.774 191.319 203.767 191.319L203.765 191.317ZM277.615 190.958C277.601 190.958 277.587 190.956 277.572 190.952C277.477 190.929 277.419 190.832 277.442 190.737C277.542 190.335 277.595 189.917 277.604 189.499L277.607 189.372C277.607 189.275 277.688 189.197 277.785 189.197H277.786C277.884 189.197 277.962 189.278 277.962 189.376L277.959 189.506C277.95 189.949 277.892 190.392 277.786 190.82C277.767 190.901 277.695 190.955 277.615 190.955V190.958ZM203.015 186.653C202.93 186.653 202.855 186.592 202.841 186.505L202.616 185.105C202.601 185.008 202.666 184.918 202.763 184.901C202.862 184.886 202.95 184.952 202.966 185.048L203.191 186.448C203.207 186.545 203.141 186.635 203.044 186.652C203.035 186.652 203.025 186.655 203.017 186.655L203.015 186.653ZM277.806 186.248C277.708 186.248 277.63 186.17 277.629 186.072C277.626 185.614 277.621 185.142 277.612 184.656C277.612 184.559 277.688 184.477 277.786 184.476C277.88 184.459 277.965 184.552 277.967 184.65C277.976 185.137 277.981 185.61 277.984 186.07C277.984 186.168 277.906 186.248 277.808 186.249L277.806 186.248ZM202.265 181.989C202.18 181.989 202.105 181.928 202.091 181.841L201.866 180.441C201.851 180.344 201.916 180.254 202.013 180.237C202.115 180.22 202.201 180.288 202.216 180.384L202.441 181.784C202.457 181.881 202.391 181.971 202.294 181.988C202.285 181.988 202.275 181.991 202.267 181.991L202.265 181.989ZM277.693 181.523C277.598 181.523 277.52 181.448 277.516 181.353C277.496 180.888 277.474 180.416 277.448 179.939C277.442 179.841 277.517 179.757 277.615 179.752C277.725 179.742 277.796 179.823 277.802 179.919C277.828 180.398 277.849 180.872 277.869 181.338C277.874 181.435 277.797 181.518 277.699 181.521C277.696 181.521 277.695 181.521 277.692 181.521L277.693 181.523ZM201.515 177.324C201.43 177.324 201.355 177.263 201.341 177.175L201.116 175.775C201.101 175.679 201.166 175.589 201.263 175.572C201.362 175.558 201.45 175.622 201.466 175.719L201.691 177.119C201.707 177.215 201.641 177.305 201.545 177.322C201.535 177.322 201.525 177.325 201.517 177.325L201.515 177.324ZM277.405 176.805C277.313 176.805 277.235 176.735 277.228 176.641C277.191 176.175 277.15 175.705 277.105 175.231C277.096 175.133 277.168 175.047 277.266 175.038C277.37 175.027 277.45 175.1 277.459 175.198C277.503 175.673 277.543 176.146 277.581 176.612C277.589 176.71 277.517 176.794 277.419 176.804C277.415 176.804 277.41 176.804 277.405 176.804V176.805ZM200.765 172.658C200.68 172.658 200.605 172.597 200.591 172.51L200.337 170.929L201.067 170.836C201.177 170.825 201.252 170.892 201.266 170.989C201.278 171.087 201.209 171.174 201.113 171.188L200.746 171.235L200.941 172.453C200.957 172.55 200.891 172.64 200.795 172.657C200.785 172.657 200.775 172.66 200.767 172.66L200.765 172.658ZM276.925 172.104C276.836 172.104 276.759 172.039 276.749 171.95C276.691 171.483 276.628 171.016 276.564 170.547C276.55 170.45 276.617 170.36 276.715 170.348C276.807 170.326 276.902 170.401 276.914 170.499C276.98 170.971 277.041 171.44 277.099 171.907C277.111 172.005 277.043 172.092 276.946 172.104C276.939 172.104 276.931 172.104 276.925 172.104ZM204.37 170.77C204.281 170.77 204.206 170.704 204.194 170.616C204.182 170.518 204.25 170.43 204.347 170.417L205.752 170.236C205.861 170.221 205.937 170.293 205.951 170.389C205.963 170.487 205.894 170.574 205.798 170.588L204.391 170.769C204.384 170.769 204.376 170.769 204.368 170.769L204.37 170.77ZM209.058 170.17C208.969 170.17 208.894 170.104 208.882 170.016C208.87 169.918 208.939 169.831 209.035 169.817L210.441 169.636C210.549 169.621 210.628 169.693 210.64 169.789C210.653 169.887 210.584 169.974 210.487 169.988L209.081 170.169C209.073 170.169 209.066 170.169 209.058 170.169V170.17ZM213.746 169.57C213.657 169.57 213.582 169.505 213.57 169.416C213.558 169.318 213.627 169.231 213.723 169.217L215.13 169.036C215.237 169.023 215.316 169.095 215.328 169.189C215.341 169.287 215.272 169.375 215.175 169.388L213.769 169.569C213.761 169.569 213.754 169.569 213.746 169.569V169.57ZM218.434 168.971C218.345 168.971 218.27 168.905 218.258 168.816C218.246 168.718 218.315 168.631 218.411 168.617L219.818 168.437C219.931 168.424 220.003 168.493 220.017 168.59C220.029 168.687 219.96 168.775 219.863 168.788L218.457 168.969C218.449 168.969 218.442 168.969 218.434 168.969V168.971ZM223.122 168.371C223.033 168.371 222.958 168.305 222.946 168.216C222.934 168.118 223.003 168.031 223.099 168.017L224.506 167.837C224.617 167.826 224.691 167.893 224.705 167.99C224.717 168.088 224.648 168.175 224.551 168.189L223.145 168.369C223.137 168.369 223.13 168.369 223.122 168.369V168.371ZM227.81 167.771C227.721 167.771 227.646 167.705 227.634 167.616C227.622 167.518 227.691 167.431 227.787 167.417L229.194 167.237C229.304 167.228 229.379 167.293 229.393 167.39C229.405 167.488 229.336 167.575 229.239 167.589L227.833 167.769C227.825 167.769 227.818 167.769 227.81 167.769V167.771ZM276.227 167.431C276.143 167.431 276.068 167.37 276.052 167.284C275.97 166.821 275.884 166.357 275.794 165.893C275.775 165.797 275.838 165.705 275.935 165.685C276.029 165.664 276.123 165.73 276.143 165.826C276.234 166.291 276.32 166.756 276.403 167.223C276.42 167.319 276.355 167.411 276.259 167.428C276.248 167.43 276.238 167.431 276.228 167.431H276.227ZM232.498 167.171C232.409 167.171 232.334 167.105 232.322 167.017C232.31 166.919 232.379 166.831 232.475 166.818L233.882 166.637C233.992 166.622 234.067 166.694 234.081 166.79C234.093 166.888 234.024 166.975 233.928 166.989L232.521 167.17C232.513 167.17 232.506 167.17 232.498 167.17V167.171ZM237.186 166.571C237.097 166.571 237.022 166.505 237.01 166.417C236.998 166.319 237.067 166.232 237.163 166.218L238.57 166.037C238.678 166.023 238.755 166.094 238.769 166.19C238.781 166.288 238.712 166.375 238.616 166.389L237.209 166.57C237.201 166.57 237.194 166.57 237.186 166.57V166.571ZM241.874 165.971C241.785 165.971 241.71 165.906 241.698 165.817C241.686 165.719 241.755 165.632 241.851 165.618L243.258 165.437C243.366 165.425 243.444 165.494 243.457 165.59C243.469 165.688 243.4 165.776 243.304 165.789L241.897 165.97C241.889 165.97 241.882 165.97 241.874 165.97V165.971ZM246.562 165.372C246.473 165.372 246.398 165.306 246.386 165.217C246.374 165.119 246.443 165.032 246.539 165.018L247.946 164.838C248.053 164.825 248.132 164.894 248.145 164.991C248.157 165.088 248.088 165.176 247.992 165.189L246.585 165.37C246.577 165.37 246.57 165.37 246.562 165.37V165.372ZM251.25 164.772C251.161 164.772 251.086 164.706 251.074 164.617C251.062 164.519 251.131 164.432 251.227 164.418L252.634 164.238C252.741 164.227 252.82 164.294 252.833 164.391C252.845 164.489 252.776 164.576 252.68 164.59L251.273 164.77C251.265 164.77 251.258 164.77 251.25 164.77V164.772ZM255.938 164.172C255.849 164.172 255.774 164.106 255.762 164.017C255.75 163.919 255.819 163.832 255.915 163.818L257.322 163.638C257.435 163.623 257.507 163.695 257.521 163.791C257.533 163.889 257.464 163.976 257.368 163.99L255.961 164.17C255.953 164.17 255.946 164.17 255.938 164.17V164.172ZM260.626 163.572C260.537 163.572 260.462 163.506 260.45 163.418C260.438 163.32 260.507 163.232 260.603 163.219L262.01 163.038C262.121 163.024 262.195 163.095 262.209 163.191C262.221 163.289 262.152 163.376 262.056 163.39L260.649 163.571C260.641 163.571 260.634 163.571 260.626 163.571V163.572ZM265.314 162.972C265.225 162.972 265.15 162.906 265.138 162.818C265.126 162.72 265.195 162.633 265.291 162.619L266.698 162.438C266.809 162.424 266.883 162.496 266.897 162.591C266.909 162.689 266.84 162.776 266.744 162.79L265.337 162.971C265.329 162.971 265.322 162.971 265.314 162.971V162.972ZM275.269 162.804C275.189 162.804 275.116 162.749 275.096 162.668C275.022 162.362 274.946 162.056 274.868 161.75L274.713 161.77C274.612 161.785 274.528 161.713 274.514 161.617C274.502 161.519 274.571 161.431 274.667 161.418L275.132 161.358L275.171 161.509C275.264 161.866 275.353 162.224 275.44 162.584C275.463 162.678 275.405 162.775 275.31 162.798C275.296 162.801 275.282 162.802 275.269 162.802V162.804ZM270.002 162.372C269.913 162.372 269.838 162.307 269.826 162.218C269.814 162.12 269.883 162.033 269.979 162.019L271.386 161.838C271.496 161.826 271.571 161.895 271.585 161.991C271.597 162.089 271.528 162.177 271.432 162.19L270.025 162.371C270.017 162.371 270.01 162.371 270.002 162.371V162.372Z" fill="white"/>
<path d="M214.427 150.175L214.358 148.151C214.508 147.646 214.903 147.253 215.41 147.104C217.306 146.549 222.035 145.394 224.567 146.824L225.21 149.104L214.427 150.175Z" fill="url(#paint10_linear_278_175)"/>
<path d="M220.225 147.478C219.793 147.643 219.346 147.7 218.885 147.648C218.327 147.583 217.884 147.149 217.813 146.595L217.011 140.332L220.199 139.923L220.999 146.18C221.071 146.737 220.751 147.274 220.223 147.476L220.225 147.478Z" fill="black"/>
<path d="M245.301 146.226L245.232 144.201C245.382 143.696 245.777 143.303 246.283 143.155C248.18 142.599 252.909 141.444 255.441 142.875L256.083 145.155L245.301 146.226Z" fill="url(#paint11_linear_278_175)"/>
<path d="M251.1 143.528C250.668 143.693 250.222 143.75 249.761 143.698C249.202 143.634 248.76 143.199 248.688 142.645L247.802 135.723L250.99 135.314L251.875 142.232C251.946 142.789 251.627 143.326 251.099 143.528H251.1Z" fill="black"/>
<path d="M216.885 141.908L251.021 136.387C251.8 136.262 252.39 135.613 252.426 134.829C252.476 133.732 252.436 132.106 251.976 130.471C251.452 128.614 249.643 127.416 247.715 127.616C241.3 128.282 225.02 130.369 216.501 135.067C215.599 135.564 214.999 136.464 214.886 137.483C214.778 138.454 214.787 139.732 215.249 140.973C215.495 141.633 216.184 142.021 216.884 141.908H216.885Z" fill="url(#paint12_linear_278_175)"/>
<path opacity="0.58" d="M216.043 140.525C215.829 140.525 215.635 140.378 215.583 140.159C215.57 140.103 215.267 138.774 215.452 137.434C215.601 136.349 216.322 135.4 217.335 134.958C219.187 134.147 222.742 132.716 225.75 132.247C226.009 132.21 226.25 132.383 226.29 132.64C226.33 132.898 226.154 133.14 225.897 133.18C222.886 133.651 219.172 135.186 217.715 135.824C217.003 136.136 216.495 136.802 216.391 137.564C216.228 138.735 216.502 139.936 216.505 139.946C216.565 140.201 216.406 140.455 216.152 140.514C216.117 140.522 216.08 140.526 216.045 140.526L216.043 140.525Z" fill="white"/>
<path d="M198.422 151.43C209.479 149.873 257.325 143.239 271.456 143.138C272.673 143.129 273.763 143.88 274.173 145.02C275.471 148.632 278.23 157.055 279.13 165.638C279.253 166.806 278.524 167.898 277.402 168.262L246.404 178.336L235.12 179.778L200.41 177.382C199.188 177.298 198.179 176.4 197.962 175.199C197.19 170.92 195.554 160.861 195.886 154.209C195.957 152.795 197.016 151.628 198.424 151.429L198.422 151.43Z" fill="url(#paint13_linear_278_175)"/>
<path d="M235.037 177.186C235.037 177.186 235.029 177.186 235.025 177.186L233.611 177.088C233.513 177.081 233.439 176.997 233.445 176.9C233.453 176.802 233.539 176.744 233.634 176.735L235.048 176.833C235.146 176.841 235.219 176.925 235.213 177.021C235.207 177.114 235.129 177.186 235.036 177.186H235.037ZM236.329 177.021C236.24 177.021 236.165 176.955 236.153 176.867C236.141 176.769 236.21 176.681 236.306 176.668L237.713 176.487C237.824 176.472 237.898 176.544 237.911 176.64C237.924 176.738 237.855 176.825 237.758 176.839L236.352 177.02C236.344 177.02 236.337 177.02 236.329 177.02V177.021ZM230.322 176.86C230.322 176.86 230.314 176.86 230.309 176.86L228.895 176.762C228.797 176.755 228.724 176.671 228.73 176.574C228.737 176.476 228.822 176.417 228.918 176.409L230.332 176.507C230.43 176.515 230.504 176.599 230.498 176.695C230.491 176.788 230.413 176.86 230.32 176.86H230.322ZM225.608 176.534C225.608 176.534 225.6 176.534 225.595 176.534L224.181 176.437C224.083 176.43 224.01 176.345 224.016 176.248C224.022 176.15 224.118 176.091 224.204 176.083L225.618 176.181C225.716 176.187 225.79 176.273 225.784 176.369C225.777 176.463 225.699 176.534 225.606 176.534H225.608ZM241.017 176.421C240.928 176.421 240.853 176.355 240.841 176.267C240.829 176.169 240.898 176.082 240.994 176.068L242.401 175.887C242.511 175.873 242.586 175.944 242.6 176.04C242.612 176.138 242.543 176.225 242.446 176.239L241.04 176.42C241.032 176.42 241.025 176.42 241.017 176.42V176.421ZM220.894 176.21C220.894 176.21 220.886 176.21 220.881 176.21L219.467 176.112C219.369 176.104 219.296 176.02 219.302 175.924C219.309 175.826 219.401 175.765 219.49 175.759L220.904 175.857C221.002 175.864 221.076 175.948 221.07 176.045C221.063 176.138 220.985 176.21 220.892 176.21H220.894ZM216.179 175.884C216.179 175.884 216.172 175.884 216.167 175.884L214.753 175.786C214.655 175.779 214.582 175.694 214.588 175.598C214.595 175.5 214.686 175.439 214.776 175.433L216.19 175.531C216.288 175.538 216.362 175.622 216.355 175.719C216.349 175.812 216.271 175.884 216.178 175.884H216.179ZM245.705 175.821C245.616 175.821 245.541 175.756 245.529 175.667C245.517 175.57 245.586 175.482 245.682 175.469L245.774 175.457L247.001 175.055C247.095 175.026 247.194 175.076 247.225 175.168C247.255 175.261 247.203 175.361 247.112 175.391L245.726 175.82C245.726 175.82 245.711 175.82 245.705 175.82V175.821ZM211.464 175.558C211.464 175.558 211.456 175.558 211.452 175.558L210.037 175.46C209.939 175.453 209.866 175.368 209.872 175.272C209.88 175.174 209.969 175.111 210.06 175.107L211.475 175.205C211.573 175.212 211.646 175.297 211.64 175.393C211.634 175.486 211.556 175.558 211.462 175.558H211.464ZM206.75 175.232C206.75 175.232 206.742 175.232 206.738 175.232L205.323 175.134C205.225 175.128 205.152 175.043 205.158 174.946C205.166 174.848 205.253 174.784 205.346 174.781L206.761 174.879C206.859 174.885 206.932 174.971 206.926 175.067C206.92 175.16 206.842 175.232 206.748 175.232H206.75ZM202.036 174.906C202.036 174.906 202.028 174.906 202.024 174.906L200.514 174.802L200.49 174.668C200.472 174.571 200.531 174.458 200.628 174.441C200.68 174.429 200.73 174.44 200.769 174.466L202.048 174.554C202.146 174.561 202.219 174.646 202.213 174.743C202.207 174.836 202.129 174.908 202.036 174.908V174.906ZM250.203 174.377C250.128 174.377 250.059 174.329 250.035 174.254C250.004 174.161 250.056 174.062 250.148 174.031L251.496 173.593C251.588 173.566 251.689 173.615 251.72 173.707C251.751 173.8 251.699 173.899 251.607 173.93L250.258 174.368C250.24 174.374 250.222 174.377 250.203 174.377ZM254.698 172.917C254.623 172.917 254.554 172.87 254.53 172.795C254.499 172.701 254.551 172.602 254.643 172.571L255.992 172.134C256.087 172.106 256.185 172.155 256.215 172.247C256.246 172.34 256.194 172.44 256.102 172.47L254.753 172.908C254.735 172.914 254.717 172.917 254.698 172.917ZM200.103 171.508C200.017 171.508 199.942 171.447 199.928 171.358C199.856 170.91 199.783 170.441 199.709 169.955C199.694 169.858 199.761 169.768 199.858 169.753C199.959 169.744 200.045 169.805 200.06 169.901C200.133 170.386 200.205 170.854 200.277 171.303C200.293 171.399 200.227 171.489 200.13 171.505C200.121 171.505 200.112 171.508 200.103 171.508ZM259.194 171.457C259.119 171.457 259.05 171.41 259.025 171.335C258.995 171.242 259.047 171.142 259.138 171.111L260.487 170.674C260.58 170.645 260.68 170.694 260.71 170.787C260.741 170.88 260.69 170.98 260.597 171.01L259.249 171.448C259.23 171.454 259.212 171.457 259.194 171.457ZM263.687 169.998C263.612 169.998 263.543 169.95 263.519 169.875C263.488 169.782 263.539 169.682 263.632 169.652L264.98 169.214C265.074 169.185 265.173 169.235 265.204 169.327C265.235 169.421 265.183 169.52 265.091 169.551L263.742 169.988C263.724 169.994 263.706 169.998 263.687 169.998ZM268.182 168.538C268.107 168.538 268.038 168.49 268.014 168.415C267.983 168.322 268.035 168.223 268.127 168.192L269.476 167.754C269.569 167.722 269.668 167.776 269.699 167.868C269.73 167.961 269.678 168.06 269.586 168.091L268.237 168.529C268.219 168.535 268.201 168.538 268.182 168.538ZM272.678 167.078C272.603 167.078 272.534 167.03 272.509 166.956C272.479 166.862 272.531 166.763 272.622 166.732L273.971 166.294C274.063 166.264 274.164 166.314 274.194 166.408C274.225 166.501 274.174 166.601 274.081 166.631L272.733 167.069C272.714 167.075 272.696 167.078 272.678 167.078ZM199.423 166.832C199.336 166.832 199.259 166.767 199.247 166.677C199.186 166.213 199.128 165.742 199.071 165.268C199.059 165.17 199.129 165.083 199.226 165.07C199.324 165.06 199.411 165.128 199.423 165.225C199.48 165.698 199.54 166.167 199.599 166.63C199.611 166.728 199.543 166.816 199.446 166.829C199.439 166.829 199.431 166.829 199.423 166.829V166.832ZM276.265 165.037C276.176 165.037 276.1 164.971 276.089 164.881C276.031 164.412 275.968 163.946 275.901 163.479C275.887 163.381 275.954 163.292 276.051 163.279C276.149 163.259 276.238 163.332 276.251 163.428C276.319 163.897 276.383 164.366 276.441 164.838C276.453 164.936 276.384 165.023 276.286 165.035C276.279 165.035 276.271 165.035 276.265 165.035V165.037ZM198.9 162.132C198.809 162.132 198.731 162.064 198.724 161.97C198.681 161.497 198.643 161.025 198.607 160.555C198.6 160.457 198.673 160.373 198.771 160.365C198.881 160.374 198.953 160.431 198.961 160.529C198.996 160.997 199.034 161.468 199.077 161.94C199.086 162.038 199.015 162.123 198.917 162.131C198.912 162.131 198.906 162.131 198.901 162.131L198.9 162.132ZM275.521 160.371C275.439 160.371 275.364 160.311 275.347 160.227C275.255 159.761 275.162 159.298 275.065 158.841C275.045 158.745 275.106 158.651 275.201 158.631C275.301 158.611 275.391 158.673 275.411 158.768C275.509 159.227 275.602 159.692 275.693 160.16C275.711 160.256 275.648 160.348 275.552 160.368C275.541 160.371 275.529 160.371 275.518 160.371H275.521ZM198.615 157.415C198.519 157.415 198.441 157.338 198.438 157.242C198.428 156.858 198.424 156.481 198.424 156.111V155.819C198.424 155.721 198.505 155.643 198.603 155.643C198.701 155.643 198.78 155.724 198.779 155.822V156.111C198.779 156.478 198.783 156.853 198.793 157.234C198.794 157.332 198.718 157.413 198.62 157.416H198.615V157.415ZM274.494 155.758C274.415 155.758 274.343 155.704 274.323 155.623C274.207 155.158 274.089 154.7 273.969 154.252C273.945 154.157 274 154.061 274.095 154.035C274.19 154.012 274.286 154.065 274.312 154.16C274.432 154.608 274.549 155.069 274.666 155.536C274.689 155.631 274.632 155.727 274.537 155.75C274.523 155.753 274.508 155.756 274.494 155.756V155.758ZM200.364 154.125C200.277 154.125 200.201 154.061 200.188 153.972C200.175 153.874 200.242 153.785 200.338 153.771L201.743 153.576C201.837 153.556 201.93 153.629 201.942 153.727C201.956 153.823 201.889 153.914 201.791 153.926L200.386 154.122C200.377 154.122 200.369 154.123 200.361 154.123L200.364 154.125ZM205.048 153.475C204.961 153.475 204.884 153.41 204.872 153.322C204.858 153.225 204.927 153.135 205.023 153.123L206.428 152.93C206.522 152.91 206.614 152.983 206.627 153.081C206.641 153.178 206.572 153.268 206.476 153.28L205.071 153.473C205.063 153.473 205.054 153.475 205.046 153.475H205.048ZM209.733 152.833C209.646 152.833 209.569 152.769 209.557 152.68C209.543 152.584 209.612 152.495 209.708 152.482L211.113 152.292C211.213 152.281 211.3 152.347 211.312 152.443C211.326 152.54 211.257 152.63 211.161 152.642L209.754 152.832C209.747 152.832 209.737 152.832 209.731 152.832L209.733 152.833ZM214.418 152.202C214.331 152.202 214.254 152.137 214.242 152.048C214.23 151.951 214.297 151.862 214.393 151.85L215.798 151.661C215.899 151.645 215.984 151.716 215.997 151.813C216.01 151.911 215.942 152 215.846 152.012L214.441 152.2C214.433 152.2 214.424 152.2 214.418 152.2V152.202ZM219.104 151.579C219.017 151.579 218.941 151.514 218.928 151.424C218.916 151.328 218.983 151.239 219.081 151.225L220.488 151.04C220.586 151.028 220.675 151.097 220.687 151.193C220.699 151.291 220.63 151.378 220.534 151.392L219.127 151.577C219.12 151.577 219.112 151.577 219.104 151.577V151.579ZM273.242 151.199C273.166 151.199 273.095 151.149 273.072 151.072C272.932 150.601 272.792 150.15 272.656 149.72C272.627 149.626 272.678 149.527 272.771 149.498C272.867 149.466 272.964 149.521 272.993 149.612C273.129 150.044 273.268 150.497 273.411 150.971C273.438 151.065 273.386 151.164 273.291 151.192C273.274 151.196 273.258 151.199 273.241 151.199H273.242ZM223.792 150.965C223.704 150.965 223.629 150.901 223.616 150.811C223.604 150.714 223.673 150.625 223.769 150.612L225.176 150.43C225.271 150.417 225.361 150.486 225.375 150.583C225.387 150.68 225.318 150.768 225.222 150.781L223.815 150.964C223.815 150.964 223.8 150.964 223.792 150.964V150.965ZM228.48 150.364C228.392 150.364 228.317 150.298 228.304 150.209C228.292 150.113 228.361 150.024 228.457 150.012L229.864 149.834C229.963 149.819 230.051 149.891 230.061 149.987C230.074 150.085 230.005 150.172 229.908 150.185L228.502 150.362C228.502 150.362 228.486 150.362 228.48 150.362V150.364ZM233.17 149.775C233.081 149.775 233.005 149.709 232.994 149.619C232.982 149.521 233.051 149.433 233.148 149.421L234.555 149.247C234.659 149.231 234.74 149.305 234.752 149.401C234.765 149.499 234.696 149.586 234.598 149.599L233.191 149.773C233.191 149.773 233.176 149.773 233.17 149.773V149.775ZM237.861 149.199C237.772 149.199 237.696 149.133 237.685 149.043C237.673 148.947 237.743 148.858 237.84 148.846L239.246 148.676C239.35 148.661 239.431 148.734 239.444 148.831C239.456 148.928 239.385 149.016 239.289 149.028L237.882 149.198C237.882 149.198 237.869 149.198 237.861 149.198V149.199ZM242.555 148.641C242.466 148.641 242.39 148.575 242.379 148.485C242.367 148.387 242.437 148.3 242.534 148.289L243.942 148.125C244.043 148.11 244.127 148.183 244.138 148.28C244.15 148.378 244.08 148.465 243.983 148.476L242.575 148.639C242.575 148.639 242.561 148.639 242.555 148.639V148.641ZM247.251 148.104C247.162 148.104 247.086 148.036 247.075 147.946C247.064 147.848 247.134 147.761 247.231 147.75L248.641 147.594C248.748 147.59 248.826 147.655 248.836 147.752C248.847 147.85 248.777 147.935 248.679 147.948L247.271 148.104C247.271 148.104 247.257 148.104 247.251 148.104ZM251.95 147.591C251.859 147.591 251.783 147.524 251.774 147.432C251.763 147.334 251.835 147.248 251.931 147.238L253.341 147.089C253.446 147.086 253.526 147.15 253.535 147.247C253.546 147.345 253.474 147.432 253.378 147.441L251.968 147.59C251.968 147.59 251.956 147.59 251.95 147.59V147.591ZM256.651 147.111C256.561 147.111 256.484 147.042 256.475 146.95C256.466 146.852 256.537 146.766 256.634 146.757L258.046 146.621C258.145 146.607 258.229 146.684 258.238 146.78C258.248 146.878 258.177 146.964 258.079 146.973L256.668 147.109C256.668 147.109 256.656 147.109 256.651 147.109V147.111ZM271.785 146.702C271.712 146.702 271.643 146.656 271.618 146.584L271.438 146.076C271.231 146.076 271.017 146.081 270.793 146.085H270.79C270.694 146.085 270.614 146.009 270.613 145.911C270.611 145.813 270.688 145.732 270.787 145.73C271.029 145.726 271.26 145.721 271.484 145.721C271.606 145.721 271.713 145.792 271.75 145.896L271.954 146.466C271.986 146.558 271.937 146.659 271.845 146.693C271.825 146.699 271.805 146.704 271.785 146.704V146.702ZM261.358 146.676C261.266 146.676 261.189 146.607 261.182 146.514C261.173 146.416 261.244 146.33 261.342 146.323C261.826 146.281 262.297 146.241 262.757 146.203C262.855 146.197 262.939 146.267 262.948 146.365C262.956 146.463 262.884 146.547 262.786 146.557C262.328 146.593 261.857 146.633 261.375 146.674C261.37 146.674 261.364 146.674 261.359 146.674L261.358 146.676ZM266.069 146.312C265.975 146.312 265.897 146.24 265.891 146.147C265.885 146.049 265.958 145.964 266.056 145.958C266.548 145.926 267.021 145.897 267.474 145.871C267.579 145.856 267.656 145.94 267.66 146.038C267.667 146.136 267.592 146.22 267.494 146.225C267.042 146.251 266.571 146.28 266.079 146.312C266.075 146.312 266.072 146.312 266.067 146.312H266.069Z" fill="white"/>
<path d="M245.947 183.209L236.061 184.475C234.766 184.64 233.551 183.817 233.234 182.556L230.874 173.191C230.498 171.699 231.517 170.215 233.051 170.017L244.927 168.498C246.43 168.305 247.773 169.438 247.831 170.943L248.2 180.562C248.25 181.89 247.274 183.039 245.948 183.209H245.947Z" fill="url(#paint14_linear_278_175)"/>
<path d="M244.507 181.615L236.982 182.578C235.997 182.703 235.072 182.077 234.831 181.118L233.035 173.99C232.749 172.855 233.525 171.724 234.691 171.576L243.731 170.419C244.874 170.272 245.896 171.133 245.941 172.279L246.222 179.601C246.261 180.613 245.517 181.486 244.508 181.615H244.507Z" fill="url(#paint15_linear_278_175)"/>
<path d="M238.626 105.823C240.959 115.456 241.02 124.88 240.665 128.312C240.532 129.605 239.491 130.617 238.193 130.707C236.719 130.809 234.713 130.946 232.92 131.048C230.949 131.161 228.762 129.916 227.299 128.875C226.552 128.344 225.586 129.171 226.002 129.988C226.72 131.394 227.969 132.5 229.207 133.441C229.953 134.007 232.429 135.013 232.256 136.128C232.201 136.48 231.99 136.786 231.762 137.06C230.386 138.711 228.303 139.593 226.247 140.225C225.99 140.304 225.718 140.388 225.536 140.587C225.485 141.917 229.573 143.392 230.628 143.742C232.209 144.267 233.885 144.489 235.545 144.315C239.659 143.882 243.458 141.043 245.674 137.62C251.598 128.47 254.66 117.419 255.779 108.968C250.269 103.46 241.949 104.856 238.622 105.825L238.626 105.823Z" fill="url(#paint16_linear_278_175)"/>
<path d="M255.784 109.837C260.178 76.6471 234.595 51.1267 234.595 51.1267L219.374 68.8677C230.929 83.2682 236.424 96.4645 238.932 106.828C242.26 105.86 250.272 104.328 255.784 109.837Z" fill="#9395FF"/>
<path d="M238.57 106.666C238.144 106.666 237.758 106.377 237.654 105.945C234.561 93.1684 228.041 80.5199 218.278 68.3519C217.952 67.9464 218.016 67.3527 218.423 67.0267C218.829 66.7023 219.423 66.7666 219.749 67.1721C229.688 79.5589 236.329 92.4553 239.488 105.502C239.61 106.008 239.3 106.516 238.793 106.639C238.718 106.657 238.645 106.665 238.57 106.665V106.666Z" fill="#6768B3"/>
<path d="M32.4254 303.421C32.4284 303.259 32.4177 303.095 32.3749 302.93C29.9275 293.227 17.7766 287.183 17.7766 287.183L12.9616 287.561C10.1929 296.113 10.5495 301.359 10.9933 303.694C11.0056 303.76 11.0255 303.822 11.0423 303.885C15.014 304.24 23.1886 304.471 32.4238 303.421H32.4254Z" fill="url(#paint17_linear_278_175)"/>
<path d="M11.027 280.392L13.0657 290.207C13.2157 290.926 13.7682 291.464 14.437 291.527C15.2559 291.604 16.4237 291.65 17.596 291.477C18.6475 291.322 19.3806 290.254 19.1939 289.107L17.7766 280.392H11.0255H11.027Z" fill="url(#paint18_linear_278_175)"/>
<path d="M75.0752 302.968C75.04 302.893 75.0093 302.818 74.9588 302.748C72.3799 299.146 65.8139 291.974 52.8365 288.863L46.6119 288.667C46.6119 288.667 43.8401 293.484 43.788 302.407C45.2099 302.988 47.9603 303.614 53.2773 303.762C61.4978 303.992 71.2473 303.285 75.0752 302.968Z" fill="url(#paint19_linear_278_175)"/>
<path d="M45.1808 279.523C45.2788 279.982 46.5751 286.964 47.0756 289.673C47.195 290.315 47.697 290.788 48.2924 290.822C49.3576 290.882 51.078 290.889 52.5564 290.487C53.3539 290.269 53.8895 289.457 53.8329 288.556L53.1365 277.509L45.1808 279.523Z" fill="url(#paint20_linear_278_175)"/>
<path d="M39.5561 150.392C39.5561 150.392 48.1194 209.223 54.2997 279.231C54.4145 280.534 53.3753 281.67 52.0942 281.939C50.2056 282.337 47.4307 282.808 45.1334 282.744C43.9074 282.71 42.882 281.8 42.6753 280.591C40.5709 268.247 25.5472 202.001 21.6045 187.421C21.6045 187.421 17.0757 249.354 18.5236 281.485C18.5603 282.283 17.9741 282.977 17.1797 283.068C15.9737 283.208 14.0452 283.313 11.5918 283.053C10.6597 282.954 9.90819 282.25 9.77503 281.322C8.27511 270.876 -0.355558 208.694 0.0117692 163.899C0.0331966 161.373 2.97641 140.619 2.97641 140.619L39.5561 150.391V150.392Z" fill="url(#paint21_linear_278_175)"/>
<path d="M2.59531 153.975C1.71526 153.662 1.10152 152.864 1.00509 151.935C-0.133624 140.888 -5.64814 72.4021 29.1623 44.2284C29.1623 44.2284 31.1581 39.0059 47.5669 51.8426C63.9758 64.6778 55.1905 78.1327 51.2616 96.6892C46.5078 119.145 38.1664 137.501 41.858 151.32C42.1121 152.273 41.6116 153.275 40.6841 153.617C27.9379 158.313 15.2406 158.469 2.59378 153.976L2.59531 153.975Z" fill="url(#paint22_linear_278_175)"/>
<path d="M42.7411 23.7073C42.7304 24.6821 28.8301 44.4199 28.8301 44.4199C28.8301 44.4199 31.3249 49.3318 43.2355 53.321L53.5176 32.1861L42.7411 23.7058V23.7073Z" fill="url(#paint23_linear_278_175)"/>
<path d="M53.686 12.3977C53.686 12.3977 58.6311 23.7563 58.9648 29.7194C59.2969 35.681 60.5826 39.5493 53.686 40.7505C46.7909 41.9517 40.9826 38.5164 37.8358 32.5778C37.8358 32.5778 32.906 23.4273 34.011 19.6798C35.1176 15.9324 53.686 12.3992 53.686 12.3992V12.3977Z" fill="url(#paint24_linear_278_175)"/>
<path d="M40.1913 28.307L40.5831 28.1341C41.0821 27.9137 41.2963 27.3185 41.0453 26.835C40.0734 24.9574 38.1771 20.653 40.626 19.6492C43.7819 18.3547 56.2818 15.807 58.9786 11.3725C61.5713 7.11092 59.274 1.60839 55.8226 0.0445475C55.5915 -0.0595049 55.3191 0.0231167 55.2012 0.246523L54.9135 0.791268C54.716 1.1631 54.1666 1.10802 54.0487 0.702524C53.937 0.313858 53.4197 0.238873 53.2054 0.581634C52.3758 1.9083 50.1382 4.05974 44.1523 5.163C35.6456 6.73297 30.0224 10.1744 29.8816 16.0503C29.8724 16.4236 29.476 16.6317 29.1562 16.4374C28.5286 16.0548 27.5231 15.8758 26.1793 17.0051C23.8437 18.9683 24.7987 24.0638 29.9199 28.2535C30.1632 28.4524 30.1617 28.8319 29.8985 29.0032C28.9694 29.6077 27.5858 31.0445 31.1719 32.9618C34.8819 34.9449 37.6506 34.7812 38.7174 34.6052C38.9822 34.5609 39.1536 34.3053 39.0954 34.0421L37.9567 28.8778C37.8924 28.5855 38.1144 28.3085 38.4143 28.3085H40.1882L40.1913 28.307Z" fill="#0A0A0A"/>
<path d="M40.4056 29.3965C40.4056 29.3965 38.5184 22.1403 35.2645 24.1755C32.0106 26.2106 36.9527 32.3054 39.5684 32.5777L40.404 29.398L40.4056 29.3965Z" fill="url(#paint25_linear_278_175)"/>
<path d="M52.8473 57.7981L53.8054 83.5312C56.5282 84.4677 59.1194 85.196 61.5866 85.7408C63.1309 80.7723 66.5287 74.6745 69.3127 70.1406C59.0872 66.5263 52.8473 57.7996 52.8473 57.7996V57.7981Z" fill="url(#paint26_linear_278_175)"/>
<path d="M103.901 57.3606C89.8739 72.5018 78.5204 73.3939 69.3127 70.1392C66.5302 74.6731 63.1309 80.7709 61.5866 85.7394C99.0464 93.9962 107.867 59.5671 107.867 59.5671L103.9 57.3606H103.901Z" fill="url(#paint27_linear_278_175)"/>
<path d="M106.745 55.7523C106.745 55.7523 108.361 54.017 111.352 54.5633C114.343 55.1096 117.004 56.147 118.868 54.5633C120.731 52.9796 121.386 55.105 121.386 55.105L115.807 59.3451L106.746 55.7523H106.745Z" fill="url(#paint28_linear_278_175)"/>
<path d="M103.408 58.7177C103.408 58.7177 104.515 54.0889 107.852 54.7239C111.188 55.3589 118.763 59.4766 120.714 58.7177C122.666 57.9587 125.162 56.1439 126.443 56.7851L124.187 59.5884C124.187 59.5884 129.986 56.2434 130.984 58.2984L121.334 63.7275C121.334 63.7275 107.216 62.3151 103.405 58.7177H103.408Z" fill="url(#paint29_linear_278_175)"/>
<path d="M37.2756 91.4776C37.2756 91.4776 63.6482 113.56 92.1253 103.924C93.8915 103.326 95.823 103.456 97.4714 104.327L105.658 108.649C109.094 110.464 113.351 109.272 115.343 105.938C116.481 104.036 117.451 101.863 117.644 99.7819L101.624 93.2985L102.805 91.3353C102.805 91.3353 94.9843 90.6727 92.9365 96.2778C92.9365 96.2778 78.0383 102.473 52.9146 74.8445C52.9146 74.8445 41.5137 84.5367 37.2741 91.4791L37.2756 91.4776Z" fill="url(#paint30_linear_278_175)"/>
<path d="M35.8553 91.2496C35.7681 91.2496 35.6808 91.2251 35.6028 91.1716C24.4987 83.6706 19.275 71.5638 19.223 71.4429C19.1266 71.2134 19.2337 70.9487 19.4618 70.8508C19.6913 70.7528 19.9561 70.8599 20.0541 71.0894C20.1046 71.2088 25.2303 83.0754 36.1078 90.4233C36.3145 90.5626 36.3696 90.8426 36.2287 91.0507C36.1415 91.1792 35.9992 91.2496 35.8553 91.2496Z" fill="url(#paint31_linear_278_175)"/>
<path d="M52.3958 74.4697C52.2473 74.4697 52.1019 74.3962 52.0162 74.2631C51.9825 74.2111 48.5909 68.9319 42.1289 57.3653C40.1423 53.8091 37.5312 51.5567 34.3676 50.6707C29.1301 49.2079 24.0809 52.0158 24.0319 52.0433C23.8146 52.1626 23.5406 52.0907 23.4167 51.8734C23.2942 51.6562 23.3692 51.3807 23.5866 51.2583C23.8039 51.1344 28.997 48.2301 34.6033 49.8C38.0103 50.7503 40.8081 53.1466 42.9172 56.9246C49.3622 68.4622 52.7417 73.7229 52.7753 73.7749C52.91 73.9846 52.8503 74.2631 52.6406 74.3977C52.5641 74.4467 52.4799 74.4697 52.3958 74.4697Z" fill="url(#paint32_linear_278_175)"/>
<defs>
<linearGradient id="paint0_linear_278_175" x1="99.4045" y1="103.24" x2="104.389" y2="101.512" gradientUnits="userSpaceOnUse">
<stop stop-color="#FEBBBA"/>
<stop offset="1" stop-color="#FF928E"/>
</linearGradient>
<linearGradient id="paint1_linear_278_175" x1="205.382" y1="57.3209" x2="197.968" y2="35.0726" gradientUnits="userSpaceOnUse">
<stop stop-color="#FEBBBA"/>
<stop offset="1" stop-color="#FF928E"/>
</linearGradient>
<linearGradient id="paint2_linear_278_175" x1="182.197" y1="20.6395" x2="210.934" y2="33.1367" gradientUnits="userSpaceOnUse">
<stop stop-color="#FEBBBA"/>
<stop offset="1" stop-color="#FF928E"/>
</linearGradient>
<linearGradient id="paint3_linear_278_175" x1="182.818" y1="23.1107" x2="209.475" y2="34.7032" gradientUnits="userSpaceOnUse">
<stop stop-color="#FEBBBA"/>
<stop offset="1" stop-color="#FF928E"/>
</linearGradient>
<linearGradient id="paint4_linear_278_175" x1="315.076" y1="273.407" x2="195.113" y2="307.607" gradientUnits="userSpaceOnUse">
<stop stop-color="#09005D"/>
<stop offset="1" stop-color="#1A0F91"/>
</linearGradient>
<linearGradient id="paint5_linear_278_175" x1="232.047" y1="288.842" x2="222.713" y2="288.842" gradientUnits="userSpaceOnUse">
<stop stop-color="#FEBBBA"/>
<stop offset="1" stop-color="#FF928E"/>
</linearGradient>
<linearGradient id="paint6_linear_278_175" x1="248.195" y1="266.459" x2="322.948" y2="315.146" gradientUnits="userSpaceOnUse">
<stop stop-color="#09005D"/>
<stop offset="1" stop-color="#1A0F91"/>
</linearGradient>
<linearGradient id="paint7_linear_278_175" x1="291.378" y1="281.064" x2="280.223" y2="281.064" gradientUnits="userSpaceOnUse">
<stop stop-color="#FEBBBA"/>
<stop offset="1" stop-color="#FF928E"/>
</linearGradient>
<linearGradient id="paint8_linear_278_175" x1="292.949" y1="297.437" x2="122.81" y2="62.1563" gradientUnits="userSpaceOnUse">
<stop stop-color="#09005D"/>
<stop offset="1" stop-color="#1A0F91"/>
</linearGradient>
<linearGradient id="paint9_linear_278_175" x1="234.655" y1="141.943" x2="238.781" y2="171.863" gradientUnits="userSpaceOnUse">
<stop stop-color="#E1473D"/>
<stop offset="1" stop-color="#E9605A"/>
</linearGradient>
<linearGradient id="paint10_linear_278_175" x1="220.695" y1="154.65" x2="218.823" y2="143.646" gradientUnits="userSpaceOnUse">
<stop stop-color="#E1473D"/>
<stop offset="1" stop-color="#E9605A"/>
</linearGradient>
<linearGradient id="paint11_linear_278_175" x1="251.354" y1="149.433" x2="249.481" y2="138.43" gradientUnits="userSpaceOnUse">
<stop stop-color="#E1473D"/>
<stop offset="1" stop-color="#E9605A"/>
</linearGradient>
<linearGradient id="paint12_linear_278_175" x1="233.807" y1="118.158" x2="233.621" y2="141.127" gradientUnits="userSpaceOnUse">
<stop stop-color="#FF928E"/>
<stop offset="1" stop-color="#FE7062"/>
</linearGradient>
<linearGradient id="paint13_linear_278_175" x1="237.841" y1="201.227" x2="237.497" y2="161.679" gradientUnits="userSpaceOnUse">
<stop stop-color="#FF928E"/>
<stop offset="1" stop-color="#FE7062"/>
</linearGradient>
<linearGradient id="paint14_linear_278_175" x1="237.16" y1="187.452" x2="240.942" y2="169.915" gradientUnits="userSpaceOnUse">
<stop stop-color="#E1473D"/>
<stop offset="1" stop-color="#E9605A"/>
</linearGradient>
<linearGradient id="paint15_linear_278_175" x1="233.481" y1="177.384" x2="246.414" y2="175.727" gradientUnits="userSpaceOnUse">
<stop stop-color="#FF928E"/>
<stop offset="1" stop-color="#FE7062"/>
</linearGradient>
<linearGradient id="paint16_linear_278_175" x1="247.523" y1="111.209" x2="222.277" y2="159.773" gradientUnits="userSpaceOnUse">
<stop stop-color="#FEBBBA"/>
<stop offset="1" stop-color="#FF928E"/>
</linearGradient>
<linearGradient id="paint17_linear_278_175" x1="10.6903" y1="295.685" x2="32.4254" y2="295.685" gradientUnits="userSpaceOnUse">
<stop stop-color="#09005D"/>
<stop offset="1" stop-color="#1A0F91"/>
</linearGradient>
<linearGradient id="paint18_linear_278_175" x1="16.7343" y1="270.946" x2="12.5854" y2="307.171" gradientUnits="userSpaceOnUse">
<stop stop-color="#FEBBBA"/>
<stop offset="1" stop-color="#FF928E"/>
</linearGradient>
<linearGradient id="paint19_linear_278_175" x1="43.7865" y1="296.237" x2="75.0736" y2="296.237" gradientUnits="userSpaceOnUse">
<stop stop-color="#09005D"/>
<stop offset="1" stop-color="#1A0F91"/>
</linearGradient>
<linearGradient id="paint20_linear_278_175" x1="50.0113" y1="274.781" x2="48.1496" y2="311.198" gradientUnits="userSpaceOnUse">
<stop stop-color="#FEBBBA"/>
<stop offset="1" stop-color="#FF928E"/>
</linearGradient>
<linearGradient id="paint21_linear_278_175" x1="51.3336" y1="138.4" x2="-17.9616" y2="357.767" gradientUnits="userSpaceOnUse">
<stop stop-color="#09005D"/>
<stop offset="1" stop-color="#1A0F91"/>
</linearGradient>
<linearGradient id="paint22_linear_278_175" x1="-11.9203" y1="155.67" x2="66.8285" y2="59.0168" gradientUnits="userSpaceOnUse">
<stop stop-color="#FF928E"/>
<stop offset="1" stop-color="#FE7062"/>
</linearGradient>
<linearGradient id="paint23_linear_278_175" x1="24.6304" y1="49.4404" x2="53.5203" y2="32.24" gradientUnits="userSpaceOnUse">
<stop stop-color="#FEBBBA"/>
<stop offset="1" stop-color="#FF928E"/>
</linearGradient>
<linearGradient id="paint24_linear_278_175" x1="56.1486" y1="37.8508" x2="39.2905" y2="13.0735" gradientUnits="userSpaceOnUse">
<stop stop-color="#FEBBBA"/>
<stop offset="1" stop-color="#FF928E"/>
</linearGradient>
<linearGradient id="paint25_linear_278_175" x1="47.9679" y1="43.4175" x2="31.1174" y2="18.6525" gradientUnits="userSpaceOnUse">
<stop stop-color="#FEBBBA"/>
<stop offset="1" stop-color="#FF928E"/>
</linearGradient>
<linearGradient id="paint26_linear_278_175" x1="26.6491" y1="113.573" x2="63.1002" y2="63.7013" gradientUnits="userSpaceOnUse">
<stop stop-color="#FF928E"/>
<stop offset="1" stop-color="#FE7062"/>
</linearGradient>
<linearGradient id="paint27_linear_278_175" x1="122.419" y1="55.1984" x2="61.7681" y2="85.377" gradientUnits="userSpaceOnUse">
<stop stop-color="#FEBBBA"/>
<stop offset="1" stop-color="#FF928E"/>
</linearGradient>
<linearGradient id="paint28_linear_278_175" x1="121.531" y1="47.6331" x2="100.788" y2="69.3022" gradientUnits="userSpaceOnUse">
<stop stop-color="#FEBBBA"/>
<stop offset="1" stop-color="#FF928E"/>
</linearGradient>
<linearGradient id="paint29_linear_278_175" x1="122.708" y1="54.8417" x2="62.0559" y2="85.0188" gradientUnits="userSpaceOnUse">
<stop stop-color="#FEBBBA"/>
<stop offset="1" stop-color="#FF928E"/>
</linearGradient>
<linearGradient id="paint30_linear_278_175" x1="148.055" y1="106.027" x2="-27.9745" y2="74.1877" gradientUnits="userSpaceOnUse">
<stop stop-color="#FEBBBA"/>
<stop offset="1" stop-color="#FF928E"/>
</linearGradient>
<linearGradient id="paint31_linear_278_175" x1="61.807" y1="28.8411" x2="-15.1479" y2="146.821" gradientUnits="userSpaceOnUse">
<stop stop-color="#E1473D"/>
<stop offset="1" stop-color="#E9605A"/>
</linearGradient>
<linearGradient id="paint32_linear_278_175" x1="60.7387" y1="28.1449" x2="-16.2163" y2="146.124" gradientUnits="userSpaceOnUse">
<stop stop-color="#E1473D"/>
<stop offset="1" stop-color="#E9605A"/>
</linearGradient>
</defs>
</svg>
