<svg width="24" height="16" viewBox="0 0 24 16" fill="none" xmlns="http://www.w3.org/2000/svg">
<path d="M22.7333 6.6665H1.26667C0.567106 6.6665 0 7.23361 0 7.93317V8.0665C0 8.76606 0.567106 9.33317 1.26667 9.33317H22.7333C23.4329 9.33317 24 8.76606 24 8.0665V7.93317C24 7.23361 23.4329 6.6665 22.7333 6.6665Z" fill="white"/>
<path d="M22.7333 13.3335H1.26667C0.567106 13.3335 0 13.9006 0 14.6002V14.7335C0 15.4331 0.567106 16.0002 1.26667 16.0002H22.7333C23.4329 16.0002 24 15.4331 24 14.7335V14.6002C24 13.9006 23.4329 13.3335 22.7333 13.3335Z" fill="white"/>
<path d="M22.7333 0H1.26667C0.567106 0 0 0.567106 0 1.26667V1.4C0 2.09956 0.567106 2.66667 1.26667 2.66667H22.7333C23.4329 2.66667 24 2.09956 24 1.4V1.26667C24 0.567106 23.4329 0 22.7333 0Z" fill="white"/>
</svg>
