<svg width="47" height="26" viewBox="0 0 47 26" fill="none" xmlns="http://www.w3.org/2000/svg">
<path d="M33.2183 21.8501C32.9095 18.8157 33.9892 16.6897 36.4574 15.4722C38.4872 14.4713 40.5205 13.4669 42.8437 12.322C39.9794 10.9207 37.4971 9.58961 34.9157 8.49035C33.4411 7.86169 32.8046 7.03286 33.0521 5.45596C33.1653 4.72194 33.0733 3.95632 33.0733 2.97998C33.6568 3.20475 34.0811 3.31713 34.456 3.51732C38.229 5.54727 41.9526 7.67907 45.7894 9.5861C47.172 10.2745 46.981 11.2613 46.9916 12.3395C46.9987 13.4283 47.1508 14.4011 45.7858 15.093C41.6061 17.2072 37.5289 19.5181 33.2218 21.8536L33.2183 21.8501Z" fill="white"/>
<path d="M13.8088 2.97998C14.0648 5.94402 12.9173 8.03204 10.3663 9.24407C8.39974 10.1814 6.44381 11.1328 4.17137 12.2293C6.86344 13.5769 9.21412 14.9281 11.7035 15.9432C13.5456 16.6966 14.2497 17.7789 13.9226 19.6783C13.8159 20.3008 13.9048 20.9587 13.9048 21.8536C13.1544 21.4751 12.5854 21.2028 12.0342 20.9057C8.39618 18.9355 4.79727 16.8947 1.10945 15.0236C-0.0996675 14.4117 -0.0427677 13.531 0.0354695 12.5512C0.124375 11.4724 -0.387723 10.3087 1.13079 9.54825C5.25247 7.48263 9.27102 5.21892 13.3322 3.04011C13.4247 2.99059 13.5527 3.00828 13.8123 2.97998H13.8088Z" fill="white"/>
<path d="M29 0.0223263C26.9697 5.68539 25 11.1812 23.0267 16.6771C22.1932 18.9958 21.2066 21.2663 20.5583 23.637C20.0169 25.6102 19.0089 26.2084 17 25.599C18.0579 22.6226 19.1122 19.6313 20.1808 16.6511C21.9047 11.839 23.6429 7.03427 25.3704 2.22587C25.9546 0.59334 27.1644 -0.141174 29 0.0223263Z" fill="white"/>
</svg>
