<svg width="51" height="33" viewBox="0 0 51 33" fill="none" xmlns="http://www.w3.org/2000/svg">
<g clip-path="url(#clip0_590_466)">
<path d="M13.2361 29.9706C13.2361 28.9158 13.2303 27.9696 13.2401 27.0235C13.243 26.76 13.1242 26.6827 12.8857 26.6866C12.5264 26.6925 12.1652 26.6954 11.8059 26.6787C10.6457 26.6268 9.77987 26.0784 9.24096 25.0637C9.0839 24.7679 8.91604 24.6836 8.60094 24.6856C6.18027 24.6974 3.7596 24.6925 1.33893 24.6915C0.38185 24.6915 0.000981619 24.3134 0 23.3565C0 16.0108 0 8.66601 0.000981619 1.32125C0.000981619 0.371205 0.37596 0.00195886 1.35463 0.000979432C5.59032 0 9.82699 0.00391773 14.0637 0.00391773C20.0996 0.00391773 26.1356 0.000979432 32.1716 0C32.2697 0 32.3679 0 32.4661 0.00195886C33.3505 0.0195886 33.7206 0.384917 33.7225 1.26053C33.7265 3.02351 33.7225 4.7855 33.7225 6.54848C33.7225 8.32615 33.7225 10.1048 33.7225 11.9246H31.6032V2.18609H2.17723C2.1684 2.39667 2.15073 2.60333 2.15073 2.80999C2.14974 8.66895 2.14974 14.5289 2.14974 20.3879C2.14974 20.8351 2.37028 21.0591 2.81136 21.0597C7.50546 21.0597 12.1996 21.0597 16.8946 21.0597C17.1204 21.0597 17.3452 21.0597 17.6073 21.0597V22.9481C16.7337 22.6699 16.2909 22.7522 15.9444 23.2537C15.6627 23.6611 15.6794 24.1802 15.9886 24.5749C16.3449 25.0313 16.8249 25.1028 17.5926 24.809C17.8566 27.5191 17.2726 30.2703 17.997 32.9755H8.97298C8.80807 32.1156 9.41372 31.0304 10.3158 30.4407C11.212 29.8541 12.2349 30.0568 13.2361 29.9706Z" fill="white"/>
<path d="M22.0746 16.3928C22.0658 16.5975 22.0501 16.7718 22.0501 16.9472C22.0491 20.7669 22.0579 24.5867 22.0373 28.4055C22.0344 28.8747 22.1895 28.9687 22.6214 28.9677C27.7091 28.955 32.7969 28.9589 37.8846 28.9589C38.078 28.9589 38.2713 28.9589 38.5786 28.9589V33H38.1604C32.8273 33 27.4941 33 22.161 33C20.6209 33 19.9092 32.289 19.9092 30.7562C19.9092 25.9902 19.9092 21.2234 19.9092 16.4574C19.9092 14.9364 20.6061 14.2351 22.1159 14.2351C28.8399 14.2351 35.5631 14.2351 42.2871 14.2351C43.8116 14.2351 44.5135 14.9295 44.5125 16.4398C44.5125 16.6641 44.5125 16.8894 44.5125 17.147H42.4049C42.3804 16.8952 42.3568 16.6592 42.3313 16.3948H22.0746V16.3928ZM32.2128 29.8698C31.5944 29.8698 31.081 30.3742 31.08 30.9844C31.078 31.5916 31.5924 32.1009 32.2089 32.1019C32.8263 32.1029 33.3387 31.5985 33.3417 30.9883C33.3446 30.383 32.8263 29.8698 32.2138 29.8698H32.2128Z" fill="white"/>
<path d="M50.999 26.1745C50.999 28.0011 51.001 29.8268 50.999 31.6534C50.998 32.5652 50.5592 32.9982 49.6453 32.9982C47.1776 32.9982 44.7098 32.9991 42.242 32.9982C41.2073 32.9982 40.8039 32.6044 40.8039 31.5917C40.8029 28.0207 40.8039 24.4497 40.8039 20.8787C40.8039 19.8228 41.1897 19.4418 42.2547 19.4418C44.7058 19.4418 47.1579 19.4409 49.609 19.4418C50.5975 19.4418 50.999 19.8483 51 20.8405C51.001 22.6181 51 24.3958 51 26.1725L50.999 26.1745ZM48.8237 30.8277C48.8424 30.7063 48.86 30.6426 48.86 30.579C48.862 27.7092 48.8581 24.8395 48.8689 21.9707C48.8699 21.6279 48.7216 21.5692 48.4262 21.5701C46.7761 21.577 45.125 21.5839 43.4749 21.5604C43.0371 21.5535 42.9242 21.7014 42.9271 22.1216C42.9448 24.861 42.9379 27.5995 42.9419 30.339C42.9419 30.4947 42.9615 30.6505 42.9743 30.8287H48.8237V30.8277Z" fill="white"/>
<path d="M11.1757 5.85513C9.26355 5.85513 7.35136 5.85513 5.43917 5.85513C5.25953 5.85513 5.07793 5.86003 4.90026 5.84044C4.27595 5.77188 3.89704 5.37031 3.89213 4.78755C3.88723 4.18814 4.28576 3.74837 4.92774 3.71018C5.49806 3.67688 6.07133 3.69744 6.64361 3.69744C10.1421 3.69744 13.6406 3.69646 17.1391 3.6994C17.3658 3.6994 17.6004 3.70724 17.8184 3.76111C18.3062 3.88158 18.6125 4.31644 18.5948 4.81595C18.5781 5.29588 18.263 5.69744 17.7909 5.7993C17.57 5.84632 17.3374 5.85415 17.1096 5.85415C15.1317 5.85807 13.1527 5.85611 11.1748 5.85611L11.1757 5.85513Z" fill="white"/>
<path d="M12.8406 14.9217C11.272 14.9217 9.70431 14.9246 8.13568 14.9217C7.35824 14.9197 6.87921 14.5132 6.8743 13.8688C6.8694 13.2253 7.36217 12.7924 8.12194 12.7924C11.2916 12.7894 14.4603 12.7894 17.6299 12.7914C18.3691 12.7914 18.8805 13.2488 18.8687 13.8825C18.8569 14.5142 18.3877 14.9197 17.6446 14.9217C16.0436 14.9266 14.4426 14.9226 12.8416 14.9236L12.8406 14.9217Z" fill="white"/>
<path d="M10.6623 19.481C9.28905 19.481 7.91576 19.4839 6.54248 19.48C6.06345 19.479 5.68061 19.2919 5.47938 18.8365C5.29778 18.4251 5.33312 17.9981 5.66884 17.7102C5.89559 17.5162 6.2421 17.3644 6.53659 17.3615C9.29886 17.336 12.0621 17.3419 14.8244 17.3497C15.5056 17.3517 15.9376 17.767 15.9503 18.3801C15.9631 19.0099 15.5155 19.4702 14.8303 19.4771C13.4413 19.4908 12.0513 19.481 10.6613 19.481H10.6623Z" fill="white"/>
<path d="M13.7917 10.3887C13.4167 10.3887 13.0407 10.4044 12.6657 10.3848C12.0434 10.3515 11.6311 9.90978 11.636 9.30743C11.64 8.70508 12.0552 8.27511 12.6893 8.26042C13.4236 8.24279 14.1578 8.24377 14.8921 8.26042C15.5213 8.27511 15.9444 8.70998 15.9502 9.30449C15.9561 9.91468 15.5154 10.3623 14.8685 10.3858C14.5102 10.3985 14.1509 10.3877 13.7917 10.3877V10.3887Z" fill="white"/>
<path d="M7.84313 8.26162C8.23479 8.26162 8.62646 8.24301 9.01714 8.26553C9.58943 8.29883 9.98404 8.71999 10.0017 9.27925C10.0204 9.85907 9.63066 10.3468 9.04757 10.3733C8.2505 10.4095 7.4495 10.4095 6.65144 10.3762C6.07327 10.3517 5.66295 9.85319 5.67866 9.29002C5.69436 8.73468 6.13413 8.29198 6.71819 8.26847C7.09219 8.2528 7.46815 8.26553 7.84313 8.26553V8.2626V8.26162Z" fill="white"/>
<path d="M36.4014 23.3897C35.8076 23.1399 35.3344 22.9274 34.8505 22.7433C34.4392 22.5875 34.34 22.2976 34.4843 21.9274C34.6247 21.568 34.9231 21.4406 35.2824 21.5924C36.1835 21.9725 37.0866 22.3505 37.9632 22.7815C38.1468 22.8716 38.3205 23.185 38.3185 23.3936C38.3156 23.6052 38.1379 23.9147 37.9514 24.0058C37.0738 24.4348 36.1688 24.8089 35.2696 25.1919C34.9388 25.3329 34.6443 25.2663 34.4942 24.9176C34.3342 24.5454 34.4578 24.2359 34.823 24.0655C35.305 23.8402 35.8007 23.6453 36.4024 23.3897H36.4014Z" fill="white"/>
<path d="M28.0135 23.3878C28.5858 23.6317 29.0334 23.8188 29.4781 24.0127C29.9267 24.2086 30.0946 24.5269 29.9503 24.8874C29.805 25.2488 29.482 25.3408 29.001 25.1361C28.1912 24.7914 27.3706 24.4642 26.5882 24.0656C26.3595 23.9491 26.1651 23.6366 26.0935 23.3751C25.9983 23.0264 26.281 22.8217 26.5872 22.6895C27.4098 22.334 28.2275 21.9628 29.056 21.621C29.5596 21.4133 30.0239 21.6866 29.9738 22.1763C29.9542 22.3712 29.7677 22.619 29.589 22.715C29.1326 22.9579 28.6369 23.1283 28.0145 23.3878H28.0135Z" fill="white"/>
<path d="M33.9709 19.8971C33.9003 20.1371 33.8649 20.2781 33.8178 20.4162C33.0551 22.6483 32.2914 24.8805 31.5287 27.1126C31.513 27.1586 31.4914 27.2037 31.4766 27.2497C31.3746 27.5739 31.1723 27.7747 30.8219 27.6493C30.4666 27.523 30.4646 27.2311 30.5716 26.9187C30.815 26.2105 31.0526 25.5014 31.295 24.7923C31.8477 23.1753 32.4062 21.5612 32.951 19.9412C33.058 19.6238 33.2514 19.4544 33.5665 19.5523C33.7304 19.6033 33.8522 19.7894 33.9709 19.8952V19.8971Z" fill="white"/>
</g>
<defs>
<clipPath id="clip0_590_466">
<rect width="51" height="33" fill="white"/>
</clipPath>
</defs>
</svg>
