<svg width="76" height="76" viewBox="0 0 76 76" fill="none" xmlns="http://www.w3.org/2000/svg">
<rect y="0.272217" width="75.0891" height="75.0891" rx="8" fill="#6A65FF"/>
<path d="M31.1713 56.9854C31.5572 57.3263 32.1423 56.9548 31.9974 56.4634L25.4424 34.2287C25.3203 33.8146 24.9503 33.52 24.5155 33.4884C23.4547 33.4113 22.3943 33.3251 21.3346 33.2298L12.5655 32.4411C12.1561 32.4043 11.868 32.8291 12.0618 33.1877C16.805 41.9646 23.6352 50.3276 31.1713 56.9854Z" fill="white"/>
<path d="M37.6023 61.6856C37.6552 61.865 37.8111 62 38 62C38.1889 62 38.3448 61.865 38.3977 61.6856L46.4213 34.4698C46.5213 34.1307 46.2541 33.7949 45.8973 33.81C40.6349 34.0336 35.3652 34.0336 30.1027 33.81C29.7459 33.7949 29.4787 34.1307 29.5787 34.4698L37.6023 61.6856Z" fill="white"/>
<path d="M44.0026 56.4633C43.8577 56.9548 44.4428 57.3263 44.8287 56.9853C52.3649 50.3276 59.195 41.9646 63.9382 33.1877C64.132 32.8291 63.8439 32.4043 63.4345 32.4411L54.6654 33.2298C53.6057 33.3251 52.5453 33.4113 51.4845 33.4884C51.0497 33.52 50.6797 33.8146 50.5577 34.2287L44.0026 56.4633Z" fill="white"/>
<path d="M63.4999 28.5583C63.8964 28.5227 64.1072 28.0776 63.8811 27.7534L55.4572 15.669C54.7287 14.624 53.5276 14 52.2444 14H45.767C45.3972 14 45.1454 14.3709 45.2853 14.7095L51.1568 28.9267C51.3275 29.3399 51.7479 29.5976 52.1977 29.5624C52.9028 29.5073 53.6075 29.448 54.3121 29.3847L63.4999 28.5583Z" fill="white"/>
<path d="M41.0312 14.6336C40.8696 14.2499 40.4907 14 40.0706 14H35.9295C35.5093 14 35.1304 14.2499 34.9688 14.6336L28.835 29.1976C28.6966 29.5261 28.9288 29.891 29.2881 29.9082C35.0926 30.1862 40.9074 30.1862 46.7119 29.9082C47.0712 29.891 47.3034 29.5261 47.165 29.1976L41.0312 14.6336Z" fill="white"/>
<path d="M30.7147 14.7095C30.8546 14.3709 30.6028 14 30.233 14H23.7556C22.4724 14 21.2713 14.624 20.5428 15.669L12.1189 27.7534C11.8928 28.0776 12.1036 28.5227 12.5001 28.5583L21.6879 29.3847C22.3924 29.448 23.0972 29.5073 23.8023 29.5624C24.2521 29.5976 24.6726 29.3399 24.8432 28.9267L30.7147 14.7095Z" fill="white"/>
</svg>
