<svg width="13" height="13" viewBox="0 0 13 13" fill="none" xmlns="http://www.w3.org/2000/svg">
<g clip-path="url(#clip0_293_9546)">
<path d="M6.5 0C2.91018 0 0 2.91018 0 6.5C0 9.54824 2.09872 12.1061 4.92986 12.8086V8.4864H3.58956V6.5H4.92986V5.64408C4.92986 3.43174 5.93112 2.4063 8.10316 2.4063C8.515 2.4063 9.22558 2.48716 9.51626 2.56776V4.36826C9.36286 4.35214 9.09636 4.34408 8.76538 4.34408C7.69964 4.34408 7.2878 4.74786 7.2878 5.79748V6.5H9.41096L9.04618 8.4864H7.2878V12.9524C10.5063 12.5637 13.0003 9.82332 13.0003 6.5C13 2.91018 10.0898 0 6.5 0Z" fill="#C2C5D1"/>
</g>
<defs>
<clipPath id="clip0_293_9546">
<rect width="13" height="13" fill="white"/>
</clipPath>
</defs>
</svg>
