<svg width="76" height="76" viewBox="0 0 76 76" fill="none" xmlns="http://www.w3.org/2000/svg">
<rect width="75.0891" height="75.0891" rx="8" fill="#6A65FF"/>
<path d="M38 29.875C33.5127 29.875 29.875 33.5127 29.875 38C29.875 42.4873 33.5127 46.125 38 46.125C42.4873 46.125 46.125 42.4873 46.125 38C46.125 33.5127 42.4873 29.875 38 29.875Z" fill="white"/>
<path fill-rule="evenodd" clip-rule="evenodd" d="M39.6998 15.0144C38.6427 14.4272 37.3574 14.4272 36.3003 15.0144L18.3003 25.0144C17.1892 25.6317 16.5001 26.8029 16.5001 28.074V47.9262C16.5001 49.1972 17.1892 50.3684 18.3003 50.9857L36.3003 60.9857C37.3574 61.573 38.6427 61.573 39.6998 60.9857L57.6998 50.9857C58.8109 50.3684 59.5001 49.1972 59.5001 47.9262V28.074C59.5001 26.8029 58.8109 25.6317 57.6998 25.0144L39.6998 15.0144ZM26.125 38C26.125 31.4416 31.4416 26.125 38 26.125C44.5584 26.125 49.875 31.4416 49.875 38C49.875 44.5584 44.5584 49.875 38 49.875C31.4416 49.875 26.125 44.5584 26.125 38Z" fill="white"/>
</svg>
