<svg width="1389" height="756" viewBox="0 0 1389 756" fill="none" xmlns="http://www.w3.org/2000/svg">
<path d="M1388.27 336.332V419.241H1349.42V336.332C1349.42 287.941 1310.1 247.888 1261.75 247.124C1237.62 246.723 1214.85 255.644 1197.7 272.211C1180.5 288.778 1171.04 310.953 1171.04 334.584V417.493C1171.04 486.565 1114.56 543.659 1045.15 544.787C1010.51 545.37 977.868 532.553 953.174 508.776C928.481 484.963 914.89 453.176 914.89 419.241V336.332C914.89 287.941 875.566 247.888 827.218 247.124C803.082 246.723 780.319 255.644 763.126 272.211C745.933 288.778 736.464 310.953 736.464 334.584V417.493C736.464 486.565 679.985 543.659 610.583 544.787C575.937 545.37 543.297 532.553 518.604 508.776C493.91 484.963 480.319 453.176 480.319 419.241V336.332C480.319 287.941 440.995 247.888 392.647 247.124C368.511 246.723 345.748 255.644 328.555 272.211C311.363 288.778 301.894 310.953 301.894 334.584V417.493C301.894 486.565 245.414 543.659 176.012 544.787C141.366 545.37 108.726 532.553 84.0326 508.776C59.339 484.963 45.7482 453.176 45.7482 419.241V376.931C45.7482 364.114 35.091 353.664 22.02 353.664H0V315.577H22.0572C56.554 315.577 84.6639 343.104 84.6639 376.967V419.277C84.6639 442.908 94.1329 465.083 111.326 481.65C128.518 498.217 151.281 507.138 175.418 506.737C223.765 505.936 263.089 465.92 263.089 417.529V334.62C263.089 300.685 276.68 268.898 301.374 245.085C326.03 221.272 358.708 208.491 393.353 209.074C462.755 210.203 519.235 267.332 519.235 336.368V419.277C519.235 442.908 528.704 465.083 545.896 481.65C563.089 498.217 585.852 507.138 609.989 506.737C658.336 505.936 697.66 465.92 697.66 417.529V334.62C697.66 300.685 711.251 268.898 735.945 245.085C760.638 221.308 793.278 208.491 827.924 209.074C897.326 210.203 953.806 267.332 953.806 336.368V419.277C953.806 442.908 963.275 465.083 980.467 481.65C997.66 498.217 1020.42 507.138 1044.56 506.737C1092.91 505.936 1132.23 465.92 1132.23 417.529V334.62C1132.23 300.685 1145.82 268.898 1170.52 245.085C1195.17 221.272 1227.85 208.491 1262.49 209.074C1331.9 210.203 1388.38 267.332 1388.38 336.368L1388.27 336.332Z" fill="url(#paint0_linear_296_365)"/>
<path d="M610.175 0.873572C594.542 0.254577 581.657 12.4888 581.657 27.6724C581.657 36.7753 586.298 44.8222 593.354 49.6649C599.629 53.9615 603.64 60.734 603.64 68.2347V361.82H614.445V68.2347C614.445 60.916 618.084 54.0343 624.286 49.9562C631.787 45.0042 636.651 36.5204 636.391 26.9442C635.983 13.035 624.36 1.45615 610.175 0.873572ZM619.013 30.5489H612.254V37.1394H605.793V30.5489H599.035V24.1769H605.793V17.5864H612.254V24.1769H619.013V30.5489Z" fill="#B0BEC5"/>
<g opacity="0.3">
<path d="M664.204 358.652C680.579 374.71 688.155 396.083 686.929 417.093C685.927 435.226 678.314 453.031 664.204 466.867C650.093 480.703 631.935 488.131 613.48 489.151C592.054 490.353 570.219 482.925 553.844 466.867C523.357 436.973 523.357 388.546 553.844 358.652C584.33 328.758 633.717 328.758 664.204 358.652Z" fill="#B0BEC5"/>
</g>
<path style="mix-blend-mode:multiply" d="M645.748 376.748L686.891 417.092C685.889 435.225 678.276 453.03 664.166 466.867C650.055 480.703 631.897 488.131 613.442 489.15L572.261 448.77L645.711 376.748H645.748Z" fill="url(#paint1_linear_296_365)"/>
<path d="M572.297 448.77C592.572 468.651 625.472 468.651 645.747 448.77C666.022 428.89 666.022 396.629 645.747 376.748C625.472 356.868 592.572 356.868 572.297 376.748C552.023 396.629 552.023 428.89 572.297 448.77Z" fill="url(#paint2_linear_296_365)"/>
<path d="M587.375 429.546C585.221 428.053 583.513 425.978 582.324 423.247C581.136 420.516 580.542 417.348 580.542 413.67C580.542 409.993 581.136 406.825 582.324 404.094C583.513 401.363 585.184 399.288 587.375 397.795C589.528 396.302 592.016 395.574 594.801 395.574C597.586 395.574 600.037 396.302 602.228 397.795C604.382 399.288 606.09 401.363 607.278 404.094C608.466 406.825 609.06 409.993 609.06 413.67C609.06 417.348 608.466 420.552 607.278 423.247C606.09 425.978 604.419 428.053 602.228 429.546C600.074 431.039 597.586 431.767 594.801 431.767C592.016 431.767 589.565 431.039 587.375 429.546ZM600.854 427.507C602.599 426.269 603.973 424.448 604.939 422.118C605.904 419.788 606.387 416.948 606.387 413.67C606.387 410.393 605.904 407.59 604.939 405.223C603.973 402.856 602.599 401.072 600.854 399.834C599.109 398.596 597.103 397.977 594.801 397.977C592.499 397.977 590.494 398.596 588.748 399.834C587.003 401.072 585.629 402.893 584.664 405.223C583.698 407.553 583.216 410.393 583.216 413.67C583.216 416.948 583.698 419.751 584.664 422.118C585.629 424.485 587.003 426.269 588.748 427.507C590.494 428.745 592.499 429.364 594.801 429.364C597.103 429.364 599.109 428.745 600.854 427.507Z" fill="#B0BEC5"/>
<path d="M634.457 414.253C636.537 416.074 637.614 418.477 637.614 421.463C637.614 423.465 637.131 425.249 636.166 426.779C635.2 428.308 633.752 429.546 631.821 430.42C629.89 431.294 627.588 431.731 624.877 431.731C622.166 431.731 619.753 431.294 617.45 430.42C615.111 429.546 613.329 428.381 612.029 426.924L613.366 424.922C614.554 426.196 616.151 427.252 618.156 428.089C620.198 428.89 622.426 429.327 624.84 429.327C628.071 429.327 630.521 428.636 632.267 427.216C634.012 425.795 634.866 423.866 634.866 421.426C634.866 418.987 633.975 417.02 632.229 415.6C630.484 414.18 627.811 413.525 624.283 413.525H621.981V411.631L632.749 398.123H613.366V395.792H636.203V397.613L625.286 411.34C629.296 411.449 632.378 412.396 634.457 414.217V414.253Z" fill="#B0BEC5"/>
<path d="M350.947 613.64C348.719 611.201 346.38 609.162 343.929 607.487C341.515 605.812 339.139 604.975 336.799 604.975C334.645 604.975 332.937 605.521 331.638 606.613C330.338 607.705 329.707 609.417 329.707 611.747C329.707 614.077 330.449 615.825 331.898 617.1C333.346 618.374 335.314 619.066 337.765 619.139V623.617C333.903 623.472 330.932 622.343 328.816 620.158C326.699 618.01 325.659 615.206 325.659 611.784C325.659 608.361 326.625 605.557 328.593 603.482C330.524 601.443 333.197 600.423 336.576 600.423C339.324 600.423 342.072 601.261 344.746 602.936C347.419 604.61 349.796 606.504 351.801 608.652C353.806 610.764 356.22 613.495 358.968 616.808V599.367H362.904V623.763H359.525C355.997 619.466 353.138 616.116 350.873 613.677L350.947 613.64Z" fill="#ECEFF1"/>
<path d="M325.882 581.235C325.882 576.538 327.553 573.224 330.858 571.331C334.163 569.438 338.768 568.491 344.598 568.491C350.427 568.491 355.069 569.438 358.374 571.331C361.716 573.224 363.35 576.538 363.35 581.235C363.35 585.932 361.679 589.282 358.374 591.175C355.032 593.069 350.465 594.015 344.598 594.015C338.731 594.015 334.163 593.069 330.858 591.175C327.553 589.282 325.882 585.968 325.882 581.235ZM330.19 581.235C330.19 583.529 330.821 585.277 332.084 586.478C333.346 587.68 335.017 588.481 337.059 588.845C339.139 589.245 341.627 589.428 344.598 589.428C347.568 589.428 350.13 589.245 352.21 588.845C354.289 588.444 355.96 587.68 357.186 586.478C358.448 585.277 359.08 583.529 359.08 581.235C359.08 578.941 358.448 577.23 357.186 576.028C355.923 574.827 354.252 574.026 352.21 573.661C350.168 573.297 347.605 573.079 344.598 573.079C341.59 573.079 339.102 573.261 337.059 573.661C335.017 574.062 333.346 574.863 332.084 576.028C330.821 577.23 330.19 578.977 330.19 581.235Z" fill="#ECEFF1"/>
<path d="M331.008 563.393H326.701V553.853H363.351V558.513H330.971V563.393H331.008Z" fill="#ECEFF1"/>
<path d="M340.216 543.621C338.768 544.641 337.023 545.151 334.981 545.151C333.087 545.151 331.379 544.677 329.893 543.767C328.408 542.857 327.22 541.51 326.328 539.689C325.437 537.868 324.992 535.684 324.992 533.135C324.992 530.586 325.437 528.365 326.328 526.581C327.22 524.76 328.408 523.413 329.93 522.466C331.453 521.52 333.124 521.083 334.981 521.083C336.986 521.083 338.731 521.592 340.216 522.648C341.702 523.704 342.816 525.124 343.521 526.945C344.227 524.833 345.378 523.158 347.049 521.92C348.72 520.682 350.725 520.1 353.102 520.1C355.478 520.1 357.409 520.646 359.117 521.738C360.825 522.83 362.125 524.36 363.053 526.326C363.982 528.292 364.427 530.586 364.427 533.135C364.427 535.684 363.982 537.978 363.053 539.907C362.125 541.837 360.825 543.366 359.117 544.459C357.409 545.551 355.404 546.097 353.102 546.097C350.799 546.097 348.646 545.478 347.012 544.277C345.341 543.075 344.19 541.4 343.558 539.288C342.816 541.182 341.702 542.638 340.253 543.658L340.216 543.621ZM330.636 538.633C331.787 540.017 333.421 540.672 335.538 540.672C337.468 540.672 339.028 539.98 340.216 538.56C341.405 537.14 341.999 535.356 341.999 533.098C341.999 530.841 341.405 528.984 340.179 527.6C338.954 526.217 337.394 525.488 335.463 525.488C333.347 525.488 331.75 526.18 330.599 527.528C329.448 528.911 328.891 530.732 328.891 533.098C328.891 535.465 329.448 537.213 330.599 538.597L330.636 538.633ZM347.42 539.252C348.646 540.854 350.465 541.655 352.916 541.655C355.218 541.655 357.075 540.891 358.412 539.361C359.786 537.832 360.454 535.756 360.454 533.135C360.454 530.513 359.748 528.474 358.375 526.945C357.001 525.416 355.181 524.651 352.879 524.651C350.465 524.651 348.646 525.416 347.383 526.981C346.121 528.547 345.526 530.586 345.526 533.135C345.526 535.684 346.158 537.686 347.346 539.252H347.42Z" fill="#ECEFF1"/>
<path d="M785.964 610.801C783.736 608.361 781.397 606.322 778.946 604.647C776.495 602.972 774.156 602.135 771.816 602.135C769.663 602.135 767.955 602.681 766.655 603.773C765.355 604.866 764.724 606.577 764.724 608.908C764.724 611.238 765.467 612.986 766.915 614.26C768.363 615.534 770.331 616.226 772.782 616.299V620.778C768.92 620.632 765.949 619.503 763.833 617.319C761.716 615.17 760.676 612.367 760.676 608.944C760.676 605.521 761.642 602.718 763.61 600.642C765.541 598.603 768.214 597.584 771.594 597.584C774.341 597.584 777.089 598.421 779.763 600.096C782.437 601.771 784.813 603.664 786.818 605.813C788.823 607.961 791.237 610.655 793.985 613.969V596.528H797.921V620.923H794.542C791.014 616.627 788.155 613.277 785.89 610.837L785.964 610.801Z" fill="#ECEFF1"/>
<path d="M760.9 578.395C760.9 573.698 762.571 570.385 765.876 568.491C769.181 566.598 773.785 565.651 779.615 565.651C785.445 565.651 790.087 566.598 793.391 568.491C796.733 570.385 798.367 573.698 798.367 578.395C798.367 583.092 796.696 586.442 793.391 588.335C790.049 590.229 785.482 591.176 779.615 591.176C773.748 591.176 769.181 590.229 765.876 588.335C762.571 586.442 760.9 583.129 760.9 578.395ZM765.207 578.395C765.207 580.689 765.839 582.437 767.101 583.638C768.364 584.84 770.035 585.641 772.077 586.005C774.156 586.406 776.681 586.588 779.615 586.588C782.548 586.588 785.148 586.406 787.227 586.005C789.307 585.605 790.941 584.84 792.203 583.638C793.466 582.437 794.097 580.689 794.097 578.395C794.097 576.101 793.466 574.39 792.203 573.188C790.941 571.987 789.27 571.186 787.227 570.822C785.148 570.421 782.623 570.239 779.615 570.239C776.607 570.239 774.119 570.421 772.077 570.822C770.035 571.222 768.364 572.023 767.101 573.188C765.839 574.39 765.207 576.138 765.207 578.395Z" fill="#ECEFF1"/>
<path d="M785.964 549.775C783.736 547.336 781.397 545.297 778.946 543.622C776.495 541.947 774.156 541.11 771.816 541.11C769.663 541.11 767.955 541.656 766.655 542.748C765.355 543.84 764.724 545.552 764.724 547.882C764.724 550.212 765.467 551.96 766.915 553.235C768.363 554.509 770.331 555.201 772.782 555.274V559.752C768.92 559.607 765.949 558.478 763.833 556.293C761.716 554.145 760.676 551.341 760.676 547.919C760.676 544.496 761.642 541.692 763.61 539.617C765.541 537.578 768.214 536.558 771.594 536.558C774.341 536.558 777.089 537.396 779.763 539.071C782.437 540.745 784.813 542.639 786.818 544.787C788.823 546.935 791.237 549.63 793.985 552.943V535.502H797.921V559.898H794.542C791.014 555.601 788.155 552.251 785.89 549.812L785.964 549.775Z" fill="#ECEFF1"/>
<path d="M766.024 531.388H761.716V521.848H798.367V526.509H765.987V531.388H766.024Z" fill="#ECEFF1"/>
<path d="M1220.98 626.458C1218.75 624.018 1216.41 621.979 1213.96 620.304C1211.51 618.629 1209.17 617.792 1206.83 617.792C1204.68 617.792 1202.97 618.338 1201.67 619.43C1200.37 620.523 1199.74 622.234 1199.74 624.564C1199.74 626.895 1200.48 628.643 1201.93 629.917C1203.38 631.191 1205.35 631.883 1207.8 631.956V636.435C1203.94 636.289 1200.97 635.16 1198.85 632.976C1196.73 630.827 1195.69 628.024 1195.69 624.601C1195.69 621.178 1196.66 618.375 1198.63 616.299C1200.56 614.26 1203.23 613.24 1206.61 613.24C1209.36 613.24 1212.11 614.078 1214.78 615.753C1217.45 617.428 1219.83 619.321 1221.84 621.47C1223.84 623.618 1226.25 626.312 1229 629.626V612.185H1232.94V636.58H1229.56C1226.03 632.284 1223.17 628.934 1220.91 626.494L1220.98 626.458Z" fill="#ECEFF1"/>
<path d="M1195.92 594.052C1195.92 589.355 1197.55 586.042 1200.89 584.148C1204.2 582.255 1208.8 581.308 1214.63 581.308C1220.46 581.308 1225.1 582.255 1228.41 584.148C1231.75 586.042 1233.38 589.355 1233.38 594.052C1233.38 598.749 1231.71 602.099 1228.41 603.992C1225.06 605.886 1220.5 606.833 1214.63 606.833C1208.76 606.833 1204.2 605.886 1200.89 603.992C1197.59 602.099 1195.92 598.786 1195.92 594.052ZM1200.19 594.052C1200.19 596.346 1200.82 598.094 1202.08 599.295C1203.34 600.497 1205.01 601.298 1207.06 601.662C1209.13 602.063 1211.66 602.245 1214.59 602.245C1217.53 602.245 1220.13 602.063 1222.21 601.662C1224.29 601.262 1225.92 600.497 1227.18 599.295C1228.44 598.094 1229.08 596.346 1229.08 594.052C1229.08 591.758 1228.44 590.047 1227.18 588.845C1225.92 587.644 1224.25 586.843 1222.21 586.479C1220.13 586.078 1217.6 585.896 1214.59 585.896C1211.59 585.896 1209.1 586.078 1207.06 586.479C1205.01 586.879 1203.34 587.68 1202.08 588.845C1200.82 590.047 1200.19 591.795 1200.19 594.052Z" fill="#ECEFF1"/>
<path d="M1220.98 565.469C1218.75 563.03 1216.41 560.99 1213.96 559.316C1211.51 557.641 1209.17 556.803 1206.83 556.803C1204.68 556.803 1202.97 557.349 1201.67 558.442C1200.37 559.534 1199.74 561.245 1199.74 563.576C1199.74 565.906 1200.48 567.654 1201.93 568.928C1203.38 570.203 1205.35 570.894 1207.8 570.967V575.446C1203.94 575.3 1200.97 574.171 1198.85 571.987C1196.73 569.838 1195.69 567.035 1195.69 563.612C1195.69 560.189 1196.66 557.386 1198.63 555.31C1200.56 553.271 1203.23 552.252 1206.61 552.252C1209.36 552.252 1212.11 553.089 1214.78 554.764C1217.45 556.439 1219.83 558.332 1221.84 560.481C1223.84 562.629 1226.25 565.323 1229 568.637V551.196H1232.94V575.591H1229.56C1226.03 571.295 1223.17 567.945 1220.91 565.506L1220.98 565.469Z" fill="#ECEFF1"/>
<path d="M1225.07 546.972H1221.5L1196.36 529.167V523.632H1220.98V518.571H1225.07V523.632H1233.38V528.183H1225.07V546.935V546.972ZM1201.26 528.001L1220.98 541.656V528.001H1201.26Z" fill="#ECEFF1"/>
<path d="M568.956 266.567C566.728 264.128 564.389 262.089 561.938 260.414C559.525 258.739 557.148 257.901 554.809 257.901C552.655 257.901 550.947 258.447 549.647 259.54C548.347 260.632 547.716 262.343 547.716 264.674C547.716 267.004 548.459 268.752 549.907 270.026C551.355 271.301 553.323 271.993 555.774 272.065V276.544C551.912 276.398 548.942 275.27 546.825 273.085C544.708 270.937 543.669 268.133 543.669 264.71C543.669 261.288 544.634 258.447 546.602 256.408C548.533 254.369 551.207 253.35 554.586 253.35C557.334 253.35 560.082 254.187 562.755 255.862C565.429 257.537 567.805 259.431 569.81 261.579C571.816 263.691 574.229 266.422 576.977 269.735V252.294H580.913V276.69H577.534C574.007 272.393 571.147 269.043 568.882 266.604L568.956 266.567Z" fill="#ECEFF1"/>
<path d="M543.855 234.161C543.855 229.464 545.526 226.151 548.831 224.258C552.136 222.364 556.741 221.417 562.57 221.417C568.4 221.417 573.042 222.364 576.347 224.258C579.652 226.151 581.323 229.464 581.323 234.161C581.323 238.859 579.652 242.208 576.347 244.102C573.005 245.995 568.438 246.942 562.57 246.942C556.703 246.942 552.136 245.995 548.831 244.102C545.526 242.208 543.855 238.895 543.855 234.161ZM548.163 234.161C548.163 236.455 548.794 238.203 550.057 239.405C551.319 240.606 552.99 241.407 555.032 241.771C557.112 242.172 559.6 242.354 562.57 242.354C565.541 242.354 568.103 242.172 570.183 241.771C572.262 241.371 573.933 240.57 575.159 239.405C576.384 238.24 577.052 236.455 577.052 234.161C577.052 231.868 576.421 230.156 575.159 228.955C573.896 227.753 572.225 226.952 570.183 226.588C568.14 226.224 565.578 226.005 562.57 226.005C559.563 226.005 557.075 226.187 555.032 226.588C552.99 226.988 551.319 227.789 550.057 228.955C548.794 230.156 548.163 231.904 548.163 234.161Z" fill="#ECEFF1"/>
<path d="M568.956 205.578C566.728 203.139 564.389 201.1 561.938 199.425C559.525 197.75 557.148 196.912 554.809 196.912C552.655 196.912 550.947 197.458 549.647 198.551C548.347 199.643 547.716 201.354 547.716 203.685C547.716 206.015 548.459 207.763 549.907 209.037C551.355 210.312 553.323 211.004 555.774 211.076V215.555C551.912 215.409 548.942 214.281 546.825 212.096C544.708 209.948 543.669 207.144 543.669 203.721C543.669 200.299 544.634 197.458 546.602 195.419C548.533 193.38 551.207 192.361 554.586 192.361C557.334 192.361 560.082 193.198 562.755 194.873C565.429 196.548 567.805 198.442 569.81 200.59C571.816 202.702 574.229 205.433 576.977 208.746V191.305H580.913V215.701H577.534C574.007 211.404 571.147 208.054 568.882 205.615L568.956 205.578Z" fill="#ECEFF1"/>
<path d="M543.855 173.172C543.855 168.475 545.526 165.161 548.831 163.268C552.136 161.374 556.741 160.428 562.57 160.428C568.4 160.428 573.042 161.374 576.347 163.268C579.652 165.161 581.323 168.475 581.323 173.172C581.323 177.869 579.652 181.219 576.347 183.112C573.005 185.005 568.438 185.952 562.57 185.952C556.703 185.952 552.136 185.005 548.831 183.112C545.526 181.219 543.855 177.905 543.855 173.172ZM548.163 173.172C548.163 175.466 548.794 177.213 550.057 178.415C551.319 179.617 552.99 180.418 555.032 180.782C557.112 181.182 559.6 181.364 562.57 181.364C565.541 181.364 568.103 181.182 570.183 180.782C572.262 180.381 573.933 179.58 575.159 178.415C576.384 177.25 577.052 175.466 577.052 173.172C577.052 170.878 576.421 169.166 575.159 167.965C573.896 166.763 572.225 165.962 570.183 165.598C568.14 165.234 565.578 165.016 562.57 165.016C559.563 165.016 557.075 165.198 555.032 165.598C552.99 165.999 551.319 166.8 550.057 167.965C548.794 169.166 548.163 170.914 548.163 173.172Z" fill="#ECEFF1"/>
<path d="M1005.2 263.873C1002.97 261.434 1000.63 259.395 998.18 257.72C995.729 256.045 993.389 255.207 991.05 255.207C988.896 255.207 987.188 255.754 985.888 256.846C984.589 257.938 983.958 259.65 983.958 261.98C983.958 264.31 984.7 266.058 986.148 267.332C987.597 268.607 989.565 269.299 992.015 269.372V273.85C988.154 273.704 985.183 272.576 983.066 270.391C980.95 268.243 979.91 265.439 979.91 262.016C979.91 258.594 980.875 255.754 982.843 253.715C984.774 251.676 987.448 250.656 990.827 250.656C993.575 250.656 996.323 251.494 998.996 253.168C1001.67 254.843 1004.05 256.737 1006.05 258.885C1008.06 261.033 1010.47 263.728 1013.22 267.041V249.6H1017.15V273.996H1013.78C1010.25 269.699 1007.39 266.349 1005.12 263.91L1005.2 263.873Z" fill="#ECEFF1"/>
<path d="M980.133 231.504C980.133 226.806 981.804 223.493 985.109 221.6C988.414 219.706 993.018 218.76 998.848 218.76C1004.68 218.76 1009.32 219.706 1012.62 221.6C1015.97 223.493 1017.6 226.806 1017.6 231.504C1017.6 236.201 1015.93 239.55 1012.62 241.444C1009.28 243.337 1004.72 244.284 998.848 244.284C992.981 244.284 988.414 243.337 985.109 241.444C981.804 239.55 980.133 236.237 980.133 231.504ZM984.441 231.504C984.441 233.797 985.072 235.545 986.334 236.747C987.597 237.948 989.268 238.749 991.31 239.114C993.39 239.514 995.915 239.696 998.848 239.696C1001.78 239.696 1004.38 239.514 1006.46 239.114C1008.54 238.713 1010.17 237.912 1011.44 236.747C1012.7 235.582 1013.33 233.797 1013.33 231.504C1013.33 229.21 1012.7 227.498 1011.44 226.297C1010.17 225.095 1008.5 224.294 1006.46 223.93C1004.38 223.529 1001.86 223.347 998.848 223.347C995.841 223.347 993.353 223.529 991.31 223.93C989.268 224.33 987.597 225.132 986.334 226.297C985.072 227.498 984.441 229.246 984.441 231.504Z" fill="#ECEFF1"/>
<path d="M1005.2 202.884C1002.97 200.444 1000.63 198.405 998.18 196.73C995.729 195.055 993.389 194.218 991.05 194.218C988.896 194.218 987.188 194.764 985.888 195.856C984.589 196.949 983.958 198.66 983.958 200.99C983.958 203.321 984.7 205.068 986.148 206.343C987.597 207.617 989.565 208.309 992.015 208.382V212.86C988.154 212.715 985.183 211.586 983.066 209.401C980.95 207.253 979.91 204.449 979.91 201.027C979.91 197.604 980.875 194.764 982.843 192.725C984.774 190.686 987.448 189.666 990.827 189.666C993.575 189.666 996.323 190.504 998.996 192.179C1001.67 193.854 1004.05 195.747 1006.05 197.895C1008.06 200.044 1010.47 202.738 1013.22 206.051V188.61H1017.15V213.006H1013.78C1010.25 208.709 1007.39 205.36 1005.12 202.92L1005.2 202.884Z" fill="#ECEFF1"/>
<path d="M1005.2 173.718C1002.97 171.279 1000.63 169.239 998.179 167.565C995.729 165.89 993.389 165.052 991.05 165.052C988.896 165.052 987.188 165.598 985.888 166.691C984.589 167.783 983.957 169.494 983.957 171.825C983.957 174.155 984.7 175.903 986.148 177.177C987.596 178.452 989.564 179.143 992.015 179.216V183.695C988.153 183.549 985.183 182.42 983.066 180.236C980.95 178.087 979.91 175.284 979.91 171.861C979.91 168.438 980.875 165.598 982.843 163.559C984.774 161.52 987.448 160.501 990.827 160.501C993.575 160.501 996.323 161.338 998.996 163.013C1001.67 164.688 1004.05 166.581 1006.05 168.73C1008.06 170.878 1010.47 173.572 1013.22 176.886V159.445H1017.15V183.84H1013.78C1010.25 179.544 1007.39 176.194 1005.12 173.755L1005.2 173.718Z" fill="#ECEFF1"/>
<path d="M132.714 249.49C130.486 247.051 128.147 245.011 125.696 243.337C123.282 241.662 120.906 240.824 118.566 240.824C116.413 240.824 114.704 241.37 113.405 242.463C112.105 243.555 111.474 245.266 111.474 247.597C111.474 249.927 112.217 251.675 113.665 252.949C115.113 254.224 117.081 254.915 119.532 254.988V259.467C115.67 259.321 112.699 258.192 110.583 256.008C108.466 253.859 107.426 251.056 107.426 247.633C107.426 244.21 108.392 241.37 110.36 239.331C112.291 237.292 114.964 236.273 118.344 236.273C121.091 236.273 123.839 237.11 126.513 238.785C129.186 240.46 131.563 242.353 133.568 244.502C135.573 246.614 137.987 249.344 140.735 252.658V235.217H144.671V259.612H141.292C137.764 255.316 134.905 251.966 132.64 249.526L132.714 249.49Z" fill="#ECEFF1"/>
<path d="M107.611 217.084C107.611 212.387 109.282 209.074 112.587 207.18C115.892 205.287 120.497 204.34 126.327 204.34C132.156 204.34 136.798 205.287 140.103 207.18C143.408 209.074 145.079 212.387 145.079 217.084C145.079 221.781 143.408 225.131 140.103 227.025C136.761 228.918 132.194 229.865 126.327 229.865C120.459 229.865 115.892 228.918 112.587 227.025C109.282 225.131 107.611 221.818 107.611 217.084ZM111.919 217.084C111.919 219.378 112.55 221.126 113.813 222.328C115.075 223.529 116.746 224.33 118.788 224.694C120.868 225.095 123.356 225.277 126.327 225.277C129.297 225.277 131.859 225.095 133.939 224.694C136.018 224.294 137.689 223.493 138.915 222.328C140.14 221.162 140.808 219.378 140.808 217.084C140.808 214.79 140.177 213.079 138.915 211.877C137.652 210.676 135.981 209.875 133.939 209.511C131.896 209.147 129.334 208.928 126.327 208.928C123.319 208.928 120.831 209.11 118.788 209.511C116.746 209.911 115.075 210.712 113.813 211.877C112.55 213.079 111.919 214.827 111.919 217.084Z" fill="#ECEFF1"/>
<path d="M112.737 199.242H108.43V189.702H145.08V194.363H112.7V199.242H112.737Z" fill="#ECEFF1"/>
<path d="M111.4 159.226L145.117 173.317V178.379L111.808 163.741V183.258H107.835V159.226H111.4Z" fill="#ECEFF1"/>
<path d="M173.932 0.873572C158.299 0.254577 145.413 12.4888 145.413 27.6724C145.413 36.7753 150.018 44.8222 157.11 49.6649C163.386 53.9615 167.359 60.734 167.359 68.2347V361.82H178.165V68.2347C178.165 60.916 181.841 54.0343 188.042 49.9562C195.543 45.0042 200.371 36.5204 200.111 26.9442C199.739 13.035 188.079 1.45615 173.932 0.873572ZM182.769 30.5489H176.011V37.1394H169.513V30.5489H162.792V24.1769H169.513V17.5864H176.011V24.1769H182.769V30.5489Z" fill="#B0BEC5"/>
<g opacity="0.3">
<path d="M227.96 358.652C244.336 374.71 251.911 396.083 250.686 417.093C249.683 435.226 242.071 453.031 227.96 466.867C213.85 480.703 195.692 488.131 177.236 489.151C155.81 490.353 133.976 482.925 117.6 466.867C87.1138 436.973 87.1138 388.546 117.6 358.652C148.087 328.758 197.474 328.758 227.96 358.652Z" fill="#B0BEC5"/>
</g>
<path style="mix-blend-mode:multiply" d="M209.506 376.748L250.65 417.092C249.647 435.225 242.035 453.03 227.924 466.867C213.813 480.703 195.655 488.131 177.2 489.15L136.056 448.77L209.506 376.748Z" fill="url(#paint3_linear_296_365)"/>
<path d="M136.02 448.77C156.294 468.651 189.194 468.651 209.469 448.77C229.744 428.89 229.744 396.629 209.469 376.749C189.194 356.868 156.294 356.868 136.02 376.749C115.745 396.629 115.745 428.89 136.02 448.77Z" fill="url(#paint4_linear_296_365)"/>
<path d="M156.181 429.546C154.028 428.053 152.319 425.978 151.131 423.247C149.943 420.516 149.349 417.348 149.349 413.67C149.349 409.993 149.943 406.825 151.131 404.094C152.319 401.363 153.99 399.288 156.181 397.795C158.335 396.302 160.823 395.574 163.608 395.574C166.393 395.574 168.844 396.302 171.035 397.795C173.188 399.288 174.897 401.363 176.085 404.094C177.273 406.825 177.867 409.993 177.867 413.67C177.867 417.348 177.273 420.552 176.085 423.247C174.897 425.978 173.226 428.053 171.035 429.546C168.881 431.039 166.393 431.767 163.608 431.767C160.823 431.767 158.372 431.039 156.181 429.546ZM169.661 427.507C171.406 426.269 172.78 424.448 173.745 422.118C174.711 419.788 175.194 416.948 175.194 413.67C175.194 410.393 174.711 407.59 173.745 405.223C172.78 402.856 171.406 401.072 169.661 399.834C167.915 398.596 165.91 397.977 163.608 397.977C161.306 397.977 159.301 398.596 157.555 399.834C155.81 401.072 154.436 402.893 153.471 405.223C152.505 407.553 152.022 410.393 152.022 413.67C152.022 416.948 152.505 419.751 153.471 422.118C154.436 424.485 155.81 426.269 157.555 427.507C159.301 428.745 161.306 429.364 163.608 429.364C165.91 429.364 167.915 428.745 169.661 427.507Z" fill="#B0BEC5"/>
<path d="M192.645 395.828V431.512H190.009V398.159H181.134V395.828H192.682H192.645Z" fill="#B0BEC5"/>
<path d="M406.683 706.309C400.445 701.976 396.434 695.24 396.434 687.739V394.153H385.629V687.739C385.629 695.057 381.952 701.939 375.788 706.017C368.287 710.969 363.423 719.453 363.683 729.029C364.091 742.939 375.714 754.517 389.899 755.1C405.532 755.719 418.38 743.485 418.38 728.301C418.38 719.198 413.776 711.151 406.683 706.309ZM401.039 730.377H394.281V737.003H387.82V730.377H381.061V724.041H387.82V717.414H394.281V724.041H401.039V730.377Z" fill="#B0BEC5"/>
<g opacity="0.3">
<path d="M446.194 288.815C462.57 304.872 470.145 326.246 468.92 347.255C467.88 365.388 460.305 383.193 446.194 397.029C432.083 410.866 413.925 418.294 395.47 419.313C374.044 420.515 352.21 413.087 335.871 397.029C305.385 367.136 305.385 318.708 335.871 288.815C366.358 258.921 415.745 258.921 446.231 288.815H446.194Z" fill="#B0BEC5"/>
</g>
<path style="mix-blend-mode:multiply" d="M427.777 306.911L468.921 347.255C467.881 365.387 460.306 383.193 446.195 397.029C432.084 410.865 413.926 418.293 395.471 419.313L354.29 378.932L427.777 306.911Z" fill="url(#paint5_linear_296_365)"/>
<path d="M354.29 378.933C374.565 398.813 407.465 398.813 427.74 378.933C448.014 359.052 448.014 326.792 427.74 306.911C407.465 287.03 374.565 287.03 354.29 306.911C334.015 326.792 334.015 359.052 354.29 378.933Z" fill="url(#paint6_linear_296_365)"/>
<path d="M368.994 359.708C366.84 358.216 365.132 356.14 363.944 353.409C362.756 350.678 362.162 347.511 362.162 343.833C362.162 340.156 362.756 336.988 363.944 334.257C365.132 331.526 366.803 329.451 368.994 327.958C371.185 326.465 373.636 325.737 376.421 325.737C379.206 325.737 381.657 326.465 383.848 327.958C386.001 329.451 387.709 331.526 388.898 334.257C390.086 336.988 390.68 340.156 390.68 343.833C390.68 347.511 390.086 350.715 388.898 353.409C387.709 356.14 386.038 358.216 383.848 359.708C381.694 361.201 379.206 361.93 376.421 361.93C373.636 361.93 371.185 361.201 368.994 359.708ZM382.474 357.669C384.219 356.431 385.593 354.611 386.558 352.28C387.524 349.95 388.006 347.11 388.006 343.833C388.006 340.556 387.524 337.752 386.558 335.386C385.593 333.019 384.219 331.235 382.474 329.997C380.728 328.759 378.723 328.14 376.421 328.14C374.119 328.14 372.113 328.759 370.368 329.997C368.623 331.235 367.249 333.055 366.283 335.386C365.318 337.716 364.835 340.556 364.835 343.833C364.835 347.11 365.318 349.914 366.283 352.28C367.249 354.647 368.623 356.431 370.368 357.669C372.113 358.907 374.119 359.526 376.421 359.526C378.723 359.526 380.728 358.907 382.474 357.669Z" fill="#B0BEC5"/>
<path d="M420.608 359.307V361.638H395.617V359.817L410.991 344.816C412.996 342.849 414.37 341.138 415.075 339.755C415.781 338.334 416.152 336.878 416.152 335.385C416.152 333.128 415.372 331.307 413.776 330.033C412.179 328.758 409.914 328.103 406.943 328.103C404.641 328.103 402.673 328.431 400.927 329.122C399.219 329.814 397.734 330.834 396.471 332.217L394.615 330.579C395.989 329.013 397.771 327.812 399.888 326.974C402.004 326.137 404.455 325.7 407.129 325.7C410.693 325.7 413.553 326.537 415.669 328.248C417.786 329.96 418.826 332.254 418.826 335.13C418.826 336.951 418.417 338.699 417.563 340.374C416.746 342.048 415.187 343.978 412.884 346.199L399.479 359.307H420.571H420.608Z" fill="#B0BEC5"/>
<path d="M841.701 706.309C835.463 701.976 831.452 695.24 831.452 687.739V394.153H820.647V687.739C820.647 695.057 816.971 701.939 810.806 706.017C803.305 710.969 798.441 719.453 798.701 729.029C799.109 742.939 810.732 754.517 824.917 755.1C840.55 755.719 853.398 743.485 853.398 728.301C853.398 719.198 848.794 711.151 841.701 706.309ZM836.057 730.377H829.299V737.003H822.8V730.377H816.079V724.041H822.8V717.414H829.299V724.041H836.057V730.377Z" fill="#B0BEC5"/>
<g opacity="0.3">
<path d="M881.247 288.815C897.622 304.872 905.197 326.246 903.972 347.255C902.932 365.388 895.357 383.193 881.247 397.029C867.136 410.866 848.978 418.294 830.522 419.313C809.097 420.515 787.262 413.087 770.886 397.029C740.4 367.136 740.4 318.708 770.886 288.815C801.373 258.921 850.76 258.921 881.247 288.815Z" fill="#B0BEC5"/>
</g>
<path style="mix-blend-mode:multiply" d="M862.793 306.911L903.936 347.255C902.897 365.387 895.321 383.193 881.211 397.029C867.1 410.865 848.942 418.293 830.487 419.313L789.306 378.932L862.793 306.911Z" fill="url(#paint7_linear_296_365)"/>
<path d="M789.344 378.933C809.619 398.813 842.519 398.813 862.794 378.933C883.068 359.052 883.068 326.792 862.794 306.911C842.519 287.03 809.619 287.03 789.344 306.911C769.069 326.792 769.069 359.052 789.344 378.933Z" fill="url(#paint8_linear_296_365)"/>
<path d="M801.634 359.708C799.48 358.215 797.772 356.14 796.584 353.409C795.396 350.678 794.802 347.51 794.802 343.833C794.802 340.155 795.396 336.987 796.584 334.257C797.772 331.526 799.443 329.45 801.634 327.957C803.788 326.465 806.276 325.736 809.024 325.736C811.771 325.736 814.259 326.465 816.45 327.957C818.604 329.45 820.312 331.526 821.5 334.257C822.689 336.987 823.283 340.155 823.283 343.833C823.283 347.51 822.689 350.715 821.5 353.409C820.312 356.14 818.641 358.215 816.45 359.708C814.259 361.201 811.809 361.929 809.024 361.929C806.239 361.929 803.788 361.201 801.634 359.708ZM815.113 357.669C816.859 356.431 818.233 354.611 819.198 352.28C820.164 349.95 820.646 347.11 820.646 343.833C820.646 340.556 820.164 337.752 819.198 335.385C818.233 333.019 816.859 331.234 815.113 329.996C813.368 328.758 811.326 328.139 809.061 328.139C806.796 328.139 804.753 328.758 803.008 329.996C801.263 331.234 799.889 333.055 798.923 335.385C797.958 337.752 797.475 340.556 797.475 343.833C797.475 347.11 797.958 349.914 798.923 352.28C799.889 354.647 801.263 356.431 803.008 357.669C804.753 358.907 806.796 359.526 809.061 359.526C811.326 359.526 813.368 358.907 815.113 357.669Z" fill="#B0BEC5"/>
<path d="M859.376 351.771H851.727V361.675H849.127V351.771H828.37V349.878L848.125 325.955H851.095L831.712 349.441H849.164V340.738H851.727V349.441H859.376V351.735V351.771Z" fill="#B0BEC5"/>
<path d="M1044.26 0.873572C1028.63 0.254577 1015.74 12.4888 1015.74 27.6724C1015.74 36.7753 1020.35 44.8222 1027.44 49.6649C1033.72 53.9615 1037.69 60.734 1037.69 68.2347V361.82H1048.5V68.2347C1048.5 60.916 1052.17 54.0343 1058.37 49.9562C1065.87 45.0042 1070.7 36.5204 1070.44 26.9442C1070.07 13.035 1058.41 1.45615 1044.26 0.873572ZM1053.1 30.5489H1046.34V37.1394H1039.84V30.5489H1033.12V24.1769H1039.84V17.5864H1046.34V24.1769H1053.1V30.5489Z" fill="#B0BEC5"/>
<g opacity="0.3">
<path d="M1098.29 358.652C1114.67 374.71 1122.24 396.083 1121.02 417.093C1120.01 435.226 1112.4 453.031 1098.29 466.867C1084.18 480.703 1066.02 488.131 1047.57 489.151C1026.14 490.353 1004.31 482.925 987.93 466.867C957.443 436.973 957.443 388.546 987.93 358.652C1018.42 328.758 1067.8 328.758 1098.29 358.652Z" fill="#B0BEC5"/>
</g>
<path style="mix-blend-mode:multiply" d="M1079.83 376.748L1120.98 417.092C1119.98 435.225 1112.36 453.03 1098.25 466.867C1084.14 480.703 1065.98 488.131 1047.53 489.15L1006.35 448.77L1079.83 376.748Z" fill="url(#paint9_linear_296_365)"/>
<path d="M1006.35 448.77C1026.62 468.651 1059.52 468.651 1079.8 448.77C1100.07 428.89 1100.07 396.629 1079.8 376.749C1059.52 356.868 1026.62 356.868 1006.35 376.749C986.073 396.629 986.073 428.89 1006.35 448.77Z" fill="url(#paint10_linear_296_365)"/>
<path d="M1021.16 429.546C1019.01 428.053 1017.3 425.978 1016.11 423.247C1014.93 420.516 1014.33 417.348 1014.33 413.67C1014.33 409.993 1014.93 406.825 1016.11 404.094C1017.3 401.363 1018.97 399.288 1021.16 397.795C1023.32 396.302 1025.81 395.574 1028.55 395.574C1031.3 395.574 1033.79 396.302 1035.98 397.795C1038.13 399.288 1039.84 401.363 1041.03 404.094C1042.22 406.825 1042.81 409.993 1042.81 413.67C1042.81 417.348 1042.22 420.552 1041.03 423.247C1039.84 425.978 1038.17 428.053 1035.98 429.546C1033.83 431.039 1031.34 431.767 1028.55 431.767C1025.77 431.767 1023.32 431.039 1021.16 429.546ZM1034.64 427.507C1036.39 426.269 1037.76 424.448 1038.73 422.118C1039.69 419.751 1040.18 416.948 1040.18 413.67C1040.18 410.393 1039.69 407.59 1038.73 405.223C1037.76 402.856 1036.39 401.072 1034.64 399.834C1032.9 398.596 1030.86 397.977 1028.59 397.977C1026.33 397.977 1024.28 398.596 1022.54 399.834C1020.79 401.072 1019.42 402.893 1018.45 405.223C1017.49 407.59 1017.01 410.393 1017.01 413.67C1017.01 416.948 1017.49 419.751 1018.45 422.118C1019.42 424.485 1020.79 426.269 1022.54 427.507C1024.28 428.745 1026.33 429.364 1028.59 429.364C1030.86 429.364 1032.9 428.745 1034.64 427.507Z" fill="#B0BEC5"/>
<path d="M1068.96 413.488C1071.33 415.309 1072.56 417.894 1072.56 421.207C1072.56 423.246 1072.08 425.067 1071.11 426.633C1070.14 428.198 1068.73 429.473 1066.84 430.383C1064.95 431.293 1062.61 431.767 1059.82 431.767C1057.04 431.767 1054.73 431.33 1052.39 430.456C1050.09 429.582 1048.31 428.417 1047.01 426.997L1048.35 424.994C1049.5 426.269 1051.09 427.325 1053.1 428.162C1055.14 428.963 1057.33 429.4 1059.75 429.4C1063.01 429.4 1065.5 428.672 1067.25 427.215C1068.99 425.759 1069.88 423.793 1069.88 421.353C1069.88 418.659 1068.88 416.62 1066.88 415.236C1064.87 413.852 1061.53 413.16 1056.81 413.16H1049.42L1051.35 395.865H1070.63V398.195H1053.58L1052.17 410.794H1057.37C1062.68 410.794 1066.5 411.704 1068.92 413.525L1068.96 413.488Z" fill="#B0BEC5"/>
<path d="M1277.68 706.309C1271.44 701.976 1267.43 695.24 1267.43 687.739V394.153H1256.63V687.739C1256.63 695.057 1252.95 701.939 1246.75 706.017C1239.25 710.969 1234.39 719.453 1234.68 729.029C1235.05 742.939 1246.68 754.517 1260.86 755.1C1276.49 755.719 1289.38 743.485 1289.38 728.301C1289.38 719.198 1284.74 711.151 1277.68 706.309ZM1272 730.377H1265.24V737.003H1258.78V730.377H1252.02V724.041H1258.78V717.414H1265.24V724.041H1272V730.377Z" fill="#B0BEC5"/>
<g opacity="0.3">
<path d="M1317.19 288.815C1333.57 304.872 1341.14 326.246 1339.92 347.255C1338.88 365.388 1331.3 383.193 1317.19 397.029C1303.08 410.866 1284.92 418.294 1266.47 419.313C1245.04 420.515 1223.21 413.087 1206.83 397.029C1176.34 367.136 1176.34 318.708 1206.83 288.815C1237.32 258.921 1286.71 258.921 1317.19 288.815Z" fill="#B0BEC5"/>
</g>
<path style="mix-blend-mode:multiply" d="M1298.77 306.874L1339.92 347.218C1338.88 365.351 1331.3 383.156 1317.19 396.992C1303.08 410.829 1284.92 418.257 1266.47 419.276L1225.29 378.896L1298.77 306.874Z" fill="url(#paint11_linear_296_365)"/>
<path d="M1225.29 378.933C1245.56 398.813 1278.46 398.813 1298.74 378.933C1319.01 359.052 1319.01 326.792 1298.74 306.911C1278.46 287.03 1245.56 287.03 1225.29 306.911C1205.01 326.792 1205.01 359.052 1225.29 378.933Z" fill="url(#paint12_linear_296_365)"/>
<path d="M1238.95 359.708C1236.8 358.215 1235.09 356.14 1233.9 353.409C1232.71 350.678 1232.12 347.51 1232.12 343.833C1232.12 340.155 1232.71 336.987 1233.9 334.257C1235.09 331.526 1236.76 329.45 1238.95 327.957C1241.11 326.465 1243.59 325.736 1246.34 325.736C1249.09 325.736 1251.58 326.465 1253.77 327.957C1255.92 329.45 1257.63 331.526 1258.82 334.257C1260.01 336.987 1260.6 340.155 1260.6 343.833C1260.6 347.51 1260.01 350.678 1258.82 353.409C1257.63 356.14 1255.96 358.215 1253.77 359.708C1251.61 361.201 1249.13 361.929 1246.34 361.929C1243.56 361.929 1241.11 361.201 1238.95 359.708ZM1252.43 357.669C1254.18 356.431 1255.55 354.611 1256.52 352.28C1257.48 349.914 1257.96 347.11 1257.96 343.833C1257.96 340.556 1257.48 337.752 1256.52 335.385C1255.55 333.019 1254.18 331.234 1252.43 329.996C1250.69 328.758 1248.64 328.139 1246.38 328.139C1244.11 328.139 1242.07 328.758 1240.33 329.996C1238.58 331.234 1237.21 333.055 1236.24 335.385C1235.28 337.752 1234.79 340.556 1234.79 343.833C1234.79 347.11 1235.28 349.914 1236.24 352.28C1237.21 354.647 1238.58 356.431 1240.33 357.669C1242.07 358.907 1244.11 359.526 1246.38 359.526C1248.64 359.526 1250.69 358.907 1252.43 357.669Z" fill="#B0BEC5"/>
<path d="M1287.26 341.867C1289.12 342.741 1290.53 343.979 1291.53 345.581C1292.54 347.183 1293.06 349.076 1293.06 351.152C1293.06 353.227 1292.54 355.193 1291.5 356.796C1290.46 358.434 1289.01 359.672 1287.19 360.582C1285.33 361.456 1283.29 361.93 1280.95 361.93C1276.23 361.93 1272.63 360.364 1270.11 357.232C1267.58 354.101 1266.32 349.695 1266.32 344.052C1266.32 340.119 1266.99 336.769 1268.32 334.038C1269.66 331.308 1271.56 329.232 1273.97 327.848C1276.38 326.465 1279.24 325.773 1282.51 325.773C1285.93 325.773 1288.71 326.392 1290.79 327.594L1289.71 329.669C1287.97 328.577 1285.59 328.03 1282.55 328.03C1278.35 328.03 1275.05 329.378 1272.63 332.036C1270.22 334.694 1269.03 338.553 1269.03 343.615C1269.03 345.18 1269.14 346.6 1269.33 347.911C1270.07 345.617 1271.48 343.797 1273.56 342.522C1275.64 341.211 1278.09 340.592 1280.91 340.592C1283.29 340.592 1285.41 341.029 1287.26 341.903V341.867ZM1287.75 357.378C1289.53 355.849 1290.38 353.773 1290.38 351.225C1290.38 348.676 1289.49 346.637 1287.75 345.107C1285.96 343.578 1283.59 342.814 1280.5 342.814C1278.57 342.814 1276.83 343.178 1275.27 343.942C1273.71 344.707 1272.52 345.726 1271.67 347.001C1270.81 348.312 1270.4 349.732 1270.4 351.334C1270.4 352.754 1270.81 354.137 1271.63 355.412C1272.45 356.723 1273.63 357.742 1275.19 358.507C1276.75 359.271 1278.61 359.672 1280.8 359.672C1283.66 359.672 1285.96 358.907 1287.71 357.342L1287.75 357.378Z" fill="#B0BEC5"/>
<defs>
<linearGradient id="paint0_linear_296_365" x1="0" y1="376.894" x2="1388.27" y2="376.894" gradientUnits="userSpaceOnUse">
<stop stop-color="#CFD8DC"/>
<stop offset="0.1" stop-color="#CDD6DA" stop-opacity="0.95"/>
<stop offset="0.26" stop-color="#C9D3D7" stop-opacity="0.82"/>
<stop offset="0.48" stop-color="#C3CED3" stop-opacity="0.62"/>
<stop offset="0.74" stop-color="#BAC6CC" stop-opacity="0.33"/>
<stop offset="1" stop-color="#B0BEC5" stop-opacity="0"/>
</linearGradient>
<linearGradient id="paint1_linear_296_365" x1="664.277" y1="466.939" x2="609.561" y2="411.139" gradientUnits="userSpaceOnUse">
<stop stop-color="white" stop-opacity="0"/>
<stop offset="0.26" stop-color="#EFF2F3" stop-opacity="0.33"/>
<stop offset="0.52" stop-color="#E1E6E9" stop-opacity="0.62"/>
<stop offset="0.74" stop-color="#D7DEE2" stop-opacity="0.82"/>
<stop offset="0.9" stop-color="#D1D9DD" stop-opacity="0.95"/>
<stop offset="1" stop-color="#CFD8DC"/>
</linearGradient>
<linearGradient id="paint2_linear_296_365" x1="575.602" y1="377.986" x2="644.29" y2="452.337" gradientUnits="userSpaceOnUse">
<stop stop-color="white"/>
<stop offset="0.98" stop-color="#D1D3D4"/>
<stop offset="1" stop-color="#D1D3D4"/>
</linearGradient>
<linearGradient id="paint3_linear_296_365" x1="173.078" y1="411.084" x2="226.931" y2="471.415" gradientUnits="userSpaceOnUse">
<stop stop-color="#CFD8DC"/>
<stop offset="0.1" stop-color="#D1D9DD" stop-opacity="0.95"/>
<stop offset="0.26" stop-color="#D7DEE2" stop-opacity="0.82"/>
<stop offset="0.48" stop-color="#E1E6E9" stop-opacity="0.62"/>
<stop offset="0.74" stop-color="#EFF2F3" stop-opacity="0.33"/>
<stop offset="1" stop-color="white" stop-opacity="0"/>
</linearGradient>
<linearGradient id="paint4_linear_296_365" x1="139.362" y1="377.987" x2="208.086" y2="452.375" gradientUnits="userSpaceOnUse">
<stop stop-color="white"/>
<stop offset="0.98" stop-color="#D1D3D4"/>
<stop offset="1" stop-color="#D1D3D4"/>
</linearGradient>
<linearGradient id="paint5_linear_296_365" x1="445.564" y1="396.374" x2="389.61" y2="339.311" gradientUnits="userSpaceOnUse">
<stop stop-color="white" stop-opacity="0"/>
<stop offset="0.26" stop-color="#EFF2F3" stop-opacity="0.33"/>
<stop offset="0.52" stop-color="#E1E6E9" stop-opacity="0.62"/>
<stop offset="0.74" stop-color="#D7DEE2" stop-opacity="0.82"/>
<stop offset="0.9" stop-color="#D1D9DD" stop-opacity="0.95"/>
<stop offset="1" stop-color="#CFD8DC"/>
</linearGradient>
<linearGradient id="paint6_linear_296_365" x1="357.632" y1="308.149" x2="426.32" y2="382.5" gradientUnits="userSpaceOnUse">
<stop stop-color="white"/>
<stop offset="0.98" stop-color="#D1D3D4"/>
<stop offset="1" stop-color="#D1D3D4"/>
</linearGradient>
<linearGradient id="paint7_linear_296_365" x1="825.157" y1="342.084" x2="878.752" y2="396.741" gradientUnits="userSpaceOnUse">
<stop stop-color="#CFD8DC"/>
<stop offset="0.1" stop-color="#D1D9DD" stop-opacity="0.95"/>
<stop offset="0.26" stop-color="#D7DEE2" stop-opacity="0.82"/>
<stop offset="0.48" stop-color="#E1E6E9" stop-opacity="0.62"/>
<stop offset="0.74" stop-color="#EFF2F3" stop-opacity="0.33"/>
<stop offset="1" stop-color="white" stop-opacity="0"/>
</linearGradient>
<linearGradient id="paint8_linear_296_365" x1="792.649" y1="308.149" x2="861.336" y2="382.536" gradientUnits="userSpaceOnUse">
<stop stop-color="white"/>
<stop offset="0.98" stop-color="#D1D3D4"/>
<stop offset="1" stop-color="#D1D3D4"/>
</linearGradient>
<linearGradient id="paint9_linear_296_365" x1="1042.19" y1="411.946" x2="1095.81" y2="466.629" gradientUnits="userSpaceOnUse">
<stop stop-color="#CFD8DC"/>
<stop offset="0.1" stop-color="#D1D9DD" stop-opacity="0.95"/>
<stop offset="0.26" stop-color="#D7DEE2" stop-opacity="0.82"/>
<stop offset="0.48" stop-color="#E1E6E9" stop-opacity="0.62"/>
<stop offset="0.74" stop-color="#EFF2F3" stop-opacity="0.33"/>
<stop offset="1" stop-color="white" stop-opacity="0"/>
</linearGradient>
<linearGradient id="paint10_linear_296_365" x1="1009.65" y1="377.987" x2="1078.38" y2="452.338" gradientUnits="userSpaceOnUse">
<stop stop-color="white"/>
<stop offset="0.98" stop-color="#D1D3D4"/>
<stop offset="1" stop-color="#D1D3D4"/>
</linearGradient>
<linearGradient id="paint11_linear_296_365" x1="1320.01" y1="399.76" x2="1266.1" y2="344.776" gradientUnits="userSpaceOnUse">
<stop stop-color="white" stop-opacity="0"/>
<stop offset="0.26" stop-color="#EFF2F3" stop-opacity="0.33"/>
<stop offset="0.52" stop-color="#E1E6E9" stop-opacity="0.62"/>
<stop offset="0.74" stop-color="#D7DEE2" stop-opacity="0.82"/>
<stop offset="0.9" stop-color="#D1D9DD" stop-opacity="0.95"/>
<stop offset="1" stop-color="#CFD8DC"/>
</linearGradient>
<linearGradient id="paint12_linear_296_365" x1="1228.63" y1="308.149" x2="1297.32" y2="382.5" gradientUnits="userSpaceOnUse">
<stop stop-color="white"/>
<stop offset="0.98" stop-color="#D1D3D4"/>
<stop offset="1" stop-color="#D1D3D4"/>
</linearGradient>
</defs>
</svg>
