<svg width="41" height="41" viewBox="0 0 41 41" fill="none" xmlns="http://www.w3.org/2000/svg">
<g clip-path="url(#clip0_830_1492)">
<path d="M21.2177 40.9999H19.8162C19.5717 40.9757 19.3278 40.9448 19.0829 40.9284C17.7276 40.8377 16.3944 40.6154 15.0853 40.2532C11.52 39.267 8.43928 37.4523 5.85236 34.8119C3.42879 32.3382 1.74172 29.4306 0.786559 26.1007C0.430628 24.8599 0.197549 23.5959 0.0881246 22.3106C0.02259 21.54 -0.019296 20.7679 0.00896205 19.9928C0.0472407 18.9382 0.140432 17.8897 0.328619 16.8512C0.855901 13.9411 1.95877 11.2666 3.64463 8.83685C5.54253 6.10165 7.9647 3.9489 10.9043 2.38401C13.5959 0.95111 16.4708 0.169166 19.515 0.0243541C21.0993 -0.0509561 22.6757 0.0469873 24.2381 0.337813C26.1448 0.692933 27.9688 1.29501 29.6991 2.1715C33.0939 3.89121 35.8217 6.35362 37.8513 9.57133C39.777 12.6246 40.8366 15.9563 40.9701 19.5722C40.9727 19.6441 40.9895 19.7154 40.9999 19.7871V21.228C40.9889 21.2993 40.9687 21.3704 40.9681 21.4417C40.9611 22.2978 40.854 23.1442 40.7094 23.9854C40.3506 26.0699 39.6923 28.057 38.7044 29.9281C36.5508 34.0077 33.3909 37.0507 29.224 39.0354C26.9238 40.1311 24.494 40.7508 21.9514 40.9262C21.7065 40.943 21.4624 40.9749 21.2179 40.9999H21.2177ZM17.9835 28.9625C18.2649 29.003 21.9727 28.9911 22.1306 28.9475V28.6957C22.1306 26.2481 22.1306 23.8008 22.1308 21.3532C22.1308 21.2332 22.1348 21.1132 22.1354 20.993C22.1386 20.3825 22.3739 19.863 22.7737 19.4163C23.3291 18.796 24.0329 18.5963 24.84 18.7327C25.4512 18.8359 25.8831 19.1856 26.148 19.7394C26.2282 19.9067 26.2917 20.0843 26.3424 20.263C26.4689 20.709 26.5004 21.1679 26.5004 21.6294C26.5006 23.9968 26.5004 26.3643 26.5004 28.7318V28.9737H30.6509V28.7115C30.6509 26.2241 30.6519 23.7365 30.6497 21.249C30.6495 20.9424 30.6437 20.6351 30.622 20.3295C30.5689 19.581 30.4312 18.8495 30.1495 18.1499C29.8074 17.3002 29.2905 16.5862 28.5213 16.0724C27.8151 15.6005 27.0278 15.3814 26.1849 15.3374C25.2394 15.2881 24.3383 15.4493 23.4958 15.8926C22.8228 16.2467 22.2645 16.7324 21.8266 17.3557C21.7923 17.4046 21.7749 17.4867 21.6672 17.4617C21.5797 16.857 21.5534 16.2413 21.464 15.6414H17.8736C18.0612 20.0867 17.9282 24.5202 17.9829 28.9623L17.9835 28.9625ZM11.3444 28.9715H15.4745V15.6482C15.2088 15.6092 11.4919 15.6204 11.3444 15.66V28.9713V28.9715ZM13.446 9.81388C13.4442 9.82249 13.4423 9.83111 13.4405 9.83972C13.3341 9.84653 13.2273 9.85093 13.1211 9.86055C12.0304 9.95809 11.2557 10.7855 11.2314 11.8777C11.2094 12.8696 11.8224 13.6757 12.7856 13.9167C13.2287 14.0276 13.6726 14.0134 14.1117 13.8963C15.0122 13.6559 15.599 12.9082 15.6204 11.9839C15.6427 11.0305 15.1044 10.2367 14.2278 9.9641C13.976 9.88579 13.7071 9.86235 13.4462 9.81388H13.446Z" fill="white" fill-opacity="0.6"/>
</g>
<defs>
<clipPath id="clip0_830_1492">
<rect width="41" height="41" fill="white"/>
</clipPath>
</defs>
</svg>
