<svg width="32" height="31" viewBox="0 0 32 31" fill="none" xmlns="http://www.w3.org/2000/svg">
<path d="M29.3281 0H3.19817C1.94647 0 0.934326 0.981024 0.934326 2.19393V28.2416C0.934326 29.4545 1.94647 30.4415 3.19817 30.4415H29.3281C30.5798 30.4415 31.598 29.4545 31.598 28.2476V2.19393C31.598 0.981024 30.5798 0 29.3281 0ZM10.0316 25.9407H5.47997V11.4096H10.0316V25.9407ZM7.75579 9.42972C6.29448 9.42972 5.11464 8.25844 5.11464 6.81366C5.11464 5.36888 6.29448 4.19759 7.75579 4.19759C9.21112 4.19759 10.3909 5.36888 10.3909 6.81366C10.3909 8.2525 9.21112 9.42972 7.75579 9.42972ZM27.0643 25.9407H22.5187V18.8773C22.5187 17.1947 22.4887 15.0245 20.153 15.0245C17.7874 15.0245 17.428 16.8617 17.428 18.7584V25.9407H12.8884V11.4096H17.2483V13.3954H17.3082C17.9131 12.2539 19.3984 11.0469 21.6083 11.0469C26.2139 11.0469 27.0643 14.0554 27.0643 17.9676V25.9407V25.9407Z" fill="white" fill-opacity="0.7"/>
</svg>
