<svg width="24" height="24" viewBox="0 0 24 24" fill="none" xmlns="http://www.w3.org/2000/svg">
<path d="M12 2.75C8.31005 2.75 5.30005 5.76 5.30005 9.45C5.30005 14.03 11.3 20.77 11.55 21.05C11.79 21.32 12.21 21.32 12.45 21.05C12.71 20.77 18.7 14.03 18.7 9.45C18.7 5.76 15.69 2.75 12 2.75Z" stroke="#1B1B1B" stroke-width="1.5" stroke-linecap="round" stroke-linejoin="round"/>
<path d="M12.3848 11.7852C13.6775 11.5795 14.5586 10.3647 14.3528 9.07204C14.1471 7.77936 12.9324 6.89824 11.6397 7.104C10.347 7.30976 9.46587 8.52449 9.67164 9.81717C9.8774 11.1099 11.0921 11.991 12.3848 11.7852Z" stroke="#1B1B1B" stroke-width="1.5" stroke-linecap="round" stroke-linejoin="round"/>
</svg>
