<svg width="76" height="76" viewBox="0 0 76 76" fill="none" xmlns="http://www.w3.org/2000/svg">
<rect y="0.272217" width="75.0891" height="75.0891" rx="8" fill="#6A65FF"/>
<path fill-rule="evenodd" clip-rule="evenodd" d="M27.0104 24.0602V27.1973L23.2697 27.4992C20.6248 27.7127 18.4673 29.7042 18.0431 32.3235C17.9509 32.8928 17.8671 33.4631 17.7916 34.0342C17.7541 34.3175 17.9053 34.5919 18.1636 34.7142L18.3338 34.7948C30.3222 40.4712 44.6778 40.4712 56.6662 34.7948L56.8363 34.7142C57.0947 34.5919 57.2458 34.3176 57.2084 34.0342C57.1329 33.4631 57.0491 32.8928 56.9569 32.3235C56.5327 29.7042 54.3752 27.7127 51.7303 27.4992L47.9896 27.1973V24.0602C47.9896 22.1472 46.5901 20.5221 44.6983 20.2383L42.0043 19.8342C39.0181 19.3863 35.9819 19.3863 32.9957 19.8342L30.3017 20.2383C28.4099 20.5221 27.0104 22.1472 27.0104 24.0602ZM41.5129 23.1101C38.8525 22.711 36.1475 22.711 33.4871 23.1101L30.7931 23.5142C30.5229 23.5547 30.3229 23.7869 30.3229 24.0602V26.9641C35.1037 26.6903 39.8963 26.6903 44.6771 26.9641V24.0602C44.6771 23.7869 44.4772 23.5547 44.2069 23.5142L41.5129 23.1101Z" fill="white"/>
<path d="M57.6363 38.6565C57.6198 38.3471 57.2959 38.1538 57.0125 38.2793C44.7101 43.7264 30.2899 43.7264 17.9874 38.2793C17.7041 38.1538 17.3802 38.3471 17.3637 38.6565C17.139 42.8776 17.3654 47.1168 18.0431 51.3015C18.4673 53.9209 20.6248 55.9123 23.2697 56.1258L27.4035 56.4595C34.1236 57.0019 40.8764 57.0019 47.5965 56.4595L51.7303 56.1258C54.3752 55.9123 56.5327 53.9209 56.9569 51.3015C57.6346 47.1168 57.861 42.8776 57.6363 38.6565Z" fill="white"/>
</svg>
