<svg width="76" height="76" viewBox="0 0 76 76" fill="none" xmlns="http://www.w3.org/2000/svg">
<rect width="75.0891" height="75.0891" rx="8" fill="#6A65FF"/>
<path d="M32 31.0001C32 27.6864 34.6863 25.0001 38 25.0001C41.3137 25.0001 44 27.6864 44 31.0001C44 34.3138 41.3137 37.0001 38 37.0001C34.6863 37.0001 32 34.3138 32 31.0001Z" fill="white"/>
<path fill-rule="evenodd" clip-rule="evenodd" d="M37.5681 13.6667C29.0285 13.6667 21.9164 20.2167 21.2149 28.7275C20.8377 33.3027 22.251 37.8458 25.157 41.3997L34.7431 53.1233C36.4264 55.182 39.5737 55.182 41.257 53.1233L50.8431 41.3997C53.7491 37.8458 55.1624 33.3027 54.7852 28.7275C54.0837 20.2167 46.9716 13.6667 38.432 13.6667H37.5681ZM38 21.0001C32.4772 21.0001 28 25.4772 28 31.0001C28 36.5229 32.4772 41.0001 38 41.0001C43.5229 41.0001 48 36.5229 48 31.0001C48 25.4772 43.5229 21.0001 38 21.0001Z" fill="white"/>
<path d="M25.5611 47.8779C26.5491 48.3719 26.9495 49.5732 26.4556 50.5612L22.5694 58.3334H53.4306L49.5445 50.5612C49.0505 49.5732 49.451 48.3719 50.4389 47.8779C51.4269 47.3839 52.6283 47.7844 53.1222 48.7723L58.4556 59.439C58.7656 60.059 58.7324 60.7952 58.368 61.3849C58.0036 61.9745 57.3599 62.3334 56.6667 62.3334H19.3334C18.6402 62.3334 17.9965 61.9745 17.6321 61.3849C17.2677 60.7952 17.2345 60.059 17.5445 59.439L22.8779 48.7723C23.3718 47.7844 24.5732 47.3839 25.5611 47.8779Z" fill="white"/>
</svg>
