<svg width="37" height="30" viewBox="0 0 37 30" fill="none" xmlns="http://www.w3.org/2000/svg">
<path d="M10.5914 22.774C10.7106 22.6085 10.8237 22.4523 10.936 22.2957C12.0593 20.7307 13.186 19.1695 14.3045 17.5998C15.079 16.5127 15.8391 15.4114 16.6102 14.3209C18.2149 12.0513 19.9294 9.90359 21.7297 7.85198C23.5228 5.80888 25.3941 3.87211 27.3489 2.04931C27.3948 2.00659 27.4426 1.96672 27.5041 1.91248C27.5165 1.9731 27.528 2.01014 27.5312 2.04806C27.536 2.10673 27.5312 2.16663 27.5371 2.22494C27.5558 2.40713 27.6305 2.46154 27.7745 2.3949C27.8298 2.36938 27.8818 2.3327 27.9334 2.29743C28.2449 2.08599 28.5635 1.89317 28.9048 1.75759C29.0615 1.69538 29.2204 1.65462 29.3876 1.6617C29.5399 1.66808 29.6494 1.75652 29.7407 1.8921C29.7871 1.96105 29.7829 2.02237 29.7313 2.0789C29.6618 2.15493 29.5916 2.23026 29.5181 2.30044C29.4056 2.40784 29.289 2.50886 29.1765 2.61609C29.1357 2.65508 29.0902 2.68928 29.0923 2.77169C29.0932 2.80554 29.0507 2.84648 29.0218 2.87502C28.6809 3.21069 28.3346 3.5391 27.9984 3.88115C27.787 4.09613 27.5887 4.32936 27.3876 4.55817C27.3322 4.62108 27.274 4.6879 27.2605 4.79122C27.3352 4.83181 27.3849 4.78254 27.4344 4.75135C27.7328 4.56207 28.0263 4.36463 28.2955 4.11757C28.5828 3.85386 28.8748 3.5967 29.172 3.34893C29.326 3.22044 29.4924 3.11091 29.6597 3.00794C29.732 2.96346 29.8203 2.94396 29.9029 2.93687C30.0202 2.92659 30.0657 2.98384 30.0717 3.12332C30.0754 3.21175 30.0721 3.30055 30.0715 3.38898C30.0709 3.48805 30.0853 3.58057 30.1686 3.62931C30.2539 3.67911 30.3285 3.65164 30.4034 3.58535C30.7948 3.23993 31.1887 2.89841 31.5817 2.55583C31.6138 2.52782 31.644 2.4899 31.6801 2.47714C31.7296 2.45959 31.7972 2.43655 31.8325 2.4626C31.8667 2.48795 31.8816 2.57196 31.8834 2.63097C31.886 2.71232 31.8668 2.79456 31.8601 2.87661C31.8579 2.90462 31.8656 2.93386 31.8718 2.99039C31.9282 2.96718 31.9799 2.95654 32.022 2.92677C32.4327 2.63735 32.8473 2.3552 33.2499 2.05072C34.0261 1.46356 34.795 0.862576 35.5678 0.268857C35.6885 0.176166 35.8138 0.0916277 35.9415 0C36.0207 0.0581313 36.0946 0.112364 36.1844 0.178116C36.136 0.258046 36.1069 0.327697 36.0618 0.376436C35.9627 0.483482 35.8639 0.595668 35.7508 0.678789C33.0796 2.64604 30.5924 4.90642 28.2081 7.3311C26.0367 9.5392 23.9685 11.8776 21.9734 14.3074C18.8161 18.1526 15.8408 22.1875 13.0451 26.4079C12.3008 27.5314 11.5892 28.6853 10.8624 29.8251C10.8271 29.8804 10.7907 29.9344 10.7473 30C10.7037 29.9431 10.67 29.9015 10.6385 29.8577C7.38873 25.3444 4.14423 20.8255 0.963964 16.2427C0.812501 16.0246 0.680457 15.7871 0.544828 15.554C0.5039 15.4837 0.481046 15.3984 0.451172 15.3233C0.507933 15.2566 0.555134 15.282 0.598153 15.3091C0.703311 15.3759 0.812053 15.4374 0.909145 15.5182C1.16995 15.735 1.42552 15.9608 1.68304 16.1828C1.72606 16.2199 1.76908 16.2569 1.82405 16.2823C1.71919 16.0444 1.69753 15.761 1.50409 15.5806L1.51858 15.5455C1.56384 15.5453 1.61343 15.5306 1.65361 15.5475C1.80776 15.6114 1.96625 15.669 2.10964 15.7593C2.51265 16.0127 2.86023 16.3583 3.19423 16.7232C3.3327 16.8746 3.46698 17.0311 3.62218 17.1691C3.60545 17.1383 3.59141 17.1046 3.57169 17.0768C3.36631 16.7879 3.15883 16.501 2.95494 16.2105C2.91416 16.1525 2.87846 16.0855 2.85441 16.0161C2.82693 15.937 2.85471 15.8899 2.92745 15.8851C3.02111 15.8789 3.11536 15.8837 3.22395 15.8837C3.33957 16.0354 3.4631 16.2052 3.5938 16.3666C3.79291 16.6128 3.79889 16.6103 4.01084 16.3897C4.04057 16.3588 4.07149 16.3298 4.1163 16.2856C3.93198 16.0038 3.7354 15.7555 3.55212 15.486C3.65071 15.3927 3.74586 15.3029 3.85251 15.202C3.89941 15.2554 3.9496 15.3027 3.98978 15.3596C4.29614 15.7945 4.60011 16.2319 4.90603 16.6672C5.161 17.03 5.41673 17.3921 5.6741 17.7524C5.71816 17.8141 5.77208 17.8658 5.83019 17.9323C5.90338 17.8612 5.96731 17.7993 6.04185 17.727C5.99853 17.6494 5.96612 17.5769 5.92265 17.5154C5.5776 17.0266 5.233 16.5369 4.88287 16.0533C4.66658 15.7546 4.44073 15.4658 4.2228 15.1604C4.34902 15.2391 4.47046 15.2483 4.60669 15.1278C4.65389 15.1955 4.6981 15.2588 4.74217 15.3222C5.08677 15.8193 5.43435 16.3136 5.77507 16.8145C6.15686 17.3758 6.54254 17.9321 7.00499 18.4051C7.04428 18.4453 7.0864 18.4817 7.12718 18.5196C7.13644 18.5086 7.1457 18.4974 7.15481 18.4865C7.08103 18.3808 7.00783 18.2747 6.9333 18.1698C6.85308 18.0569 6.77168 17.9452 6.69087 17.8328C6.61364 17.7254 6.53657 17.618 6.4701 17.492C6.51416 17.5234 6.5636 17.5475 6.60139 17.5872C6.80275 17.7977 7.0168 17.995 7.19709 18.2289C7.49239 18.6121 7.77814 19.0079 8.04432 19.4198C8.64211 20.3445 9.28336 21.2232 9.9733 22.0521C10.1721 22.2909 10.3766 22.5229 10.5917 22.7733L10.5914 22.774Z" fill="#F192EF"/>
</svg>
