<svg width="63" height="75" viewBox="0 0 63 75" fill="none" xmlns="http://www.w3.org/2000/svg">
<path d="M17.1235 34.5282C17.1235 34.4268 17.1235 34.3316 17.1235 34.2365C17.1235 31.6258 17.1226 29.0156 17.1235 26.4049C17.1259 20.9827 20.8418 16.3365 26.0679 15.2529C26.7429 15.1131 27.4411 15.041 28.1303 15.0285C29.7838 14.9992 31.4397 14.9809 33.0922 15.0357C36.0967 15.1356 38.6611 16.312 40.7433 18.5099C42.8653 20.7501 43.8764 23.4579 43.8735 26.563C43.8712 29.1256 43.8768 31.6878 43.8664 34.2504C43.8655 34.4854 43.9378 34.57 44.1519 34.6099C44.9489 34.7588 45.7412 34.9361 46.5405 35.0717C46.7962 35.1149 46.8837 35.2014 46.903 35.4676C47.0406 37.3484 47.0259 39.2277 46.8893 41.1066C46.6809 43.9753 46.1883 46.7916 45.3327 49.5369C44.2413 53.0399 42.619 56.2537 40.2659 59.0638C38.1799 61.5548 35.6845 63.5154 32.81 64.9771C32.1274 65.324 31.4203 65.621 30.7268 65.9454C30.5732 66.0174 30.4357 66.016 30.2768 65.9502C27.4042 64.7604 24.7945 63.1477 22.5274 60.983C20.5567 59.1012 18.9614 56.9302 17.6974 54.5046C16.1228 51.4835 15.1354 48.2645 14.5658 44.9046C14.1082 42.205 13.9281 39.4858 14.0255 36.7482C14.042 36.2763 14.086 35.8054 14.1091 35.334C14.1167 35.1788 14.1767 35.125 14.3304 35.0962C15.1822 34.9385 16.0307 34.7651 16.8801 34.5955C16.9562 34.5801 17.0304 34.5536 17.1235 34.5272V34.5282ZM20.3265 33.4259C24.1072 31.793 27.4492 29.5687 30.4981 26.8681C33.5578 29.5754 36.8989 31.7998 40.67 33.4249V33.0683C40.67 30.8666 40.6639 28.6648 40.6719 26.4631C40.6771 25.0734 40.3935 23.7529 39.718 22.5453C38.1841 19.803 35.8533 18.3595 32.7467 18.2716C31.3224 18.2312 29.8958 18.2595 28.4702 18.2682C28.0618 18.2706 27.651 18.2922 27.2459 18.3417C23.3806 18.8145 20.3298 22.3094 20.3265 26.2622C20.3246 28.5442 20.3265 30.8257 20.3265 33.1077C20.3265 33.1947 20.3265 33.2817 20.3265 33.4254V33.4259ZM31.6443 45.0968C31.7833 45.0252 31.8968 44.97 32.0074 44.9094C33.2841 44.2074 33.9171 42.7067 33.5441 41.2675C33.1806 39.8654 31.8873 38.862 30.4706 38.8841C29.0034 38.9072 27.7413 39.9456 27.4217 41.3925C27.1003 42.8489 27.7904 44.3145 29.1258 44.9743C29.3149 45.0675 29.3447 45.1593 29.3002 45.3544C28.6635 48.1621 28.0339 50.9717 27.4038 53.7814C27.3891 53.8472 27.3839 53.9154 27.373 53.9928H33.6415C32.974 51.0207 32.3109 48.067 31.6443 45.0973V45.0968Z" fill="white"/>
</svg>
