<svg width="40" height="40" viewBox="0 0 40 40" fill="none" xmlns="http://www.w3.org/2000/svg">
<path d="M28.2563 9.5234C27.5593 9.83556 26.8126 10.0626 26.1903 10.4883C21.8344 13.6667 17.5034 16.8167 13.2221 20.1086C11.43 21.4991 9.7374 21.641 7.8208 20.591C5.68017 19.4275 3.43999 18.4343 1.29936 17.2424C0.70198 16.9018 -0.06964 15.9653 0.00503292 15.4545C0.104597 14.7167 0.826434 13.7518 1.4736 13.5248C13.2968 9.04096 25.1449 4.61392 37.0179 0.243625C39.1585 -0.550973 40.3035 0.640926 39.9301 3.19499C38.3371 14.6315 36.7192 26.0681 35.0764 37.5046C34.7279 39.9168 33.11 40.7398 31.3925 39.2641C27.2855 35.6884 23.2283 32.0559 19.2706 28.2816C17.3291 26.437 17.3789 24.2802 19.1711 22.0951C21.8344 18.8032 24.5475 15.568 27.2357 12.3045C27.7336 11.6802 28.2314 11.0275 28.7043 10.4031L28.2812 9.55178L28.2563 9.5234Z" fill="white" fill-opacity="0.6"/>
</svg>
