<svg width="31" height="31" viewBox="0 0 31 31" fill="none" xmlns="http://www.w3.org/2000/svg">
<path d="M0.336182 30.4415L2.49158 22.6244C1.16154 20.3362 0.462669 17.7423 0.463947 15.0825C0.46778 6.76689 7.28405 0 15.6591 0C19.7233 0.0012684 23.5383 1.57281 26.408 4.42416C29.2763 7.27551 30.8555 11.0655 30.8542 15.0964C30.8504 23.4133 24.0341 30.1802 15.6591 30.1802C13.1165 30.1789 10.6111 29.546 8.39178 28.3436L0.336182 30.4415ZM8.76485 25.6127C10.9062 26.8748 12.9504 27.6307 15.654 27.632C22.6146 27.632 28.2848 22.0079 28.2887 15.0939C28.2912 8.16593 22.6478 2.54947 15.6642 2.54694C8.69842 2.54694 3.03203 8.171 3.02947 15.0838C3.0282 17.9059 3.86122 20.0191 5.26025 22.2299L3.98388 26.857L8.76485 25.6127ZM23.3135 18.6822C23.2189 18.5249 22.966 18.431 22.5852 18.2421C22.2058 18.0531 20.3391 17.1411 19.9903 17.0155C19.6428 16.8899 19.3898 16.8265 19.1356 17.2045C18.8826 17.5812 18.1543 18.431 17.9333 18.6822C17.7123 18.9333 17.4899 18.965 17.1105 18.7761C16.731 18.5871 15.507 18.1901 14.0569 16.9052C12.9287 15.9057 12.166 14.6715 11.9449 14.2935C11.7239 13.9168 11.9219 13.7126 12.111 13.5249C12.2822 13.3562 12.4905 13.0848 12.6809 12.8641C12.8738 12.6459 12.9364 12.4886 13.0642 12.2362C13.1906 11.9851 13.128 11.7644 13.0322 11.5754C12.9364 11.3877 12.1775 9.53199 11.8619 8.77729C11.5527 8.04289 11.2397 8.14183 11.0071 8.13041L10.2789 8.11773C10.0259 8.11773 9.61449 8.21159 9.26697 8.58957C8.91945 8.96755 7.93821 9.87826 7.93821 11.7339C7.93821 13.5896 9.29891 15.3818 9.488 15.633C9.67837 15.8841 12.1647 19.6918 15.9734 21.3243C16.8792 21.7124 17.587 21.9445 18.1377 22.1183C19.0474 22.4049 19.8753 22.3643 20.5295 22.2679C21.259 22.1601 22.7756 21.356 23.0924 20.4757C23.4093 19.5942 23.4093 18.8395 23.3135 18.6822Z" fill="white" fill-opacity="0.7"/>
</svg>
