<svg width="31" height="36" viewBox="0 0 31 36" fill="none" xmlns="http://www.w3.org/2000/svg">
<g clip-path="url(#clip0_589_437)">
<path d="M31.0001 26.3131C29.6761 29.723 28.0459 32.8463 25.1066 35.0741C23.9553 35.9469 22.635 36.0987 21.2659 35.7818C20.4151 35.5845 19.5718 35.3397 18.7474 35.0475C16.8298 34.3682 14.9517 34.4251 13.0736 35.2069C12.4407 35.4706 11.7852 35.7021 11.1204 35.8558C9.00375 36.3454 7.23833 35.5484 5.903 33.9906C1.58148 28.9526 -0.799958 23.2221 0.244268 16.4099C0.625524 13.9279 1.73924 11.7989 3.62298 10.1291C5.78092 8.21447 8.31636 7.91466 11.0208 8.45356C11.9693 8.64331 12.9196 8.85773 13.8399 9.15375C15.3048 9.62434 16.719 9.52756 18.1558 9.0342C20.0864 8.37197 22.0359 7.86343 24.1225 8.13667C26.5321 8.45166 28.3482 9.71162 29.9484 11.6395C27.5275 13.6148 25.687 15.909 25.9781 19.26C26.2617 22.5238 27.9219 24.8426 31.0001 26.315V26.3131Z" fill="white"/>
<path d="M15.175 8.60911C15.2408 4.08539 17.7574 0.628083 22.4114 0C23.7261 3.56547 19.3163 8.86148 15.175 8.60911Z" fill="white"/>
</g>
<defs>
<clipPath id="clip0_589_437">
<rect width="31" height="36" fill="white"/>
</clipPath>
</defs>
</svg>
