<svg width="67" height="55" viewBox="0 0 67 55" fill="none" xmlns="http://www.w3.org/2000/svg">
<g clip-path="url(#clip0_251_130)">
<path d="M9.0021 32.9638C10.7271 32.9638 12.3601 32.9594 13.9909 32.9638C16.0512 32.9704 16.6387 33.927 15.6896 35.7258C14.7251 37.5554 15.1153 39.6137 16.6672 40.8825C18.1839 42.1228 20.3298 42.1074 21.8093 40.8473C23.3261 39.5565 23.6812 37.474 22.6949 35.6686C21.7962 34.0237 22.4099 32.977 24.2906 32.966C25.9608 32.9572 27.631 32.966 29.4437 32.966C29.4437 31.4443 29.4459 30.0281 29.4437 28.6097C29.4371 25.7466 29.0579 25.4849 26.4342 26.5448C24.3782 27.3739 22.1337 26.3205 21.406 24.1831C20.7156 22.1556 21.9036 19.9279 23.9837 19.3298C25.1103 19.0065 26.1296 19.2396 27.1334 19.807C28.179 20.3985 29.2947 20.0269 29.3429 18.9955C29.4459 16.8581 29.3736 14.7118 29.3736 12.5634C29.0864 12.5172 28.9461 12.4754 28.8037 12.4754C23.5081 12.4754 18.2124 12.4468 12.919 12.493C10.4882 12.515 9.01525 14.1005 9.00648 16.5634C8.99333 20.9967 9.0021 25.4299 9.0021 29.8632C9.0021 30.8439 9.0021 31.8269 9.0021 32.9638ZM55.1722 26.8835C55.3409 26.536 55.4768 26.2831 55.593 26.0193C57.5657 21.4914 59.5428 16.9658 61.5002 12.4314C62.675 9.71123 61.75 7.44183 59.0124 6.24775C56.0029 4.93273 52.9956 3.61331 49.9839 2.30049C48.226 1.53523 46.4638 0.778761 44.6642 0.00250244C43.9102 1.72874 43.2154 3.34063 42.503 4.94153C41.977 6.12461 41.5539 6.17739 40.7517 5.15923C39.91 4.0927 38.8228 3.48577 37.4792 3.39341C34.9322 3.21749 32.7469 5.2318 32.7009 7.76069C32.6548 10.4149 34.7766 12.4424 37.4945 12.3369C39.0552 12.2775 39.2108 12.4974 38.5949 13.9422C37.9241 15.5123 37.2403 17.078 36.5257 18.7295C38.277 19.4991 39.9341 20.2468 41.6087 20.9527C42.5863 21.3661 42.9787 21.0626 42.8625 19.9895C42.72 18.6745 43.0554 17.5134 43.8971 16.5172C45.6177 14.4853 48.6622 14.36 50.51 16.2204C52.4148 18.1379 52.2657 21.188 50.1812 22.9296C49.0129 23.9082 49.059 24.238 50.4486 24.8384C51.9895 25.5047 53.5282 26.171 55.17 26.8835H55.1722ZM51.4262 34.5405C49.5784 34.5405 47.906 34.5515 46.2314 34.5383C44.4253 34.5229 43.8642 33.496 44.616 31.8687C44.9711 31.1012 45.2253 30.1864 45.1793 29.3596C45.0851 27.6311 44.068 26.4459 42.4373 25.8807C40.8701 25.3376 39.0815 25.8719 38.0863 27.1452C36.9882 28.5503 36.8983 30.0655 37.6304 31.6796C37.8628 32.1919 38.1521 32.7923 38.0776 33.3025C37.9417 34.2238 37.1964 34.5559 36.2868 34.5471C34.553 34.5317 32.8192 34.5427 31.0986 34.5427V39.9435C34.3886 38.6747 36.7449 39.0705 38.4765 41.1222C40.0349 42.9672 40.3287 45.5511 39.0442 47.5632C37.0627 50.6704 34.2834 51.075 31.0701 49.5885V55.0003C31.5479 55.0003 31.9468 55.0003 32.3458 55.0003C37.2732 55.0003 42.2005 55.0003 47.1279 55.0003C49.8787 55.0003 51.4109 53.494 51.4218 50.7408C51.435 47.2993 51.4262 43.8556 51.4284 40.4141C51.4284 38.5164 51.4284 36.6186 51.4284 34.5427L51.4262 34.5405ZM9.0021 34.5405C9.0021 35.1452 9.0021 35.5807 9.0021 36.0139C9.0021 40.9243 9.0021 45.8347 9.0021 50.743C9.0021 53.4368 10.5145 54.9871 13.1886 54.9915C18.2278 55.0003 23.2691 54.9981 28.3083 54.9959C28.6283 54.9959 28.9461 54.9607 29.3933 54.9343C29.3933 53.2763 29.3889 51.6754 29.3933 50.0745C29.3999 47.9634 30.3884 47.3477 32.2099 48.3174C33.8406 49.1861 35.7038 48.9464 36.9751 47.7061C38.4568 46.2614 38.6606 44.0557 37.4638 42.4021C36.2495 40.722 34.0401 40.2074 32.1945 41.2498C31.3068 41.7533 30.4607 42.0304 29.7834 41.0848C29.4941 40.6824 29.424 40.0579 29.4108 39.5323C29.3648 37.9006 29.3933 36.2645 29.3933 34.5999H24.021C25.2923 38.1117 24.8561 40.4867 22.6598 42.1909C20.6564 43.7457 18.013 43.794 15.9285 42.3119C13.6248 40.6736 13.1382 38.3074 14.3679 34.5999C14.1114 34.5801 13.8681 34.5449 13.6248 34.5427C12.1321 34.5383 10.6394 34.5405 8.99991 34.5405H9.0021Z" fill="white"/>
<path d="M9.00219 32.9635C9.00219 31.8266 9.00219 30.8458 9.00219 29.8629C9.00219 25.4296 8.99342 20.9964 9.00658 16.5631C9.01315 14.1002 10.4883 12.5147 12.9191 12.4927C18.2147 12.4465 23.5103 12.4751 28.8038 12.4751C28.944 12.4751 29.0865 12.5169 29.3737 12.5631C29.3737 14.7115 29.446 16.8578 29.343 18.9952C29.2926 20.0266 28.1791 20.4004 27.1335 19.8067C26.1297 19.2371 25.1104 19.004 23.9838 19.3295C21.9015 19.9276 20.7135 22.1553 21.4061 24.1828C22.1338 26.3202 24.3805 27.3736 26.4343 26.5445C29.058 25.4868 29.4372 25.7463 29.4438 28.6094C29.446 30.0256 29.4438 31.4418 29.4438 32.9657C27.6311 32.9657 25.9609 32.9591 24.2907 32.9657C22.41 32.9767 21.7963 34.0234 22.695 35.6683C23.6813 37.4737 23.324 39.5562 21.8094 40.847C20.3299 42.1071 18.184 42.1225 16.6672 40.8822C15.1154 39.6134 14.7252 37.5551 15.6897 35.7255C16.6366 33.9267 16.0513 32.9701 13.9909 32.9635C12.3602 32.9569 10.7272 32.9635 9.00219 32.9635Z" fill="white"/>
<path d="M55.1722 26.8832C53.5305 26.1729 51.9896 25.5044 50.4509 24.8381C49.0612 24.2377 49.013 23.9057 50.1835 22.9293C52.2658 21.1877 52.417 18.1376 50.5123 16.2201C48.6645 14.3597 45.62 14.485 43.8993 16.5169C43.0577 17.5131 42.7223 18.6742 42.8648 19.9892C42.9809 21.0645 42.5886 21.3658 41.611 20.9524C39.9364 20.2465 38.2793 19.4966 36.528 18.7292C37.2426 17.0777 37.9264 15.512 38.5971 13.9419C39.2131 12.4993 39.0574 12.2772 37.4968 12.3366C34.7789 12.4421 32.6571 10.4146 32.7031 7.76038C32.747 5.2293 34.9323 3.21718 37.4815 3.39311C38.8251 3.48546 39.9123 4.0924 40.754 5.15893C41.5562 6.17708 41.9792 6.1221 42.5053 4.94122C43.2199 3.34033 43.9125 1.72844 44.6665 0.00219727C46.466 0.778456 48.2283 1.53492 49.9862 2.30019C52.9979 3.61301 56.0052 4.93243 59.0146 6.24745C61.7523 7.44372 62.6773 9.71093 61.5024 12.4311C59.5451 16.9655 57.5658 21.4911 55.5953 26.0189C55.4813 26.2828 55.3432 26.5379 55.1744 26.8832H55.1722Z" fill="white"/>
<path d="M51.4263 34.5402C51.4263 36.6161 51.4263 38.5138 51.4263 40.4116C51.4263 43.8531 51.4351 47.2968 51.4197 50.7383C51.4088 53.4915 49.8766 54.9978 47.1258 54.9978C42.1984 54.9978 37.2711 54.9978 32.3437 54.9978C31.9448 54.9978 31.548 54.9978 31.068 54.9978V49.586C34.2791 51.0725 37.0606 50.6679 39.0421 47.5607C40.3266 45.5464 40.0306 42.9625 38.4744 41.1197C36.7428 39.068 34.3865 38.6744 31.0965 39.941V34.5402C32.8171 34.5402 34.5509 34.5292 36.2847 34.5446C37.1943 34.5534 37.9396 34.2213 38.0755 33.2999C38.1522 32.7898 37.8607 32.1894 37.6283 31.6771C36.8962 30.063 36.9861 28.5478 38.0842 27.1427C39.0794 25.8716 40.8679 25.3372 42.4352 25.8782C44.0659 26.4434 45.083 27.6286 45.1772 29.3571C45.2232 30.1861 44.9668 31.1009 44.6139 31.8662C43.8621 33.4957 44.421 34.5204 46.2293 34.5358C47.9039 34.549 49.5785 34.538 51.4241 34.538L51.4263 34.5402Z" fill="white"/>
<path d="M9.00219 34.5402C10.6417 34.5402 12.1344 34.538 13.6271 34.5424C13.8704 34.5424 14.1137 34.5776 14.3701 34.5996C13.1405 38.3071 13.6271 40.6733 15.9308 42.3116C18.0153 43.7937 20.6587 43.7454 22.6621 42.1906C24.8584 40.4864 25.2945 38.1114 24.0232 34.5996H29.3956C29.3956 36.2642 29.3671 37.8981 29.4131 39.532C29.4285 40.0598 29.4964 40.6821 29.7857 41.0845C30.463 42.0301 31.3091 41.7508 32.1968 41.2495C34.0402 40.2049 36.2518 40.7217 37.4661 42.4017C38.6607 44.0554 38.4569 46.2632 36.9773 47.7058C35.706 48.9461 33.8429 49.1858 32.2122 48.3171C30.3907 47.3474 29.4 47.9631 29.3956 50.0742C29.3912 51.6751 29.3956 53.276 29.3956 54.934C28.9484 54.9604 28.6306 54.9956 28.3106 54.9956C23.2714 54.9956 18.2301 55 13.1909 54.9912C10.5168 54.989 9 53.4365 9.00219 50.7449C9.00219 45.8344 9.00219 40.924 9.00219 36.0158C9.00219 35.5803 9.00219 35.1471 9.00219 34.5424V34.5402Z" fill="white"/>
</g>
<defs>
<clipPath id="clip0_251_130">
<rect width="67" height="55" fill="white"/>
</clipPath>
</defs>
</svg>
