<svg width="224" height="56" viewBox="0 0 224 56" fill="none" xmlns="http://www.w3.org/2000/svg">
<path d="M79.0975 29.7049C79.1698 29.7049 79.2334 29.7163 79.2942 29.7307C79.3058 29.4922 79.3144 29.248 79.3144 28.9952V18.8589H75.1485V28.9952C75.1485 29.248 75.137 29.4836 75.1167 29.7049H79.1004H79.0975Z" stroke="white" stroke-miterlimit="10"/>
<path d="M70.5661 32.5148C66.6432 32.4602 65.8534 31.5724 65.8534 28.9952V18.8589H61.728V28.9952C61.728 34.4254 64.5111 37.1433 70.9625 37.1433C72.3887 37.1433 73.6269 36.9623 74.6858 36.6061L70.5661 32.5148Z" stroke="white" stroke-miterlimit="10"/>
<path d="M85.7457 36.8474L88.2511 32.2217H91.6156C92.417 32.2217 93.3572 32.2217 93.9995 32.2763C93.6378 31.6298 93.0766 30.5294 92.6369 29.6675L90.2328 24.9067L83.9434 36.8445H79.0369L87.632 20.577C88.1932 19.5283 89.0148 18.5601 90.3167 18.5601C91.6185 18.5601 92.3794 19.4478 92.9609 20.577L101.333 36.8445H85.7486L85.7457 36.8474Z" stroke="white" stroke-miterlimit="10"/>
<path d="M114.734 36.1749L106.52 26.2799V36.8472H102.754V21.9243C102.754 19.531 103.836 18.5627 105.016 18.5627C105.516 18.5627 106.017 18.7236 106.679 19.531L114.893 29.426V18.8587H118.68V33.7557C118.68 36.149 117.598 37.1431 116.397 37.1431C115.876 37.1431 115.376 36.9822 114.734 36.1749Z" stroke="white" stroke-miterlimit="10"/>
<path d="M130.139 27.4323H126.152V36.8474H130.298V27.415C130.249 27.4237 130.194 27.4323 130.136 27.4323H130.139Z" stroke="white" stroke-miterlimit="10"/>
<path d="M122.548 18.8589L119.863 23.5363H126.1C126.138 23.5306 126.172 23.5248 126.213 23.5248H130.983C131.024 23.5248 131.059 23.5306 131.096 23.5363H135.086L137.77 18.8589H122.545H122.548Z" stroke="white" stroke-miterlimit="10"/>
<path d="M144.343 26.01L142.321 29.4778H135.63L137.652 26.01H144.343Z" stroke="white" stroke-miterlimit="10"/>
<path d="M148.61 36.8474L151.116 32.2217H154.48C155.282 32.2217 156.222 32.2217 156.864 32.2763C156.503 31.6298 155.941 30.5294 155.502 29.6675L153.098 24.9067L146.808 36.8445H141.902L150.497 20.577C151.058 19.5283 151.88 18.5601 153.181 18.5601C154.483 18.5601 155.244 19.4478 155.826 20.577L164.198 36.8445H148.613L148.61 36.8474Z" stroke="white" stroke-miterlimit="10"/>
<path d="M176.777 32.2504H169.764V36.8474H165.639V27.6506H177.176C178.458 27.6506 179.198 26.8174 179.198 25.5791C179.198 24.3408 178.458 23.5363 177.176 23.5363H165.639L168.384 18.8589H176.797C180.943 18.8589 183.367 21.6027 183.367 25.6078C183.367 29.6129 180.943 32.2504 176.777 32.2504Z" stroke="white" stroke-miterlimit="10"/>
<path d="M196.571 32.2504H189.558V36.8474H185.433V27.6506H196.97C198.251 27.6506 198.992 26.8174 198.992 25.5791C198.992 24.3408 198.251 23.5363 196.97 23.5363H185.433L188.178 18.8589H196.591C200.737 18.8589 203.161 21.6027 203.161 25.6078C203.161 29.6129 200.737 32.2504 196.571 32.2504Z" stroke="white" stroke-miterlimit="10"/>
<path d="M212.074 23.476C212.095 23.4961 212.109 23.5162 212.123 23.5363H219.686L222.35 18.8589H210.712C209.601 18.8589 208.669 19.0255 207.9 19.3329C209.291 20.7149 210.68 22.094 212.071 23.476H212.074Z" stroke="white" stroke-miterlimit="10"/>
<path d="M217.684 26.0386H210.393C209.433 26.0386 208.97 25.6881 208.97 24.7745C208.97 24.717 208.976 24.6653 208.979 24.6136L205.649 21.3066C205.18 22.1714 204.96 23.2345 204.96 24.4527C204.96 27.5441 206.543 29.6157 209.988 29.6157H217.279C218.26 29.6157 218.702 29.992 218.702 30.9057C218.702 31.8193 218.262 32.2244 217.279 32.2244H207.142L204.477 36.8501H216.958C221.045 36.8501 222.706 34.6465 222.706 30.9603C222.706 27.6792 220.944 26.0386 217.678 26.0386H217.684Z" stroke="white" stroke-miterlimit="10"/>
<path d="M39.0064 38.4648C36.7585 35.3676 34.5685 32.3509 32.2628 29.1703C32.8269 29.1387 33.1683 29.1043 33.5068 29.1043C36.4143 29.1014 39.3217 29.1359 42.2292 29.0813C43.1202 29.064 43.6873 29.36 44.2109 30.0466C47.5841 34.4511 49.4414 39.4618 50.0519 44.9035C50.3035 47.1502 50.1155 49.4487 50.101 51.7242C50.101 52.1236 49.9564 52.5229 49.8378 53.1378C49.4646 52.6838 49.2331 52.4252 49.0277 52.1494C47.9024 50.6267 46.7509 49.1212 45.6805 47.5611C45.2119 46.8801 44.8155 46.7164 44.0228 47.0928C41.3439 48.3655 38.5088 49.035 35.5377 49.2763C20.8326 50.4744 8.10048 37.554 9.67427 22.973C9.78421 21.9473 10.0388 20.936 10.14 19.9103C10.3165 18.1261 11.2972 16.9481 12.8855 16.2758C14.5548 15.5719 16.2732 14.9743 18.0379 14.3049C15.8132 14.1296 13.6984 14.46 11.682 15.2961C7.53056 17.02 5.26535 20.6975 5.3261 25.5359C5.3666 28.656 6.22582 31.5837 7.48717 34.4137C7.65786 34.7987 7.82565 35.1866 8.03684 35.6779C7.8459 35.6118 7.72729 35.6061 7.68679 35.5486C4.14576 30.5523 1.46684 25.1968 1.04157 18.9766C0.486113 10.8054 5.53729 5.21151 13.7939 4.80353C19.01 4.54495 23.9078 5.84647 28.6032 7.96107C35.7431 11.1761 41.7923 15.8535 46.9824 21.66C47.237 21.9445 47.5031 22.2145 47.9747 22.7116C47.9024 22.1571 47.8995 21.8899 47.8271 21.6428C46.3662 16.4683 43.0392 13.0752 37.907 11.4002C37.5078 11.2709 37.1057 11.0784 36.7817 10.8198C32.9861 7.78007 28.9243 5.1914 24.3013 3.55948C24.174 3.51351 24.064 3.4187 23.7574 3.22907C24.6195 2.87568 25.3196 2.54527 26.0486 2.29818C41.0893 -2.81307 57.024 7.76858 58.0915 23.5247C58.3721 27.6447 57.6344 31.532 55.9825 35.2929C55.7771 35.7612 55.7453 36.4077 55.8784 36.9047C56.8591 40.5421 57.2959 44.1766 56.1937 47.8714C55.2101 51.1726 53.1155 53.4452 49.8927 54.6979C49.8059 54.7323 49.696 54.7007 49.4733 54.7007C51.9178 51.3564 52.5659 47.6358 51.7443 43.7772C51.183 41.154 50.399 38.4849 49.1782 36.1089C44.0952 26.1995 36.1278 19.4506 25.6118 15.6696C23.578 14.9398 23.5144 14.9743 22.2704 16.7097C19.0968 21.1429 18.5095 25.9525 20.6821 30.8971C22.8924 35.925 26.9223 38.7608 32.448 39.3928C34.8549 39.6687 37.2648 39.321 39.0035 38.4706L39.0064 38.4648Z" stroke="white" stroke-miterlimit="10"/>
</svg>
