<?xml version="1.0" encoding="utf-8"?>
<svg width="1397" height="597" viewBox="0 0 1397 597" fill="none" xmlns="http://www.w3.org/2000/svg" xmlns:bx="https://boxy-svg.com"><g clip-path="url(#clip0_817_5651)"><path d="M925.975 402.681C925.975 390.245 933.1 382.031 946.013 382.031C958.927 382.031 966.052 390.224 966.052 402.681C966.052 415.137 958.885 423.33 946.013 423.33C933.142 423.33 925.975 415.2 925.975 402.681ZM956.419 402.681C956.419 394.07 953.598 390.768 946.013 390.768C938.428 390.768 935.608 394.049 935.608 402.681C935.608 411.312 938.366 414.594 946.013 414.594C953.661 414.594 956.419 411.312 956.419 402.681Z" fill="#555DEB"/><path d="M969.375 410.267V409.724H978.652V410.267C978.652 413.674 981.055 415.116 988.64 415.116C995.515 415.116 997.604 413.507 997.604 409.139C997.604 404.771 995.515 403.099 988.703 403.099C983.207 403.099 980.219 403.767 978.777 405.857L978.13 405.795V405.857L969.688 405.628L971.966 382.658H1004.98V390.726H979.927L978.673 401.197L979.216 401.259C980.658 398.919 984.9 395.993 992.38 395.993C1002.24 395.993 1007.15 400.779 1007.15 409.034C1007.15 417.708 1001.3 423.33 988.556 423.33C975.81 423.33 969.416 419.087 969.416 410.288L969.375 410.267Z" fill="#555DEB"/><path d="M683.331 74.7385V63.2853H678.003V60.4011H691.857V63.2853H686.528V74.7385H683.31H683.331Z" fill="white"/><path d="M692.045 74.7385L698.313 60.4011H702.889L709.2 74.7385H705.522L704.164 71.5617H696.997L695.618 74.7385H692.024H692.045ZM698.251 68.6775H702.931L701.594 65.5425L700.716 63.3271H700.486L699.609 65.5425L698.251 68.6775Z" fill="white"/><path d="M709.952 74.7385V60.4011H713.17V66.0859H716.743L720.546 60.4011H724.391L719.397 67.4653L724.328 74.7385H720.483L716.785 69.2209H713.17V74.7385H709.952Z" fill="white"/><path d="M725.205 74.7385V60.4011H737.345V63.2853H728.423V66.0859H737.032V68.9492H728.423V71.8334H737.345V74.7176H725.205V74.7385Z" fill="white"/><path d="M746.853 74.7385V63.2853H741.525V60.4011H755.378V63.2853H750.05V74.7385H746.832H746.853Z" fill="white"/><path d="M756.548 74.7385V60.4011H759.766V74.7385H756.548Z" fill="white"/><path d="M761.459 74.7385V60.4011H765.805L769.169 67.4653L770.506 70.8302H770.736L772.032 67.4653L775.291 60.4011H779.659V74.7385H776.441V67.4653L776.545 65.2081H776.315L775.479 67.4653L772.491 73.8816H768.605L765.617 67.4653L764.781 65.2081H764.551L764.677 67.4653V74.7385H761.459Z" fill="white"/><path d="M781.351 74.7385V60.4011H793.491V63.2853H784.569V66.0859H793.178V68.9492H784.569V71.8334H793.491V74.7176H781.351V74.7385Z" fill="white"/><path d="M677 20.6492C677 8.21371 684.125 0 697.039 0C709.952 0 717.077 8.19281 717.077 20.6492C717.077 33.1056 709.91 41.2985 697.039 41.2985C684.167 41.2985 677 33.1683 677 20.6492ZM707.444 20.6492C707.444 12.0384 704.624 8.73621 697.039 8.73621C689.454 8.73621 686.633 12.0175 686.633 20.6492C686.633 29.2809 689.391 32.5622 697.039 32.5622C704.686 32.5622 707.444 29.2809 707.444 20.6492Z" fill="#555DEB"/><path d="M744.826 40.6925V33.043H719.396V26.9402L743.384 0.606201H753.79V24.9547H759.892V33.0221H753.79V40.6716H744.826V40.6925ZM744.826 24.9547V10.9517H744.178L731.913 24.2859V24.9547H744.826Z" fill="#555DEB"/><path d="M1106 20.5C1106 8.15435 1113.65 0 1127.5 0C1141.36 0 1149 8.1336 1149 20.5C1149 32.8664 1141.31 41 1127.5 41C1113.69 41 1106 32.9286 1106 20.5ZM1138.66 20.5C1138.66 11.9514 1135.64 8.67308 1127.5 8.67308C1119.36 8.67308 1116.34 11.9307 1116.34 20.5C1116.34 29.0693 1119.29 32.3269 1127.5 32.3269C1135.71 32.3269 1138.66 29.0693 1138.66 20.5Z" fill="#555DEB"/><path d="M1163.07 20.7119C1163.07 6.77161 1170.9 0 1182.87 0C1193.82 0 1200.89 5.26681 1200.89 13.4596V13.9403H1190.9V13.4596C1190.9 9.99021 1188.62 8.61081 1182.89 8.61081C1175.54 8.61081 1172.66 10.9516 1172.66 19.1444V21.7778H1173.32C1175 18.5383 1179.3 15.9258 1186.49 15.9258C1196.35 15.9258 1201.87 19.9386 1201.87 28.1314C1201.87 36.3242 1195.58 41.2985 1183.69 41.2985C1169.08 41.2985 1163.11 34.903 1163.11 20.7119H1163.07ZM1192.44 27.4626C1192.44 23.7633 1190.35 22.1331 1183.23 22.1331C1175.69 22.1331 1173.37 23.7424 1173.37 27.3372C1173.37 30.932 1175.75 32.6667 1183.17 32.6667C1190.58 32.6667 1192.44 30.9947 1192.44 27.4626Z" fill="#555DEB"/><path d="M1355.69 326.793C1351.93 279.601 1313.54 241.479 1266.34 238.03C1239.24 236.045 1214.27 245.283 1195.57 261.564C1183.03 272.474 1165.18 274.877 1150.01 268.085C1134.57 261.167 1124.88 245.868 1124.5 228.939C1124.46 227.142 1124.38 225.323 1124.23 223.505C1120.57 175.853 1081.6 137.418 1033.9 134.366C977.607 130.792 930.676 175.56 930.676 231.113V231.363C930.676 246.746 921.67 260.686 907.629 266.977L902.488 269.276C888.781 275.4 872.525 273.289 861.45 263.152C854.22 256.527 845.967 251.009 836.961 246.809C836.856 246.767 836.773 246.725 836.668 246.683C835.665 246.223 834.662 245.784 833.638 245.346C833.262 245.178 832.865 245.011 832.489 244.865C831.695 244.551 830.901 244.238 830.086 243.945C829.459 243.715 828.833 243.465 828.206 243.256C827.579 243.026 826.952 242.837 826.325 242.628C825.51 242.357 824.674 242.085 823.839 241.834C823.358 241.688 822.857 241.542 822.376 241.416C821.394 241.145 820.412 240.873 819.409 240.622C819.012 240.518 818.636 240.434 818.239 240.35C817.152 240.1 816.065 239.849 814.958 239.64C814.603 239.577 814.268 239.514 813.913 239.431C812.785 239.222 811.657 239.034 810.528 238.867C810.152 238.804 809.776 238.762 809.421 238.699C808.334 238.553 807.248 238.428 806.161 238.302C805.681 238.26 805.221 238.198 804.74 238.156C804.301 238.114 803.842 238.051 803.403 238.03C802.943 237.989 802.484 237.989 802.024 237.968C801.209 237.926 800.394 237.884 799.579 237.842C798.806 237.822 798.054 237.801 797.281 237.78C796.884 237.78 796.508 237.759 796.11 237.759C795.588 237.759 795.087 237.78 794.564 237.801C793.896 237.801 793.227 237.822 792.558 237.842C791.576 237.884 790.594 237.926 789.612 238.01C789.027 238.051 788.442 238.072 787.878 238.135C786.77 238.219 785.684 238.344 784.597 238.469C784.137 238.532 783.699 238.574 783.239 238.637C781.902 238.825 780.564 239.034 779.248 239.264C779.06 239.305 778.851 239.326 778.663 239.368C773.941 240.225 769.344 241.437 764.872 242.963H764.83C763.388 243.485 761.947 244.008 760.526 244.572C760.421 244.614 760.296 244.656 760.191 244.718C758.875 245.241 757.559 245.805 756.263 246.391C756.117 246.453 755.971 246.516 755.824 246.6C754.55 247.185 753.296 247.791 752.063 248.439C751.938 248.501 751.792 248.585 751.666 248.648C750.413 249.296 749.159 249.985 747.926 250.696C747.842 250.759 747.738 250.8 747.654 250.863C746.359 251.616 745.084 252.389 743.831 253.204L743.768 253.246C739.735 255.837 735.89 258.722 732.296 261.877C731.795 262.316 731.293 262.713 730.792 263.111C718.38 272.725 701.538 274.606 687.1 268.147C671.658 261.23 661.963 245.931 661.587 229.002C661.545 227.204 661.461 225.386 661.315 223.568C659.518 200.118 649.154 178.904 633.42 163.041L633.378 162.999C632.479 162.08 631.539 161.202 630.599 160.324C630.474 160.22 630.369 160.094 630.244 159.99C629.387 159.217 628.53 158.443 627.653 157.691C627.423 157.503 627.214 157.294 626.984 157.106C626.211 156.437 625.396 155.81 624.602 155.162C624.268 154.89 623.954 154.639 623.62 154.368C622.889 153.803 622.157 153.281 621.426 152.737C620.987 152.424 620.569 152.11 620.13 151.797C619.462 151.337 618.793 150.877 618.124 150.438C617.602 150.083 617.08 149.728 616.536 149.393C615.93 148.996 615.304 148.62 614.677 148.244C614.071 147.868 613.465 147.492 612.838 147.136C612.274 146.802 611.689 146.488 611.104 146.175C610.414 145.799 609.745 145.422 609.056 145.067C608.513 144.775 607.948 144.503 607.405 144.231C606.674 143.876 605.942 143.5 605.19 143.144C604.668 142.894 604.125 142.664 603.602 142.434C602.829 142.078 602.035 141.744 601.241 141.41C600.719 141.201 600.196 140.992 599.653 140.783C598.838 140.469 598.044 140.156 597.208 139.863C596.665 139.675 596.122 139.487 595.578 139.299C594.763 139.027 593.949 138.755 593.113 138.484C592.549 138.316 591.984 138.149 591.42 137.982C590.605 137.752 589.79 137.501 588.955 137.292C588.349 137.146 587.743 137 587.137 136.853C586.343 136.665 585.549 136.477 584.734 136.31C584.086 136.164 583.438 136.059 582.77 135.934C581.996 135.788 581.223 135.641 580.45 135.516C579.74 135.39 579.029 135.307 578.319 135.202C577.588 135.098 576.856 134.993 576.125 134.91C575.352 134.826 574.579 134.743 573.805 134.68C573.346 134.638 572.886 134.575 572.426 134.534C572.238 134.534 572.029 134.534 571.841 134.513C571.528 134.492 571.235 134.45 570.922 134.429C570.128 134.387 569.355 134.366 568.561 134.345C567.809 134.325 567.056 134.283 566.304 134.262C565.28 134.262 564.277 134.262 563.274 134.262C562.48 134.262 561.707 134.262 560.913 134.304C559.973 134.345 559.053 134.408 558.113 134.471C557.277 134.534 556.421 134.575 555.585 134.638C554.791 134.722 553.997 134.826 553.203 134.91C552.262 135.014 551.301 135.119 550.361 135.265C549.985 135.328 549.609 135.411 549.212 135.453C544.74 136.164 540.394 137.188 536.152 138.484C535.985 138.525 535.839 138.567 535.672 138.63C534.376 139.048 533.081 139.487 531.806 139.947C531.513 140.051 531.221 140.156 530.907 140.26C529.675 140.72 528.463 141.222 527.272 141.723C526.937 141.869 526.624 141.995 526.29 142.12C525.099 142.643 523.928 143.186 522.758 143.75C522.445 143.897 522.111 144.043 521.797 144.21C520.627 144.775 519.499 145.381 518.349 146.008C518.036 146.175 517.723 146.342 517.43 146.509C516.302 147.136 515.173 147.805 514.066 148.495C513.773 148.662 513.481 148.85 513.209 149.017C512.102 149.707 510.994 150.438 509.908 151.191C509.657 151.358 509.385 151.546 509.135 151.713C508.048 152.487 506.961 153.281 505.896 154.075C505.666 154.242 505.457 154.409 505.227 154.598C504.141 155.434 503.075 156.29 502.051 157.189C501.863 157.335 501.696 157.503 501.508 157.649C500.442 158.569 499.397 159.509 498.353 160.47C498.227 160.596 498.081 160.721 497.956 160.847C496.89 161.85 495.845 162.874 494.842 163.94C494.759 164.024 494.696 164.107 494.612 164.191C493.547 165.298 492.502 166.427 491.499 167.597V167.639C476.601 184.735 467.616 207.078 467.678 231.489C467.678 246.85 458.652 260.77 444.631 267.061L439.491 269.36C425.783 275.483 409.527 273.372 398.452 263.236C381.214 247.477 358.271 237.842 333.113 237.842C307.955 237.842 286.349 246.934 269.298 261.898C257.075 272.62 239.732 275.17 224.896 268.545L224.185 268.231C208.598 261.25 198.902 245.952 198.526 229.023C198.484 227.413 198.422 225.804 198.296 224.174C194.932 176.856 156.756 138.316 109.47 134.575C49.8979 129.747 0.313338 179.364 5.05657 239.013C8.81772 286.205 47.2024 324.327 94.4048 327.796C121.506 329.782 146.497 320.544 165.198 304.263C177.735 293.353 195.58 290.949 210.75 297.742C226.191 304.66 235.887 319.959 236.263 336.888C236.347 340.253 236.576 343.638 237.015 347.066C242.49 390.998 278.054 426.068 322.038 431C380.44 437.542 430.088 391.813 430.088 334.672V334.421C430.088 319.039 439.094 305.099 453.135 298.808L458.275 296.509C471.983 290.385 488.239 292.496 499.314 302.632C506.544 309.258 514.797 314.775 523.782 318.955C523.887 318.997 523.97 319.039 524.075 319.102C525.078 319.561 526.102 320 527.104 320.439C527.481 320.607 527.857 320.753 528.233 320.92C529.027 321.254 529.842 321.547 530.657 321.861C531.284 322.09 531.89 322.32 532.516 322.55C533.143 322.78 533.77 322.968 534.397 323.177C535.212 323.449 536.048 323.721 536.863 323.971C537.364 324.118 537.845 324.264 538.346 324.389C539.328 324.661 540.31 324.933 541.292 325.184C541.689 325.288 542.086 325.372 542.483 325.476C543.57 325.727 544.657 325.978 545.743 326.187C546.098 326.25 546.454 326.333 546.809 326.396C547.937 326.605 549.065 326.793 550.194 326.96C550.57 327.023 550.925 327.065 551.301 327.127C552.388 327.274 553.474 327.399 554.561 327.524C555.042 327.566 555.501 327.629 555.982 327.671C556.421 327.713 556.859 327.775 557.298 327.796C557.758 327.838 558.218 327.838 558.677 327.859C559.492 327.901 560.328 327.942 561.143 327.984C561.916 328.005 562.668 328.026 563.421 328.047C563.818 328.047 564.194 328.068 564.591 328.068C565.113 328.068 565.635 328.047 566.179 328.026C566.826 328.026 567.474 328.026 568.101 327.984C569.104 327.942 570.107 327.88 571.11 327.817C571.674 327.775 572.217 327.754 572.761 327.713C573.91 327.608 575.059 327.483 576.188 327.357C576.585 327.315 576.982 327.274 577.379 327.211C582.122 326.584 586.74 325.602 591.253 324.327C591.337 324.306 591.399 324.285 591.462 324.264C592.883 323.846 594.283 323.407 595.662 322.947C595.85 322.885 596.017 322.822 596.205 322.759C597.501 322.32 598.775 321.84 600.029 321.338C600.238 321.254 600.426 321.171 600.635 321.087C601.889 320.586 603.122 320.063 604.334 319.499C604.522 319.415 604.689 319.332 604.877 319.248C606.131 318.663 607.384 318.057 608.617 317.43C608.742 317.367 608.868 317.304 608.972 317.242C610.31 316.552 611.626 315.841 612.921 315.089H612.942C618.187 312.037 623.139 308.547 627.715 304.618C638.623 295.234 653.27 291.869 666.873 295.38C669.172 295.986 671.428 296.76 673.622 297.742C689.064 304.66 698.759 319.959 699.135 336.888C699.219 340.253 699.449 343.638 699.888 347.066C699.992 347.902 700.18 348.696 700.306 349.532C700.452 350.473 700.619 351.413 700.786 352.354C701.204 354.632 701.706 356.868 702.27 359.083C702.332 359.313 702.395 359.543 702.437 359.773C710.189 388.803 731.252 412.546 758.562 424.062C758.687 424.124 758.833 424.187 758.959 424.229C760.421 424.835 761.905 425.42 763.388 425.943C764.663 426.402 765.938 426.841 767.212 427.238C768.257 427.573 769.323 427.886 770.388 428.179C772.144 428.66 773.92 429.099 775.717 429.496C776.469 429.663 777.242 429.809 778.015 429.955C780.126 430.353 782.257 430.687 784.409 430.959C784.576 430.959 784.743 431.021 784.911 431.042C785.412 431.105 785.893 431.126 786.394 431.168C787 431.23 787.606 431.314 788.212 431.356C788.546 431.377 788.86 431.377 789.194 431.398C790.197 431.46 791.2 431.523 792.203 431.544C793.06 431.586 793.896 431.607 794.731 431.627C795.672 431.627 796.612 431.627 797.552 431.627C798.43 431.627 799.328 431.607 800.206 431.565C801.084 431.523 801.94 431.46 802.818 431.398C803.758 431.335 804.678 431.272 805.597 431.189C806.391 431.105 807.185 431 807.958 430.917C808.94 430.791 809.922 430.666 810.883 430.52C811.594 430.415 812.304 430.269 813.015 430.144C814.039 429.955 815.083 429.767 816.107 429.558C816.734 429.433 817.34 429.266 817.946 429.14C819.033 428.89 820.119 428.639 821.206 428.346C821.728 428.2 822.23 428.054 822.731 427.907C823.88 427.573 825.051 427.238 826.179 426.862C826.576 426.737 826.973 426.591 827.37 426.444C828.603 426.026 829.856 425.587 831.068 425.107C831.319 425.002 831.57 424.898 831.821 424.793C833.158 424.25 834.495 423.706 835.812 423.1C835.895 423.058 835.958 423.038 836.021 422.996C869.662 407.697 893.065 373.734 892.96 334.401C892.96 319.039 901.987 305.12 916.008 298.85L921.148 296.551C934.855 290.427 951.112 292.538 962.186 302.674C979.425 318.433 1002.37 328.068 1027.5 328.068C1052.64 328.068 1073.66 319.227 1090.63 304.639C1103.38 293.666 1121.24 290.887 1136.58 297.763C1152.02 304.681 1161.72 319.979 1162.09 336.909C1162.13 338.706 1162.22 340.524 1162.36 342.363C1166 389.43 1204.07 427.615 1251.13 431.356C1310.76 436.079 1360.37 386.462 1355.6 326.814L1355.69 326.793ZM101.739 303.427C61.3276 303.427 31.4055 270.384 29.6503 231.322C27.916 192.385 64.0231 159.216 101.739 159.216C142.151 159.216 172.073 192.259 173.828 231.322C175.562 270.258 139.455 303.427 101.739 303.427ZM332.987 407.154C292.576 407.154 262.654 374.111 260.898 335.048C259.164 296.112 295.271 262.943 332.987 262.943C373.399 262.943 403.321 295.986 405.076 335.048C406.81 373.985 370.703 407.154 332.987 407.154ZM564.235 303.113C523.824 303.113 493.902 270.07 492.147 231.008C490.412 192.071 526.519 158.903 564.235 158.903C604.647 158.903 634.569 191.946 636.324 231.008C638.059 269.945 601.951 303.113 564.235 303.113ZM796.403 406.527C755.992 406.527 726.07 373.484 724.314 334.421C722.58 295.485 758.687 262.316 796.403 262.316C836.815 262.316 866.737 295.359 868.492 334.421C870.226 373.358 834.119 406.527 796.403 406.527ZM1027.34 303.719C986.926 303.719 957.004 270.676 955.249 231.614C953.515 192.677 989.622 159.509 1027.34 159.509C1067.75 159.509 1097.67 192.552 1099.43 231.614C1101.16 270.551 1065.05 303.719 1027.34 303.719ZM1259.19 406.819C1218.78 406.819 1188.86 373.776 1187.1 334.714C1185.37 295.777 1221.48 262.609 1259.19 262.609C1299.6 262.609 1329.53 295.652 1331.28 334.714C1333.02 373.651 1296.91 406.819 1259.19 406.819Z" fill="#555DEB"/><path d="M143.948 199.804L133.542 205.008L131.222 200.348L141.628 195.144L143.948 199.804Z" fill="white"/><path d="M141.628 241.437L131.222 236.233L133.542 231.572L143.948 236.776L141.628 241.437Z" fill="white"/><path d="M134.983 215.688H145.556V220.892H134.983V215.688Z" fill="white"/><path d="M60.7425 195.165L71.1483 200.369L68.829 205.029L58.4231 199.825L60.7425 195.165Z" fill="white"/><path d="M60.7425 241.437L58.4231 236.776L68.829 231.572L71.1483 236.233L60.7425 241.437Z" fill="white"/><path d="M56.8142 215.688H67.3872V220.892H56.8142V215.688Z" fill="white"/><path d="M93.3809 273.268H108.99V278.472H93.3809V273.268Z" fill="white"/><path d="M129.781 218.301C129.781 202.521 116.951 189.689 101.175 189.689C85.399 189.689 72.5693 202.521 72.5693 218.301C72.5693 229.064 78.629 238.866 88.1781 243.757V252.117H82.9752V257.321H88.1781V268.064H114.172V257.321H119.375V252.117H114.172V243.757C123.7 238.866 129.781 229.064 129.781 218.301ZM108.969 262.86H93.3602V257.321H108.969V262.86ZM98.5631 223.505C98.5631 222.063 99.7332 220.913 101.154 220.913C102.575 220.913 103.745 222.084 103.745 223.505C103.745 224.926 102.575 226.097 101.154 226.097C99.7332 226.097 98.5631 224.926 98.5631 223.505ZM103.766 252.117V230.862C106.796 229.796 108.969 226.891 108.969 223.505C108.969 219.2 105.479 215.709 101.175 215.709C96.8706 215.709 93.381 219.2 93.381 223.505C93.381 226.891 95.5542 229.796 98.584 230.862V252.117H93.381V240.413L91.8348 239.723C83.3095 235.982 77.7932 227.56 77.7932 218.301C77.7932 205.385 88.2826 194.893 101.196 194.893C114.109 194.893 124.599 205.385 124.599 218.301C124.599 227.56 119.082 235.982 110.557 239.723L109.011 240.413V252.117H103.808H103.766Z" fill="white"/><path d="M796.132 217.486C795.567 217.486 795.045 217.277 794.648 216.88C794.251 216.483 794.042 215.96 794.042 215.417C794.042 215.124 794.084 214.873 794.188 214.602C794.293 214.351 794.46 214.121 794.648 213.933C795.421 213.16 796.821 213.139 797.594 213.933C797.991 214.33 798.221 214.852 798.221 215.417C798.221 215.688 798.158 215.96 798.054 216.211C797.949 216.462 797.803 216.692 797.594 216.88C797.218 217.277 796.696 217.486 796.132 217.486Z" fill="#555DEB"/><path d="M794.042 206.158C794.042 205.009 794.961 204.068 796.132 204.068C797.281 204.068 798.221 205.009 798.221 206.158C798.221 207.308 797.281 208.248 796.132 208.248C794.961 208.248 794.042 207.308 794.042 206.158ZM794.042 196.899C794.042 195.75 794.961 194.809 796.132 194.809C797.281 194.809 798.221 195.75 798.221 196.899C798.221 198.07 797.281 198.989 796.132 198.989C794.961 198.989 794.042 198.07 794.042 196.899Z" fill="#555DEB"/><path d="M796.132 189.752C795.567 189.752 795.024 189.522 794.648 189.145C794.46 188.936 794.293 188.707 794.188 188.456C794.084 188.205 794.042 187.933 794.042 187.662C794.042 187.39 794.084 187.118 794.188 186.867C794.293 186.596 794.46 186.366 794.648 186.178C795.421 185.404 796.821 185.404 797.594 186.178C797.803 186.366 797.949 186.596 798.054 186.867C798.158 187.118 798.221 187.39 798.221 187.662C798.221 187.933 798.158 188.205 798.054 188.456C797.949 188.707 797.803 188.936 797.594 189.145C797.218 189.522 796.675 189.752 796.132 189.752Z" fill="#555DEB"/><path d="M1259.11 217.507C1258.54 217.507 1258.02 217.277 1257.62 216.88C1257.23 216.483 1257.02 215.96 1257.02 215.417C1257.02 215.124 1257.08 214.873 1257.19 214.602C1257.29 214.351 1257.44 214.121 1257.62 213.933C1258.4 213.159 1259.82 213.159 1260.59 213.933C1260.97 214.33 1261.2 214.852 1261.2 215.417C1261.2 215.688 1261.14 215.96 1261.03 216.211C1260.93 216.462 1260.78 216.692 1260.59 216.88C1260.2 217.277 1259.67 217.507 1259.11 217.507Z" fill="#555DEB"/><path d="M1257.02 206.158C1257.02 205.009 1257.96 204.068 1259.11 204.068C1260.26 204.068 1261.2 205.009 1261.2 206.158C1261.2 207.308 1260.26 208.248 1259.11 208.248C1257.96 208.248 1257.02 207.308 1257.02 206.158ZM1257.02 196.899C1257.02 195.75 1257.96 194.809 1259.11 194.809C1260.26 194.809 1261.2 195.75 1261.2 196.899C1261.2 198.07 1260.26 198.989 1259.11 198.989C1257.96 198.989 1257.02 198.07 1257.02 196.899Z" fill="#555DEB"/><path d="M1259.11 189.752C1258.54 189.752 1258.02 189.522 1257.62 189.145C1257.54 189.041 1257.44 188.936 1257.37 188.811C1257.29 188.707 1257.23 188.581 1257.19 188.456C1257.12 188.33 1257.08 188.205 1257.06 188.059C1257.04 187.933 1257.02 187.787 1257.02 187.662C1257.02 187.39 1257.08 187.118 1257.19 186.867C1257.29 186.596 1257.44 186.366 1257.62 186.178C1258.4 185.404 1259.82 185.404 1260.59 186.178C1260.97 186.575 1261.2 187.118 1261.2 187.662C1261.2 187.787 1261.2 187.933 1261.16 188.059C1261.14 188.205 1261.09 188.33 1261.03 188.456C1260.99 188.581 1260.93 188.707 1260.84 188.811C1260.76 188.936 1260.68 189.041 1260.59 189.145C1260.2 189.522 1259.65 189.752 1259.11 189.752Z" fill="#555DEB"/><path d="M1027.61 352.5C1027.34 352.5 1027.07 352.458 1026.82 352.354C1026.56 352.228 1026.33 352.082 1026.15 351.894C1025.75 351.497 1025.52 350.974 1025.52 350.41C1025.52 349.846 1025.75 349.323 1026.15 348.926C1026.71 348.341 1027.65 348.174 1028.42 348.487C1028.68 348.592 1028.91 348.738 1029.09 348.926C1029.49 349.323 1029.7 349.867 1029.7 350.41C1029.7 350.953 1029.49 351.497 1029.09 351.894C1028.7 352.291 1028.17 352.5 1027.61 352.5Z" fill="#555DEB"/><path d="M1025.52 368.906C1025.52 367.757 1026.46 366.816 1027.61 366.816C1028.76 366.816 1029.7 367.757 1029.7 368.906C1029.7 370.056 1028.76 370.996 1027.61 370.996C1026.46 370.996 1025.52 370.056 1025.52 368.906ZM1025.52 359.669C1025.52 358.498 1026.46 357.579 1027.61 357.579C1028.76 357.579 1029.7 358.498 1029.7 359.669C1029.7 360.818 1028.76 361.759 1027.61 361.759C1026.46 361.759 1025.52 360.818 1025.52 359.669Z" fill="#555DEB"/><path d="M1027.61 380.255C1027.05 380.255 1026.52 380.025 1026.15 379.628C1025.75 379.252 1025.52 378.729 1025.52 378.165C1025.52 377.893 1025.58 377.622 1025.69 377.371C1025.79 377.099 1025.94 376.869 1026.15 376.681C1026.71 376.096 1027.65 375.908 1028.42 376.221C1028.68 376.326 1028.91 376.493 1029.09 376.681C1029.28 376.869 1029.45 377.099 1029.55 377.371C1029.66 377.622 1029.7 377.893 1029.7 378.165C1029.7 378.437 1029.66 378.708 1029.55 378.959C1029.45 379.21 1029.28 379.44 1029.09 379.628C1028.7 380.025 1028.17 380.255 1027.61 380.255Z" fill="#555DEB"/><path d="M333.134 320.188C325.904 320.188 320.032 326.061 320.032 333.293C320.032 340.524 325.904 346.397 333.134 346.397C340.363 346.397 346.235 340.524 346.235 333.293C346.235 326.061 340.363 320.188 333.134 320.188ZM333.134 341.151C328.808 341.151 325.277 337.619 325.277 333.293C325.277 328.966 328.808 325.434 333.134 325.434C337.459 325.434 340.99 328.966 340.99 333.293C340.99 337.619 337.459 341.151 333.134 341.151Z" fill="white"/><path d="M333.134 337.013L329.435 333.314L333.134 329.615L336.832 333.314L333.134 337.013Z" fill="white"/><path d="M356.557 350.243C356.85 344.976 356.62 339.73 355.826 334.505C353.841 321.401 348.45 308.902 339.799 297.387L333.134 288.483L326.468 297.387C317.838 308.902 312.447 321.401 310.441 334.505C309.647 339.709 309.396 344.976 309.71 350.243C306.659 352.437 304.131 355.301 302.292 358.582C300.182 362.386 299.074 366.691 299.074 371.038V378.061L304.507 374.069C307.223 372.271 310.316 371.059 313.534 370.516C314.516 373.609 315.268 375.385 316.25 378.082C317.984 376.932 322.143 371.791 330.522 370.787V378.061H335.766V370.787C344.166 371.791 348.324 376.932 350.038 378.082C351.041 375.365 351.772 373.609 352.754 370.516C355.972 371.059 359.065 372.271 361.781 374.069L367.214 378.061V371.038C367.214 362.804 363.265 355.071 356.578 350.243H356.557ZM304.528 368.008C305.176 363.64 307.202 359.648 310.316 356.555C310.734 359.522 311.319 362.469 312.071 365.437C309.459 365.939 306.91 366.796 304.528 368.008ZM347.551 369.513C343.916 367.234 339.883 365.897 335.766 365.5V351.831H330.522V365.5C326.405 365.897 322.352 367.234 318.737 369.513C310.922 345.666 315.101 321.296 330.668 300.542L333.154 297.24L335.641 300.542C351.208 321.296 355.387 345.666 347.572 369.513H347.551ZM354.196 365.437C354.948 362.469 355.533 359.522 355.951 356.555C359.065 359.627 361.112 363.64 361.739 368.008C359.357 366.816 356.808 365.939 354.196 365.437Z" fill="white"/><path d="M288.397 309.718H304.298V314.963H288.397V309.718Z" fill="white"/><path d="M361.969 309.718H377.87V314.963H361.969V309.718Z" fill="white"/><path d="M293.871 291.116L308.122 297.763L305.907 302.507L291.656 295.861L293.871 291.116Z" fill="white"/><path d="M372.396 333.544L358.145 326.897L360.36 322.153L374.611 328.799L372.396 333.544Z" fill="white"/><path d="M291.656 328.779L305.907 322.132L308.122 326.877L293.871 333.523L291.656 328.779Z" fill="white"/><path d="M372.396 291.116L374.611 295.861L360.36 302.507L358.145 297.763L372.396 291.116Z" fill="white"/><path d="M609.662 268.775H604.48V230.799L609.662 235.982V206.409H580.095L589.393 215.709L580.45 224.655L560.391 209.732L526.415 233.892V185.509H521.233V273.979H609.683V268.795L609.662 268.775ZM557.674 230.757V268.775H542.128V241.813L557.674 230.757ZM562.856 231.008L578.57 242.712V268.795H562.856V231.029V231.008ZM583.752 243.318L599.298 227.769V268.775H583.752V243.318ZM560.307 216.148L580.931 231.489L596.707 215.709L592.59 211.592H604.48V223.484L600.363 219.367L581.39 238.344L560.203 222.585L526.394 246.62V240.246L560.286 216.148H560.307ZM526.415 252.995L536.946 245.513V268.795H526.415V253.016V252.995Z" fill="white"/><path d="M1022.24 206.409C1023.81 204.946 1024.77 202.856 1024.77 200.557C1024.77 197.505 1023.05 194.851 1020.55 193.493L1026.36 181.475H996.413L1002.22 193.493C999.714 194.851 998.001 197.505 998.001 200.557C998.001 202.856 998.983 204.946 1000.55 206.409C986.112 217.465 981.953 234.979 981.953 253.183V267.458H1030.12V272.808H1073.29V219.283H1033.4C1030.51 214.205 1026.77 209.899 1022.22 206.409H1022.24ZM1006.05 203.232C1004.56 203.232 1003.37 202.041 1003.37 200.557C1003.37 199.073 1004.56 197.882 1006.05 197.882H1016.74C1018.23 197.882 1019.42 199.073 1019.42 200.557C1019.42 202.041 1018.23 203.232 1016.74 203.232H1006.05ZM1017.83 186.825L1015.07 192.531H1007.72L1004.96 186.825H1017.83ZM987.323 262.107V253.183C987.323 231.384 993.696 216.796 1006.8 208.603H1015.99C1022.26 212.512 1026.9 217.758 1030.12 224.592V262.128H987.303L987.323 262.107ZM1067.94 267.458H1035.47V256.757H1067.94V267.458ZM1035.47 251.407V240.706H1067.94V251.407H1035.47ZM1067.94 224.655V235.355H1035.47V224.655H1067.94Z" fill="white"/><path d="M1011.39 232.68C1012.88 232.68 1014.07 233.871 1014.07 235.355H1019.42C1019.42 231.865 1017.18 228.897 1014.07 227.79V224.655H1008.72V227.79C1005.61 228.897 1003.37 231.865 1003.37 235.355C1003.37 239.786 1006.97 243.381 1011.39 243.381C1012.88 243.381 1014.07 244.572 1014.07 246.056C1014.07 247.54 1012.88 248.731 1011.39 248.731C1009.91 248.731 1008.72 247.54 1008.72 246.056H1003.37C1003.37 249.546 1005.61 252.514 1008.72 253.622V256.757H1014.07V253.622C1017.18 252.514 1019.42 249.546 1019.42 246.056C1019.42 241.625 1015.82 238.031 1011.39 238.031C1009.91 238.031 1008.72 236.839 1008.72 235.355C1008.72 233.871 1009.91 232.68 1011.39 232.68Z" fill="white"/><path d="M825.448 308.108L830.003 303.552L834.119 307.669L838.236 303.552L825.907 291.221L821.791 295.338L825.907 299.456L820.955 304.409C815.94 300.793 810.257 298.285 804.197 297.073V290.197H810.006V284.387H780.941V290.197H786.749V297.073C780.711 298.285 775.006 300.793 769.991 304.409L765.039 299.456L769.156 295.338L765.039 291.221L752.711 303.552L756.827 307.669L760.944 303.552L765.499 308.108C756.932 316.238 751.875 327.441 751.875 339.793C751.875 363.953 771.433 383.599 795.463 383.599C819.492 383.599 839.05 363.953 839.05 339.793C839.05 328.047 834.412 316.656 825.427 308.108H825.448ZM792.579 290.176H798.388V296.279C797.427 296.216 796.466 296.174 795.484 296.174C794.502 296.174 793.54 296.216 792.579 296.279V290.176ZM795.484 377.768C774.651 377.768 757.705 360.735 757.705 339.772C757.705 318.809 774.651 301.985 795.484 301.985C816.316 301.985 833.262 318.934 833.262 339.772C833.262 360.609 816.316 377.768 795.484 377.768Z" fill="white"/><path d="M798.388 331.558V307.795H792.579V331.558C789.194 332.749 786.771 335.989 786.771 339.772C786.771 344.579 790.678 348.487 795.484 348.487C800.29 348.487 804.197 344.579 804.197 339.772C804.197 335.989 801.773 332.749 798.388 331.558ZM795.484 342.677C793.875 342.677 792.579 341.381 792.579 339.772C792.579 338.162 793.875 336.867 795.484 336.867C797.093 336.867 798.388 338.162 798.388 339.772C798.388 341.381 797.093 342.677 795.484 342.677Z" fill="white"/><path d="M792.579 365.938H798.388V371.749H792.579V365.938Z" fill="white"/><path d="M763.514 336.867H769.323V342.677H763.514V336.867Z" fill="white"/><path d="M821.645 336.867H827.454V342.677H821.645V336.867Z" fill="white"/><path d="M774.944 364.455L770.827 360.338L774.944 356.22L779.06 360.338L774.944 364.455Z" fill="white"/><path d="M816.045 323.344L811.928 319.227L816.045 315.11L820.161 319.227L816.045 323.344Z" fill="white"/><path d="M816.045 364.455L811.928 360.338L816.045 356.22L820.161 360.338L816.045 364.455Z" fill="white"/><path d="M774.944 323.344L770.827 319.227L774.944 315.11L779.06 319.227L774.944 323.344Z" fill="white"/><path d="M1247.3 334.192L1259.09 327.984L1270.87 334.192L1268.62 321.066L1278.16 311.766L1264.98 309.843L1259.09 297.888L1253.19 309.843L1240.01 311.766L1249.56 321.066L1247.3 334.192ZM1256.75 314.734L1259.09 309.989L1261.43 314.734L1266.67 315.486L1262.89 319.185L1263.79 324.41L1259.11 321.944L1254.43 324.41L1255.33 319.185L1251.54 315.486L1256.79 314.734H1256.75Z" fill="white"/><path d="M1226.8 301.274C1219.43 301.274 1213.43 307.272 1213.43 314.65C1213.43 322.028 1219.43 328.026 1226.8 328.026H1230.61C1233.41 337.828 1241.2 345.561 1251.06 348.341V360.149H1241.1L1235.75 376.389H1229.65V381.739H1288.51V376.389H1282.41L1277.06 360.149H1267.09V348.341C1276.87 345.561 1284.6 337.828 1287.38 328.047H1291.35C1298.73 328.047 1304.72 322.049 1304.72 314.671C1304.72 307.293 1298.73 301.295 1291.35 301.295H1288.49V295.756H1294.02V290.406H1224.11V295.756H1229.46V301.295H1226.78L1226.8 301.274ZM1226.8 322.676C1222.37 322.676 1218.78 319.081 1218.78 314.65C1218.78 310.219 1222.37 306.624 1226.8 306.624H1229.48V320C1229.48 320.899 1229.52 321.798 1229.6 322.676H1226.8ZM1276.79 376.368H1241.37L1244.96 365.479H1273.19L1276.79 376.368ZM1261.76 360.129H1256.41V349.302C1257.29 349.386 1258.19 349.428 1259.09 349.428C1259.99 349.428 1260.88 349.386 1261.76 349.302V360.129ZM1291.37 306.604C1295.8 306.604 1299.39 310.198 1299.39 314.629C1299.39 319.06 1295.8 322.655 1291.37 322.655H1288.4C1288.49 321.777 1288.53 320.878 1288.53 319.98V306.604H1291.39H1291.37ZM1283.16 295.715V319.98C1283.16 333.251 1272.36 344.056 1259.09 344.056C1245.82 344.056 1234.83 333.251 1234.83 319.98V295.715H1283.16Z" fill="white"/><path d="M680.144 114H678.44V97.92H680.768L686.168 108.408L687.584 111.384H687.704L689.096 108.408L694.472 97.92H696.824V114H695.12V102.672L695.168 100.512H695.024L694.016 102.672L688.664 113.04H686.6L681.248 102.672L680.216 100.512H680.096L680.144 102.672V114ZM704.313 114.24C701.985 114.24 700.401 113.136 700.401 111.216C700.401 109.272 702.009 108.432 704.217 108.192L709.857 107.568V106.656C709.857 104.352 708.849 103.44 706.257 103.44C703.713 103.44 702.369 104.352 702.369 106.44V106.536H700.665V106.44C700.665 103.944 702.729 101.904 706.377 101.904C709.977 101.904 711.513 103.968 711.513 106.584V114H709.977V110.808H709.857C709.161 112.992 707.073 114.24 704.313 114.24ZM702.105 111.096C702.105 112.296 702.897 112.92 704.697 112.92C707.577 112.92 709.857 111.648 709.857 108.792V108.696L704.745 109.272C702.969 109.44 702.105 109.872 702.105 111.096ZM720.873 114.24C717.225 114.24 715.113 112.776 715.113 110.04V109.992H716.817V110.136C716.817 112.128 717.993 112.824 720.897 112.824C723.561 112.824 724.473 112.2 724.473 110.832C724.473 109.584 723.729 109.176 721.761 108.864L718.593 108.408C716.433 108.12 715.065 107.28 715.065 105.312C715.065 103.224 717.057 101.904 720.321 101.904C723.729 101.904 725.937 103.344 725.937 106.128V106.176H724.233V106.056C724.233 104.28 723.297 103.32 720.273 103.32C717.777 103.32 716.745 103.92 716.745 105.336C716.745 106.56 717.369 106.992 719.337 107.28L722.241 107.688C724.785 108.048 726.153 108.912 726.153 110.832C726.153 113.064 723.945 114.24 720.873 114.24ZM737.014 114H734.446C732.094 114 730.582 113.016 730.582 110.232V103.608H728.47V102.144H730.582V99.312H732.31V102.144H737.014V103.608H732.31V110.328C732.31 111.984 733.126 112.44 734.854 112.44H737.014V114ZM745.873 114.24C742.057 114.24 739.633 111.84 739.633 108.072C739.633 104.472 742.033 101.904 745.849 101.904C749.329 101.904 751.801 103.92 751.801 107.448C751.801 107.88 751.753 108.24 751.681 108.552H741.241C741.337 111.216 742.705 112.824 745.849 112.824C748.633 112.824 749.929 111.792 749.929 110.064V109.896H751.633V110.064C751.633 112.536 749.185 114.24 745.873 114.24ZM745.825 103.32C742.753 103.32 741.361 104.904 741.241 107.496H750.193C750.193 107.376 750.193 107.256 750.193 107.136C750.193 104.64 748.609 103.32 745.825 103.32ZM757.116 114H755.412V102.144H756.948V105.384H757.068C757.428 103.488 758.772 101.904 761.244 101.904C763.98 101.904 765.18 103.92 765.18 106.128V107.304H763.476V106.392C763.476 104.376 762.636 103.392 760.572 103.392C758.172 103.392 757.116 104.904 757.116 107.568V114ZM774.144 114.24C770.328 114.24 767.904 111.84 767.904 108.072C767.904 104.472 770.304 101.904 774.12 101.904C777.6 101.904 780.072 103.92 780.072 107.448C780.072 107.88 780.024 108.24 779.952 108.552H769.512C769.608 111.216 770.976 112.824 774.12 112.824C776.904 112.824 778.2 111.792 778.2 110.064V109.896H779.904V110.064C779.904 112.536 777.456 114.24 774.144 114.24ZM774.096 103.32C771.024 103.32 769.632 104.904 769.512 107.496H778.464C778.464 107.376 778.464 107.256 778.464 107.136C778.464 104.64 776.88 103.32 774.096 103.32ZM788.795 114.24C785.003 114.24 782.891 111.672 782.891 108.072C782.891 104.472 785.003 101.904 788.651 101.904C791.459 101.904 793.211 103.416 793.739 105.456H793.859V97.92H795.563V114H794.003V110.496H793.907C793.331 112.872 791.411 114.24 788.795 114.24ZM784.619 108.072C784.619 111.504 786.443 112.68 789.227 112.68C792.011 112.68 793.859 111.072 793.859 108.264V108.048C793.859 105.12 792.107 103.488 789.179 103.488C786.467 103.488 784.619 104.64 784.619 108.072ZM808.821 114.24C806.493 114.24 804.909 113.136 804.909 111.216C804.909 109.272 806.517 108.432 808.725 108.192L814.365 107.568V106.656C814.365 104.352 813.357 103.44 810.765 103.44C808.221 103.44 806.877 104.352 806.877 106.44V106.536H805.173V106.44C805.173 103.944 807.237 101.904 810.885 101.904C814.485 101.904 816.021 103.968 816.021 106.584V114H814.485V110.808H814.365C813.669 112.992 811.581 114.24 808.821 114.24ZM806.613 111.096C806.613 112.296 807.405 112.92 809.205 112.92C812.085 112.92 814.365 111.648 814.365 108.792V108.696L809.253 109.272C807.477 109.44 806.613 109.872 806.613 111.096ZM821.876 118.08H820.172V102.144H821.708V105.48H821.9C822.428 103.344 824.204 101.904 827.012 101.904C830.708 101.904 832.82 104.472 832.82 108.072C832.82 111.672 830.732 114.24 826.964 114.24C824.348 114.24 822.452 112.8 821.9 110.52H821.876V118.08ZM821.876 108.288C821.876 111.096 823.724 112.68 826.508 112.68C829.268 112.68 831.092 111.504 831.092 108.072C831.092 104.64 829.244 103.488 826.556 103.488C823.604 103.488 821.876 105.144 821.876 108.072V108.288ZM837.969 118.08H836.265V102.144H837.801V105.48H837.993C838.521 103.344 840.297 101.904 843.105 101.904C846.801 101.904 848.913 104.472 848.913 108.072C848.913 111.672 846.825 114.24 843.057 114.24C840.441 114.24 838.545 112.8 837.993 110.52H837.969V118.08ZM837.969 108.288C837.969 111.096 839.817 112.68 842.601 112.68C845.361 112.68 847.185 111.504 847.185 108.072C847.185 104.64 845.337 103.488 842.649 103.488C839.697 103.488 837.969 105.144 837.969 108.072V108.288ZM683.552 144.24C679.76 144.24 677.648 141.672 677.648 138.072C677.648 134.472 679.76 131.904 683.408 131.904C686.216 131.904 687.968 133.416 688.496 135.456H688.616V127.92H690.32V144H688.76V140.496H688.664C688.088 142.872 686.168 144.24 683.552 144.24ZM679.376 138.072C679.376 141.504 681.2 142.68 683.984 142.68C686.768 142.68 688.616 141.072 688.616 138.264V138.048C688.616 135.12 686.864 133.488 683.936 133.488C681.224 133.488 679.376 134.64 679.376 138.072ZM700.173 144.24C696.357 144.24 693.933 141.84 693.933 138.072C693.933 134.472 696.333 131.904 700.149 131.904C703.629 131.904 706.101 133.92 706.101 137.448C706.101 137.88 706.053 138.24 705.981 138.552H695.541C695.637 141.216 697.005 142.824 700.149 142.824C702.933 142.824 704.229 141.792 704.229 140.064V139.896H705.933V140.064C705.933 142.536 703.485 144.24 700.173 144.24ZM700.125 133.32C697.053 133.32 695.661 134.904 695.541 137.496H704.493C704.493 137.376 704.493 137.256 704.493 137.136C704.493 134.64 702.909 133.32 700.125 133.32ZM716.263 144H714.175L708.511 132.144H710.359L715.159 142.32H715.303L720.079 132.144H721.927L716.263 144ZM730.6 144.24C726.784 144.24 724.36 141.84 724.36 138.072C724.36 134.472 726.76 131.904 730.576 131.904C734.056 131.904 736.528 133.92 736.528 137.448C736.528 137.88 736.48 138.24 736.408 138.552H725.968C726.064 141.216 727.432 142.824 730.576 142.824C733.36 142.824 734.656 141.792 734.656 140.064V139.896H736.36V140.064C736.36 142.536 733.912 144.24 730.6 144.24ZM730.552 133.32C727.48 133.32 726.088 134.904 725.968 137.496H734.92C734.92 137.376 734.92 137.256 734.92 137.136C734.92 134.64 733.336 133.32 730.552 133.32ZM741.843 144H740.139V127.92H741.843V144ZM751.868 144.24C748.004 144.24 745.436 141.672 745.436 138.072C745.436 134.472 748.004 131.904 751.868 131.904C755.756 131.904 758.324 134.472 758.324 138.072C758.324 141.672 755.756 144.24 751.868 144.24ZM751.868 142.704C755.132 142.704 756.644 140.952 756.644 138.072C756.644 135.216 755.132 133.44 751.868 133.44C748.604 133.44 747.116 135.216 747.116 138.072C747.116 140.952 748.604 142.704 751.868 142.704ZM763.646 148.08H761.942V132.144H763.478V135.48H763.67C764.198 133.344 765.974 131.904 768.782 131.904C772.478 131.904 774.59 134.472 774.59 138.072C774.59 141.672 772.502 144.24 768.734 144.24C766.118 144.24 764.222 142.8 763.67 140.52H763.646V148.08ZM763.646 138.288C763.646 141.096 765.494 142.68 768.278 142.68C771.038 142.68 772.862 141.504 772.862 138.072C772.862 134.64 771.014 133.488 768.326 133.488C765.374 133.488 763.646 135.144 763.646 138.072V138.288ZM779.739 144H778.035V132.144H779.571V135.72H779.667C780.003 133.728 781.371 131.904 784.323 131.904C786.963 131.904 788.451 133.536 788.835 135.84H788.955C789.291 133.8 790.707 131.904 793.683 131.904C796.779 131.904 798.387 134.088 798.387 137.088V144H796.683V137.328C796.683 134.688 795.555 133.464 793.059 133.464C790.203 133.464 789.051 135.12 789.051 138.264V144H787.347V137.328C787.347 134.688 786.243 133.464 783.747 133.464C780.867 133.464 779.739 135.12 779.739 138.264V144ZM808.158 144.24C804.342 144.24 801.918 141.84 801.918 138.072C801.918 134.472 804.318 131.904 808.134 131.904C811.614 131.904 814.086 133.92 814.086 137.448C814.086 137.88 814.038 138.24 813.966 138.552H803.526C803.622 141.216 804.99 142.824 808.134 142.824C810.918 142.824 812.214 141.792 812.214 140.064V139.896H813.918V140.064C813.918 142.536 811.47 144.24 808.158 144.24ZM808.11 133.32C805.038 133.32 803.646 134.904 803.526 137.496H812.478C812.478 137.376 812.478 137.256 812.478 137.136C812.478 134.64 810.894 133.32 808.11 133.32ZM819.401 144H817.697V132.144H819.233V135.864H819.353C819.761 133.848 821.441 131.904 824.393 131.904C827.729 131.904 829.385 134.28 829.385 137.088V144H827.681V137.328C827.681 134.88 826.505 133.464 823.793 133.464C820.913 133.464 819.401 135.216 819.401 138.264V144ZM840.78 144H838.212C835.86 144 834.348 143.016 834.348 140.232V133.608H832.236V132.144H834.348V129.312H836.076V132.144H840.78V133.608H836.076V140.328C836.076 141.984 836.892 142.44 838.62 142.44H840.78V144ZM854.46 144H852.348L848.556 132.144H850.308L852.828 139.992L853.428 142.512H853.572L854.388 139.848L857.508 132.144H859.692L862.788 139.848L863.604 142.488H863.748L864.324 139.992L866.868 132.144H868.62L864.78 144H862.644L859.572 136.248L858.636 133.608H858.516L857.58 136.248L854.46 144ZM873.342 130.632H871.638V127.92H873.342V130.632ZM873.342 144H871.638V132.144H873.342V144ZM884.831 144H882.263C879.911 144 878.399 143.016 878.399 140.232V133.608H876.287V132.144H878.399V129.312H880.127V132.144H884.831V133.608H880.127V140.328C880.127 141.984 880.943 142.44 882.671 142.44H884.831V144ZM889.754 144H888.05V127.92H889.754V135.768H889.874C890.258 133.776 891.794 131.904 894.818 131.904C898.13 131.904 899.786 134.112 899.786 137.112V144H898.082V137.328C898.082 134.616 896.81 133.464 894.146 133.464C890.978 133.464 889.754 135.48 889.754 138.432V144ZM680.144 160.632H678.44V157.92H680.144V160.632ZM680.144 174H678.44V162.144H680.144V174ZM686.065 174H684.361V162.144H685.897V165.864H686.017C686.425 163.848 688.105 161.904 691.057 161.904C694.393 161.904 696.049 164.28 696.049 167.088V174H694.345V167.328C694.345 164.88 693.169 163.464 690.457 163.464C687.577 163.464 686.065 165.216 686.065 168.264V174ZM701.876 174H700.172V162.144H701.708V165.864H701.828C702.236 163.848 703.916 161.904 706.868 161.904C710.204 161.904 711.86 164.28 711.86 167.088V174H710.156V167.328C710.156 164.88 708.98 163.464 706.268 163.464C703.388 163.464 701.876 165.216 701.876 168.264V174ZM721.792 174.24C717.928 174.24 715.36 171.672 715.36 168.072C715.36 164.472 717.928 161.904 721.792 161.904C725.68 161.904 728.248 164.472 728.248 168.072C728.248 171.672 725.68 174.24 721.792 174.24ZM721.792 172.704C725.056 172.704 726.568 170.952 726.568 168.072C726.568 165.216 725.056 163.44 721.792 163.44C718.528 163.44 717.04 165.216 717.04 168.072C717.04 170.952 718.528 172.704 721.792 172.704ZM738.418 174H736.33L730.666 162.144H732.514L737.314 172.32H737.458L742.234 162.144H744.082L738.418 174ZM750.403 174.24C748.075 174.24 746.491 173.136 746.491 171.216C746.491 169.272 748.099 168.432 750.307 168.192L755.947 167.568V166.656C755.947 164.352 754.939 163.44 752.347 163.44C749.803 163.44 748.459 164.352 748.459 166.44V166.536H746.755V166.44C746.755 163.944 748.819 161.904 752.467 161.904C756.067 161.904 757.603 163.968 757.603 166.584V174H756.067V170.808H755.947C755.251 172.992 753.163 174.24 750.403 174.24ZM748.195 171.096C748.195 172.296 748.987 172.92 750.787 172.92C753.667 172.92 755.947 171.648 755.947 168.792V168.696L750.835 169.272C749.059 169.44 748.195 169.872 748.195 171.096ZM769.026 174H766.458C764.106 174 762.594 173.016 762.594 170.232V163.608H760.482V162.144H762.594V159.312H764.322V162.144H769.026V163.608H764.322V170.328C764.322 171.984 765.138 172.44 766.866 172.44H769.026V174ZM773.95 160.632H772.246V157.92H773.95V160.632ZM773.95 174H772.246V162.144H773.95V174ZM784.718 174H782.63L776.966 162.144H778.814L783.614 172.32H783.758L788.534 162.144H790.382L784.718 174ZM799.055 174.24C795.239 174.24 792.815 171.84 792.815 168.072C792.815 164.472 795.215 161.904 799.031 161.904C802.511 161.904 804.983 163.92 804.983 167.448C804.983 167.88 804.935 168.24 804.863 168.552H794.423C794.519 171.216 795.887 172.824 799.031 172.824C801.815 172.824 803.111 171.792 803.111 170.064V169.896H804.815V170.064C804.815 172.536 802.367 174.24 799.055 174.24ZM799.007 163.32C795.935 163.32 794.543 164.904 794.423 167.496H803.375C803.375 167.376 803.375 167.256 803.375 167.136C803.375 164.64 801.791 163.32 799.007 163.32ZM816.055 178.08H814.351V162.144H815.887V165.48H816.079C816.607 163.344 818.383 161.904 821.191 161.904C824.887 161.904 826.999 164.472 826.999 168.072C826.999 171.672 824.911 174.24 821.143 174.24C818.527 174.24 816.631 172.8 816.079 170.52H816.055V178.08ZM816.055 168.288C816.055 171.096 817.903 172.68 820.687 172.68C823.447 172.68 825.271 171.504 825.271 168.072C825.271 164.64 823.423 163.488 820.735 163.488C817.783 163.488 816.055 165.144 816.055 168.072V168.288ZM832.148 174H830.444V162.144H831.98V165.384H832.1C832.46 163.488 833.804 161.904 836.276 161.904C839.012 161.904 840.212 163.92 840.212 166.128V167.304H838.508V166.392C838.508 164.376 837.668 163.392 835.604 163.392C833.204 163.392 832.148 164.904 832.148 167.568V174ZM849.344 174.24C845.48 174.24 842.912 171.672 842.912 168.072C842.912 164.472 845.48 161.904 849.344 161.904C853.232 161.904 855.8 164.472 855.8 168.072C855.8 171.672 853.232 174.24 849.344 174.24ZM849.344 172.704C852.608 172.704 854.12 170.952 854.12 168.072C854.12 165.216 852.608 163.44 849.344 163.44C846.08 163.44 844.592 165.216 844.592 168.072C844.592 170.952 846.08 172.704 849.344 172.704ZM861.146 160.632H859.442V157.92H861.146V160.632ZM857.474 178.08H856.562V176.688H857.57C858.77 176.688 859.442 176.208 859.442 174.912V162.144H861.146V174.552C861.146 177.144 859.562 178.08 857.474 178.08ZM871.026 174.24C867.21 174.24 864.786 171.84 864.786 168.072C864.786 164.472 867.186 161.904 871.002 161.904C874.482 161.904 876.954 163.92 876.954 167.448C876.954 167.88 876.906 168.24 876.834 168.552H866.394C866.49 171.216 867.858 172.824 871.002 172.824C873.786 172.824 875.082 171.792 875.082 170.064V169.896H876.786V170.064C876.786 172.536 874.338 174.24 871.026 174.24ZM870.978 163.32C867.906 163.32 866.514 164.904 866.394 167.496H875.346C875.346 167.376 875.346 167.256 875.346 167.136C875.346 164.64 873.762 163.32 870.978 163.32ZM886.229 174.24C882.437 174.24 879.965 171.672 879.965 168.072C879.965 164.472 882.437 161.904 886.229 161.904C889.541 161.904 892.133 163.872 892.133 166.728V166.92H890.453V166.776C890.453 164.664 888.917 163.464 886.205 163.464C883.037 163.464 881.669 165.168 881.669 168.072C881.669 170.976 883.037 172.68 886.205 172.68C888.917 172.68 890.453 171.48 890.453 169.368V169.224H892.133V169.416C892.133 172.272 889.541 174.24 886.229 174.24ZM903.039 174H900.471C898.119 174 896.607 173.016 896.607 170.232V163.608H894.495V162.144H896.607V159.312H898.335V162.144H903.039V163.608H898.335V170.328C898.335 171.984 899.151 172.44 900.879 172.44H903.039V174ZM911.466 174.24C907.818 174.24 905.706 172.776 905.706 170.04V169.992H907.41V170.136C907.41 172.128 908.586 172.824 911.49 172.824C914.154 172.824 915.066 172.2 915.066 170.832C915.066 169.584 914.322 169.176 912.354 168.864L909.186 168.408C907.026 168.12 905.658 167.28 905.658 165.312C905.658 163.224 907.65 161.904 910.914 161.904C914.322 161.904 916.53 163.344 916.53 166.128V166.176H914.826V166.056C914.826 164.28 913.89 163.32 910.866 163.32C908.37 163.32 907.338 163.92 907.338 165.336C907.338 166.56 907.962 166.992 909.93 167.28L912.834 167.688C915.378 168.048 916.746 168.912 916.746 170.832C916.746 173.064 914.538 174.24 911.466 174.24Z" fill="#C0C4CD"/><path d="M1108.88 118H1107.32V103.26H1118.36V104.69H1108.88V110.322H1118.03V111.73H1108.88V118ZM1127.12 118.22C1123.58 118.22 1121.23 115.866 1121.23 112.566C1121.23 109.266 1123.58 106.912 1127.12 106.912C1130.69 106.912 1133.04 109.266 1133.04 112.566C1133.04 115.866 1130.69 118.22 1127.12 118.22ZM1127.12 116.812C1130.11 116.812 1131.5 115.206 1131.5 112.566C1131.5 109.948 1130.11 108.32 1127.12 108.32C1124.13 108.32 1122.77 109.948 1122.77 112.566C1122.77 115.206 1124.13 116.812 1127.12 116.812ZM1141.02 118.22C1137.92 118.22 1136.4 116.064 1136.4 113.49V107.132H1137.96V113.248C1137.96 115.514 1139.06 116.812 1141.57 116.812C1144.23 116.812 1145.62 115.206 1145.62 112.412V107.132H1147.18V118H1145.77V114.612H1145.66C1145.29 116.46 1143.73 118.22 1141.02 118.22ZM1152.72 118H1151.16V107.132H1152.57V110.542H1152.68C1153.05 108.694 1154.59 106.912 1157.3 106.912C1160.36 106.912 1161.87 109.09 1161.87 111.664V118H1160.31V111.884C1160.31 109.64 1159.23 108.342 1156.75 108.342C1154.11 108.342 1152.72 109.948 1152.72 112.742V118ZM1170.45 118.22C1166.98 118.22 1165.04 115.866 1165.04 112.566C1165.04 109.266 1166.98 106.912 1170.32 106.912C1172.9 106.912 1174.5 108.298 1174.99 110.168H1175.1V103.26H1176.66V118H1175.23V114.788H1175.14C1174.61 116.966 1172.85 118.22 1170.45 118.22ZM1166.63 112.566C1166.63 115.712 1168.3 116.79 1170.85 116.79C1173.4 116.79 1175.1 115.316 1175.1 112.742V112.544C1175.1 109.86 1173.49 108.364 1170.81 108.364C1168.32 108.364 1166.63 109.42 1166.63 112.566ZM1185.8 118.22C1182.3 118.22 1180.08 116.02 1180.08 112.566C1180.08 109.266 1182.28 106.912 1185.78 106.912C1188.97 106.912 1191.24 108.76 1191.24 111.994C1191.24 112.39 1191.19 112.72 1191.13 113.006H1181.56C1181.64 115.448 1182.9 116.922 1185.78 116.922C1188.33 116.922 1189.52 115.976 1189.52 114.392V114.238H1191.08V114.392C1191.08 116.658 1188.84 118.22 1185.8 118.22ZM1185.76 108.21C1182.94 108.21 1181.67 109.662 1181.56 112.038H1189.76C1189.76 111.928 1189.76 111.818 1189.76 111.708C1189.76 109.42 1188.31 108.21 1185.76 108.21ZM1199.34 118.22C1195.87 118.22 1193.93 115.866 1193.93 112.566C1193.93 109.266 1195.87 106.912 1199.21 106.912C1201.79 106.912 1203.39 108.298 1203.88 110.168H1203.99V103.26H1205.55V118H1204.12V114.788H1204.03C1203.5 116.966 1201.74 118.22 1199.34 118.22ZM1195.52 112.566C1195.52 115.712 1197.19 116.79 1199.74 116.79C1202.29 116.79 1203.99 115.316 1203.99 112.742V112.544C1203.99 109.86 1202.38 108.364 1199.7 108.364C1197.21 108.364 1195.52 109.42 1195.52 112.566ZM1221.8 118.22C1217.42 118.22 1214.36 115.228 1214.36 110.63C1214.36 106.032 1217.42 103.04 1221.8 103.04C1226.22 103.04 1229.28 106.032 1229.28 110.63C1229.28 114.612 1226.99 117.384 1223.51 118.066L1225.76 121.102H1223.87L1221.86 118.22H1221.8ZM1221.8 116.702C1225.54 116.702 1227.63 114.634 1227.63 110.63C1227.63 106.626 1225.54 104.558 1221.8 104.558C1218.08 104.558 1216.01 106.626 1216.01 110.63C1216.01 114.634 1218.08 116.702 1221.8 116.702ZM1237.27 118.22C1234.17 118.22 1232.65 116.064 1232.65 113.49V107.132H1234.22V113.248C1234.22 115.514 1235.32 116.812 1237.82 116.812C1240.49 116.812 1241.87 115.206 1241.87 112.412V107.132H1243.43V118H1242.03V114.612H1241.92C1241.54 116.46 1239.98 118.22 1237.27 118.22ZM1250.43 118.22C1248.29 118.22 1246.84 117.208 1246.84 115.448C1246.84 113.666 1248.31 112.896 1250.34 112.676L1255.51 112.104V111.268C1255.51 109.156 1254.58 108.32 1252.21 108.32C1249.88 108.32 1248.64 109.156 1248.64 111.07V111.158H1247.08V111.07C1247.08 108.782 1248.97 106.912 1252.32 106.912C1255.62 106.912 1257.03 108.804 1257.03 111.202V118H1255.62V115.074H1255.51C1254.87 117.076 1252.96 118.22 1250.43 118.22ZM1248.4 115.338C1248.4 116.438 1249.13 117.01 1250.78 117.01C1253.42 117.01 1255.51 115.844 1255.51 113.226V113.138L1250.82 113.666C1249.19 113.82 1248.4 114.216 1248.4 115.338ZM1262.51 118H1260.94V107.132H1262.35V110.542H1262.46C1262.84 108.694 1264.38 106.912 1267.08 106.912C1270.14 106.912 1271.66 109.09 1271.66 111.664V118H1270.1V111.884C1270.1 109.64 1269.02 108.342 1266.53 108.342C1263.89 108.342 1262.51 109.948 1262.51 112.742V118ZM1282.22 118H1279.86C1277.71 118 1276.32 117.098 1276.32 114.546V108.474H1274.38V107.132H1276.32V104.536H1277.9V107.132H1282.22V108.474H1277.9V114.634C1277.9 116.152 1278.65 116.57 1280.24 116.57H1282.22V118ZM1290.6 112.258H1284.62V110.872H1290.6V112.258ZM1294.44 118H1292.73L1299.39 103.26H1301.57L1308.26 118H1306.5L1304.52 113.666H1296.42L1294.44 118ZM1299.59 106.67L1297.06 112.258H1303.88L1301.33 106.67L1300.51 104.756H1300.38L1299.59 106.67ZM1312.6 121.74H1311.03V107.132H1312.44V110.19H1312.62C1313.1 108.232 1314.73 106.912 1317.3 106.912C1320.69 106.912 1322.63 109.266 1322.63 112.566C1322.63 115.866 1320.71 118.22 1317.26 118.22C1314.86 118.22 1313.12 116.9 1312.62 114.81H1312.6V121.74ZM1312.6 112.764C1312.6 115.338 1314.29 116.79 1316.84 116.79C1319.37 116.79 1321.04 115.712 1321.04 112.566C1321.04 109.42 1319.35 108.364 1316.89 108.364C1314.18 108.364 1312.6 109.882 1312.6 112.566V112.764ZM1327.46 121.74H1325.9V107.132H1327.31V110.19H1327.48C1327.97 108.232 1329.59 106.912 1332.17 106.912C1335.56 106.912 1337.49 109.266 1337.49 112.566C1337.49 115.866 1335.58 118.22 1332.12 118.22C1329.73 118.22 1327.99 116.9 1327.48 114.81H1327.46V121.74ZM1327.46 112.764C1327.46 115.338 1329.15 116.79 1331.71 116.79C1334.24 116.79 1335.91 115.712 1335.91 112.566C1335.91 109.42 1334.21 108.364 1331.75 108.364C1329.04 108.364 1327.46 109.882 1327.46 112.566V112.764ZM1345.54 118.22C1342.19 118.22 1340.26 116.878 1340.26 114.37V114.326H1341.82V114.458C1341.82 116.284 1342.9 116.922 1345.56 116.922C1348 116.922 1348.84 116.35 1348.84 115.096C1348.84 113.952 1348.15 113.578 1346.35 113.292L1343.45 112.874C1341.47 112.61 1340.21 111.84 1340.21 110.036C1340.21 108.122 1342.04 106.912 1345.03 106.912C1348.15 106.912 1350.18 108.232 1350.18 110.784V110.828H1348.62V110.718C1348.62 109.09 1347.76 108.21 1344.99 108.21C1342.7 108.21 1341.75 108.76 1341.75 110.058C1341.75 111.18 1342.32 111.576 1344.13 111.84L1346.79 112.214C1349.12 112.544 1350.38 113.336 1350.38 115.096C1350.38 117.142 1348.35 118.22 1345.54 118.22ZM1353.56 119.936H1353.1V118.99H1353.54C1353.82 118.99 1353.98 118.924 1353.98 118.528V118H1353.12V114.942H1355.05V118.506C1355.05 119.474 1354.48 119.936 1353.56 119.936ZM1112.09 145.22C1108.75 145.22 1106.81 143.878 1106.81 141.37V141.326H1108.38V141.458C1108.38 143.284 1109.45 143.922 1112.12 143.922C1114.56 143.922 1115.39 143.35 1115.39 142.096C1115.39 140.952 1114.71 140.578 1112.91 140.292L1110 139.874C1108.02 139.61 1106.77 138.84 1106.77 137.036C1106.77 135.122 1108.6 133.912 1111.59 133.912C1114.71 133.912 1116.74 135.232 1116.74 137.784V137.828H1115.17V137.718C1115.17 136.09 1114.32 135.21 1111.54 135.21C1109.26 135.21 1108.31 135.76 1108.31 137.058C1108.31 138.18 1108.88 138.576 1110.69 138.84L1113.35 139.214C1115.68 139.544 1116.93 140.336 1116.93 142.096C1116.93 144.142 1114.91 145.22 1112.09 145.22ZM1121.9 148.74H1120.34V134.132H1121.74V137.19H1121.92C1122.4 135.232 1124.03 133.912 1126.61 133.912C1129.99 133.912 1131.93 136.266 1131.93 139.566C1131.93 142.866 1130.02 145.22 1126.56 145.22C1124.16 145.22 1122.43 143.9 1121.92 141.81H1121.9V148.74ZM1121.9 139.764C1121.9 142.338 1123.59 143.79 1126.14 143.79C1128.67 143.79 1130.35 142.712 1130.35 139.566C1130.35 136.42 1128.65 135.364 1126.19 135.364C1123.48 135.364 1121.9 136.882 1121.9 139.566V139.764ZM1140.37 145.22C1136.87 145.22 1134.65 143.02 1134.65 139.566C1134.65 136.266 1136.85 133.912 1140.35 133.912C1143.54 133.912 1145.8 135.76 1145.8 138.994C1145.8 139.39 1145.76 139.72 1145.69 140.006H1136.12C1136.21 142.448 1137.47 143.922 1140.35 143.922C1142.9 143.922 1144.09 142.976 1144.09 141.392V141.238H1145.65V141.392C1145.65 143.658 1143.41 145.22 1140.37 145.22ZM1140.33 135.21C1137.51 135.21 1136.23 136.662 1136.12 139.038H1144.33C1144.33 138.928 1144.33 138.818 1144.33 138.708C1144.33 136.42 1142.88 135.21 1140.33 135.21ZM1154.42 145.22C1150.94 145.22 1148.68 142.866 1148.68 139.566C1148.68 136.266 1150.94 133.912 1154.42 133.912C1157.46 133.912 1159.83 135.716 1159.83 138.334V138.51H1158.29V138.378C1158.29 136.442 1156.88 135.342 1154.4 135.342C1151.49 135.342 1150.24 136.904 1150.24 139.566C1150.24 142.228 1151.49 143.79 1154.4 143.79C1156.88 143.79 1158.29 142.69 1158.29 140.754V140.622H1159.83V140.798C1159.83 143.416 1157.46 145.22 1154.42 145.22ZM1164.84 132.746H1163.28V130.26H1164.84V132.746ZM1164.84 145H1163.28V134.132H1164.84V145ZM1171.83 145.22C1169.7 145.22 1168.24 144.208 1168.24 142.448C1168.24 140.666 1169.72 139.896 1171.74 139.676L1176.91 139.104V138.268C1176.91 136.156 1175.99 135.32 1173.61 135.32C1171.28 135.32 1170.05 136.156 1170.05 138.07V138.158H1168.49V138.07C1168.49 135.782 1170.38 133.912 1173.72 133.912C1177.02 133.912 1178.43 135.804 1178.43 138.202V145H1177.02V142.074H1176.91C1176.27 144.076 1174.36 145.22 1171.83 145.22ZM1169.81 142.338C1169.81 143.438 1170.53 144.01 1172.18 144.01C1174.82 144.01 1176.91 142.844 1176.91 140.226V140.138L1172.23 140.666C1170.6 140.82 1169.81 141.216 1169.81 142.338ZM1183.91 145H1182.35V130.26H1183.91V145ZM1189.45 132.746H1187.89V130.26H1189.45V132.746ZM1189.45 145H1187.89V134.132H1189.45V145ZM1203.7 145H1192.68V143.636L1198.97 137.63L1201.26 135.606V135.496L1198.97 135.54H1193.01V134.132H1203.37V135.518L1196.66 141.854L1194.7 143.548V143.658L1196.66 143.614H1203.7V145ZM1208.5 132.746H1206.94V130.26H1208.5V132.746ZM1208.5 145H1206.94V134.132H1208.5V145ZM1214.04 145H1212.48V134.132H1213.89V137.542H1214C1214.37 135.694 1215.91 133.912 1218.62 133.912C1221.67 133.912 1223.19 136.09 1223.19 138.664V145H1221.63V138.884C1221.63 136.64 1220.55 135.342 1218.07 135.342C1215.43 135.342 1214.04 136.948 1214.04 139.742V145ZM1231.75 144.12C1228.51 144.12 1226.53 141.986 1226.53 139.016C1226.53 136.046 1228.58 133.912 1231.92 133.912C1234.21 133.912 1236.02 134.99 1236.46 136.926H1236.57V134.132H1237.97V143.966C1237.97 147.552 1235.71 148.96 1232.43 148.96C1229.48 148.96 1227.24 147.486 1227.24 144.956H1228.8C1228.8 146.87 1230.08 147.618 1232.5 147.618C1235.31 147.618 1236.41 146.76 1236.41 144.054V141.216H1236.3C1235.86 142.888 1234.26 144.12 1231.75 144.12ZM1228.1 139.016C1228.1 141.788 1229.81 142.734 1232.17 142.734C1234.85 142.734 1236.41 141.392 1236.41 139.082V138.708C1236.41 136.574 1234.78 135.298 1232.28 135.298C1229.83 135.298 1228.1 136.244 1228.1 139.016ZM1248.92 132.746H1247.36V130.26H1248.92V132.746ZM1248.92 145H1247.36V134.132H1248.92V145ZM1254.46 145H1252.9V134.132H1254.31V137.542H1254.42C1254.79 135.694 1256.33 133.912 1259.04 133.912C1262.1 133.912 1263.61 136.09 1263.61 138.664V145H1262.05V138.884C1262.05 136.64 1260.97 135.342 1258.49 135.342C1255.85 135.342 1254.46 136.948 1254.46 139.742V145ZM1108.88 159.746H1107.32V157.26H1108.88V159.746ZM1108.88 172H1107.32V161.132H1108.88V172ZM1114.42 172H1112.86V161.132H1114.27V164.542H1114.38C1114.75 162.694 1116.29 160.912 1119 160.912C1122.06 160.912 1123.57 163.09 1123.57 165.664V172H1122.01V165.884C1122.01 163.64 1120.93 162.342 1118.45 162.342C1115.81 162.342 1114.42 163.948 1114.42 166.742V172ZM1129.03 172H1127.47V161.132H1128.87V164.542H1128.98C1129.36 162.694 1130.9 160.912 1133.6 160.912C1136.66 160.912 1138.18 163.09 1138.18 165.664V172H1136.62V165.884C1136.62 163.64 1135.54 162.342 1133.05 162.342C1130.41 162.342 1129.03 163.948 1129.03 166.742V172ZM1147.4 172.22C1143.85 172.22 1141.5 169.866 1141.5 166.566C1141.5 163.266 1143.85 160.912 1147.4 160.912C1150.96 160.912 1153.31 163.266 1153.31 166.566C1153.31 169.866 1150.96 172.22 1147.4 172.22ZM1147.4 170.812C1150.39 170.812 1151.77 169.206 1151.77 166.566C1151.77 163.948 1150.39 162.32 1147.4 162.32C1144.4 162.32 1143.04 163.948 1143.04 166.566C1143.04 169.206 1144.4 170.812 1147.4 170.812ZM1162.75 172H1160.84L1155.64 161.132H1157.34L1161.74 170.46H1161.87L1166.25 161.132H1167.94L1162.75 172ZM1173.85 172.22C1171.71 172.22 1170.26 171.208 1170.26 169.448C1170.26 167.666 1171.74 166.896 1173.76 166.676L1178.93 166.104V165.268C1178.93 163.156 1178.01 162.32 1175.63 162.32C1173.3 162.32 1172.07 163.156 1172.07 165.07V165.158H1170.5V165.07C1170.5 162.782 1172.4 160.912 1175.74 160.912C1179.04 160.912 1180.45 162.804 1180.45 165.202V172H1179.04V169.074H1178.93C1178.29 171.076 1176.38 172.22 1173.85 172.22ZM1171.82 169.338C1171.82 170.438 1172.55 171.01 1174.2 171.01C1176.84 171.01 1178.93 169.844 1178.93 167.226V167.138L1174.24 167.666C1172.62 167.82 1171.82 168.216 1171.82 169.338ZM1191.03 172H1188.68C1186.52 172 1185.14 171.098 1185.14 168.546V162.474H1183.2V161.132H1185.14V158.536H1186.72V161.132H1191.03V162.474H1186.72V168.634C1186.72 170.152 1187.47 170.57 1189.05 170.57H1191.03V172ZM1195.66 159.746H1194.1V157.26H1195.66V159.746ZM1195.66 172H1194.1V161.132H1195.66V172ZM1205.64 172H1203.73L1198.54 161.132H1200.23L1204.63 170.46H1204.76L1209.14 161.132H1210.83L1205.64 172ZM1218.9 172.22C1215.4 172.22 1213.18 170.02 1213.18 166.566C1213.18 163.266 1215.38 160.912 1218.88 160.912C1222.07 160.912 1224.33 162.76 1224.33 165.994C1224.33 166.39 1224.29 166.72 1224.22 167.006H1214.65C1214.74 169.448 1215.99 170.922 1218.88 170.922C1221.43 170.922 1222.62 169.976 1222.62 168.392V168.238H1224.18V168.392C1224.18 170.658 1221.93 172.22 1218.9 172.22ZM1218.85 162.21C1216.04 162.21 1214.76 163.662 1214.65 166.038H1222.86C1222.86 165.928 1222.86 165.818 1222.86 165.708C1222.86 163.42 1221.41 162.21 1218.85 162.21ZM1234.71 172H1233.14V157.26H1234.71V172ZM1245.24 172H1243.68V158.69H1237.61V157.26H1251.29V158.69H1245.24V172ZM1264.36 172.22C1261.01 172.22 1259.08 170.878 1259.08 168.37V168.326H1260.64V168.458C1260.64 170.284 1261.72 170.922 1264.38 170.922C1266.82 170.922 1267.66 170.35 1267.66 169.096C1267.66 167.952 1266.97 167.578 1265.17 167.292L1262.27 166.874C1260.29 166.61 1259.03 165.84 1259.03 164.036C1259.03 162.122 1260.86 160.912 1263.85 160.912C1266.97 160.912 1269 162.232 1269 164.784V164.828H1267.44V164.718C1267.44 163.09 1266.58 162.21 1263.81 162.21C1261.52 162.21 1260.57 162.76 1260.57 164.058C1260.57 165.18 1261.14 165.576 1262.95 165.84L1265.61 166.214C1267.94 166.544 1269.2 167.336 1269.2 169.096C1269.2 171.142 1267.17 172.22 1264.36 172.22ZM1277.92 172.22C1274.38 172.22 1272.03 169.866 1272.03 166.566C1272.03 163.266 1274.38 160.912 1277.92 160.912C1281.49 160.912 1283.84 163.266 1283.84 166.566C1283.84 169.866 1281.49 172.22 1277.92 172.22ZM1277.92 170.812C1280.91 170.812 1282.3 169.206 1282.3 166.566C1282.3 163.948 1280.91 162.32 1277.92 162.32C1274.93 162.32 1273.57 163.948 1273.57 166.566C1273.57 169.206 1274.93 170.812 1277.92 170.812ZM1288.83 172H1287.27V157.26H1288.83V172ZM1297.36 172.22C1294.26 172.22 1292.74 170.064 1292.74 167.49V161.132H1294.3V167.248C1294.3 169.514 1295.4 170.812 1297.91 170.812C1300.57 170.812 1301.96 169.206 1301.96 166.412V161.132H1303.52V172H1302.11V168.612H1302C1301.63 170.46 1300.07 172.22 1297.36 172.22ZM1314.17 172H1311.81C1309.66 172 1308.27 171.098 1308.27 168.546V162.474H1306.34V161.132H1308.27V158.536H1309.86V161.132H1314.17V162.474H1309.86V168.634C1309.86 170.152 1310.6 170.57 1312.19 170.57H1314.17V172ZM1318.79 159.746H1317.23V157.26H1318.79V159.746ZM1318.79 172H1317.23V161.132H1318.79V172ZM1328.09 172.22C1324.55 172.22 1322.2 169.866 1322.2 166.566C1322.2 163.266 1324.55 160.912 1328.09 160.912C1331.66 160.912 1334.01 163.266 1334.01 166.566C1334.01 169.866 1331.66 172.22 1328.09 172.22ZM1328.09 170.812C1331.09 170.812 1332.47 169.206 1332.47 166.566C1332.47 163.948 1331.09 162.32 1328.09 162.32C1325.1 162.32 1323.74 163.948 1323.74 166.566C1323.74 169.206 1325.1 170.812 1328.09 170.812ZM1339 172H1337.44V161.132H1338.85V164.542H1338.96C1339.33 162.694 1340.87 160.912 1343.58 160.912C1346.64 160.912 1348.16 163.09 1348.16 165.664V172H1346.59V165.884C1346.59 163.64 1345.52 162.342 1343.03 162.342C1340.39 162.342 1339 163.948 1339 166.742V172ZM1356.82 172.22C1353.48 172.22 1351.54 170.878 1351.54 168.37V168.326H1353.1V168.458C1353.1 170.284 1354.18 170.922 1356.84 170.922C1359.29 170.922 1360.12 170.35 1360.12 169.096C1360.12 167.952 1359.44 167.578 1357.64 167.292L1354.73 166.874C1352.75 166.61 1351.5 165.84 1351.5 164.036C1351.5 162.122 1353.32 160.912 1356.32 160.912C1359.44 160.912 1361.46 162.232 1361.46 164.784V164.828H1359.9V164.718C1359.9 163.09 1359.04 162.21 1356.27 162.21C1353.98 162.21 1353.04 162.76 1353.04 164.058C1353.04 165.18 1353.61 165.576 1355.41 165.84L1358.08 166.214C1360.41 166.544 1361.66 167.336 1361.66 169.096C1361.66 171.142 1359.64 172.22 1356.82 172.22Z" fill="#C0C4CD"/><path d="M1119.08 70.82H1115.18L1113.1 68.18C1109 67.94 1106.5 65.28 1106.5 61.3C1106.5 57.12 1109.26 54.4 1113.7 54.4C1118.24 54.4 1120.98 57.12 1120.98 61.3C1120.98 64.56 1119.32 66.94 1116.42 67.82L1119.08 70.82ZM1113.7 65.32C1116.64 65.32 1117.78 64.28 1117.78 61.3C1117.78 58.32 1116.64 57.28 1113.7 57.28C1110.76 57.28 1109.68 58.32 1109.68 61.3C1109.68 64.28 1110.76 65.32 1113.7 65.32ZM1130.12 68.2C1125.76 68.2 1123.54 66 1123.54 62.4V54.6H1126.54V62.18C1126.54 64.46 1127.4 65.28 1130.12 65.28C1132.86 65.28 1133.7 64.46 1133.7 62.18V54.6H1136.7V62.4C1136.7 66 1134.5 68.2 1130.12 68.2ZM1142.02 68H1138.66L1144.52 54.6H1148.8L1154.7 68H1151.26L1150 65.04H1143.3L1142.02 68ZM1145.72 59.42L1144.46 62.34H1148.84L1147.58 59.42L1146.76 57.34H1146.54L1145.72 59.42ZM1159.75 68H1156.75V54.6H1159.95L1164.75 60.94L1166.59 63.76H1166.81L1166.67 61.06V54.6H1169.67V68H1166.47L1161.53 61.6L1159.83 59.08H1159.63L1159.75 61.54V68ZM1180.07 68H1177.07V57.3H1172.09V54.6H1185.05V57.3H1180.07V68ZM1194.74 63.38H1187.28V60.8H1194.74V63.38ZM1199.94 68H1196.58L1202.44 54.6H1206.72L1212.62 68H1209.18L1207.92 65.04H1201.22L1199.94 68ZM1203.64 59.42L1202.38 62.34H1206.76L1205.5 59.42L1204.68 57.34H1204.46L1203.64 59.42ZM1217.67 68H1214.67V54.6H1221.67C1224.77 54.6 1226.77 56.36 1226.77 59.44C1226.77 62.52 1224.77 64.3 1221.67 64.3H1217.67V68ZM1221.35 57.3H1217.67V61.6H1221.35C1223.01 61.6 1223.79 61.12 1223.79 59.44C1223.79 57.8 1223.01 57.3 1221.35 57.3ZM1232.19 68H1229.19V54.6H1236.19C1239.29 54.6 1241.29 56.36 1241.29 59.44C1241.29 62.52 1239.29 64.3 1236.19 64.3H1232.19V68ZM1235.87 57.3H1232.19V61.6H1235.87C1237.53 61.6 1238.31 61.12 1238.31 59.44C1238.31 57.8 1237.53 57.3 1235.87 57.3ZM1249.78 68.2C1245.72 68.2 1243.44 66.6 1243.44 63.48V63.36H1246.44V63.72C1246.44 64.96 1247.06 65.46 1249.78 65.46C1252.18 65.46 1252.74 65.1 1252.74 64.2C1252.74 63.38 1252.28 63.08 1250.9 62.84L1247.14 62.3C1244.74 61.92 1243.32 60.72 1243.32 58.54C1243.32 56.52 1244.96 54.4 1249.46 54.4C1253.58 54.4 1255.5 56.3 1255.5 59.12V59.24H1252.48V58.96C1252.48 57.68 1251.82 57.14 1249.16 57.14C1247 57.14 1246.34 57.56 1246.34 58.42C1246.34 59.2 1246.78 59.48 1247.9 59.68L1251.66 60.28C1254.66 60.76 1255.74 62.22 1255.74 64.06C1255.74 66.24 1254.04 68.2 1249.78 68.2ZM1273.73 68H1262.75V54.6H1265.75V65.3H1273.73V68ZM1282.77 68.2C1278.41 68.2 1276.19 66 1276.19 62.4V54.6H1279.19V62.18C1279.19 64.46 1280.05 65.28 1282.77 65.28C1285.51 65.28 1286.35 64.46 1286.35 62.18V54.6H1289.35V62.4C1289.35 66 1287.15 68.2 1282.77 68.2ZM1295.21 68H1292.21V54.6H1295.41L1300.21 60.94L1302.05 63.76H1302.27L1302.13 61.06V54.6H1305.13V68H1301.93L1296.99 61.6L1295.29 59.08H1295.09L1295.21 61.54V68ZM1314.93 68.2C1310.51 68.2 1307.77 65.48 1307.77 61.3C1307.77 57.12 1310.51 54.4 1314.93 54.4C1319.09 54.4 1321.77 56.48 1321.77 59.88V60.18H1318.43V59.88C1318.43 58.12 1317.43 57.28 1314.99 57.28C1312.05 57.28 1310.95 58.32 1310.95 61.3C1310.95 64.28 1312.05 65.32 1314.99 65.32C1317.43 65.32 1318.43 64.48 1318.43 62.72V62.42H1321.77V62.72C1321.77 66.12 1319.11 68.2 1314.93 68.2ZM1327.42 68H1324.42V54.6H1327.42V59.92H1334.42V54.6H1337.42V68H1334.42V62.62H1327.42V68ZM1118.36 93H1106.46V91.08C1106.46 88.72 1107.48 87.5 1110.3 86.56L1113.74 85.44C1114.94 85.02 1115.38 84.62 1115.38 83.74C1115.38 82.72 1114.82 82.14 1112.62 82.14C1110.16 82.14 1109.42 82.88 1109.42 84.36V84.62H1106.48V84.36C1106.48 81.76 1108.26 79.4 1112.72 79.4C1116.76 79.4 1118.4 81.24 1118.4 83.78C1118.4 86.16 1116.84 87.34 1114.46 88L1111.54 88.8C1110.24 89.2 1109.62 89.58 1109.62 90.64L1113.12 90.3H1118.36V93ZM1127.42 93.2C1123.1 93.2 1120.72 90.48 1120.72 86.3C1120.72 82.14 1123.1 79.4 1127.42 79.4C1131.72 79.4 1134.12 82.14 1134.12 86.3C1134.12 90.48 1131.72 93.2 1127.42 93.2ZM1127.42 90.28C1129.96 90.28 1130.9 89.18 1130.9 86.3C1130.9 83.42 1129.96 82.32 1127.42 82.32C1124.86 82.32 1123.94 83.42 1123.94 86.3C1123.94 89.18 1124.86 90.28 1127.42 90.28ZM1148.31 93H1136.41V91.08C1136.41 88.72 1137.43 87.5 1140.25 86.56L1143.69 85.44C1144.89 85.02 1145.33 84.62 1145.33 83.74C1145.33 82.72 1144.77 82.14 1142.57 82.14C1140.11 82.14 1139.37 82.88 1139.37 84.36V84.62H1136.43V84.36C1136.43 81.76 1138.21 79.4 1142.67 79.4C1146.71 79.4 1148.35 81.24 1148.35 83.78C1148.35 86.16 1146.79 87.34 1144.41 88L1141.49 88.8C1140.19 89.2 1139.57 89.58 1139.57 90.64L1143.07 90.3H1148.31V93ZM1161.97 93H1158.97V90.44H1150.47V88.4L1158.49 79.6H1161.97V87.74H1164.01V90.44H1161.97V93ZM1154.65 87.74H1158.97V83.06H1158.75L1154.65 87.52V87.74Z" fill="white"/><path d="M930.37 453H926.92V437.59H930.37V453ZM936.976 453H933.526V437.59H937.206L942.726 444.881L944.842 448.124H945.095L944.934 445.019V437.59H948.384V453H944.704L939.023 445.64L937.068 442.742H936.838L936.976 445.571V453ZM955.015 453H951.565V437.59H955.245L960.765 444.881L962.881 448.124H963.134L962.973 445.019V437.59H966.423V453H962.743L957.062 445.64L955.107 442.742H954.877L955.015 445.571V453ZM977.54 453.23C972.434 453.23 969.26 450.102 969.26 445.295C969.26 440.488 972.434 437.36 977.54 437.36C982.761 437.36 985.912 440.488 985.912 445.295C985.912 450.102 982.761 453.23 977.54 453.23ZM977.54 449.918C980.921 449.918 982.232 448.722 982.232 445.295C982.232 441.868 980.921 440.672 977.54 440.672C974.159 440.672 972.917 441.868 972.917 445.295C972.917 448.722 974.159 449.918 977.54 449.918ZM998.979 453H994.057L987.663 437.59H991.826L996.449 449.504H996.679L1001.23 437.59H1005.37L998.979 453ZM1010.29 453H1006.42L1013.16 437.59H1018.08L1024.87 453H1020.91L1019.46 449.596H1011.76L1010.29 453ZM1014.54 443.133L1013.09 446.491H1018.13L1016.68 443.133L1015.74 440.741H1015.48L1014.54 443.133ZM1035.6 453H1032.15V440.695H1026.43V437.59H1041.33V440.695H1035.6V453ZM1047.37 453H1043.92V437.59H1047.37V453ZM1058.46 453.23C1053.35 453.23 1050.18 450.102 1050.18 445.295C1050.18 440.488 1053.35 437.36 1058.46 437.36C1063.68 437.36 1066.83 440.488 1066.83 445.295C1066.83 450.102 1063.68 453.23 1058.46 453.23ZM1058.46 449.918C1061.84 449.918 1063.15 448.722 1063.15 445.295C1063.15 441.868 1061.84 440.672 1058.46 440.672C1055.08 440.672 1053.84 441.868 1053.84 445.295C1053.84 448.722 1055.08 449.918 1058.46 449.918ZM1073.14 453H1069.69V437.59H1073.37L1078.89 444.881L1081 448.124H1081.25L1081.09 445.019V437.59H1084.54V453H1080.86L1075.18 445.64L1073.23 442.742H1073L1073.14 445.571V453Z" fill="white"/></g><path d="M935.936 499H927.248V482.92H935.696C938.576 482.92 940.472 484.36 940.472 486.904C940.472 488.752 939.44 490.144 937.232 490.48V490.624C939.704 491.032 940.976 492.496 940.976 494.56C940.976 497.344 939.008 499 935.936 499ZM928.952 484.48V489.928H935.408C937.592 489.928 938.768 489.064 938.768 487.216C938.768 485.344 937.736 484.48 935.552 484.48H928.952ZM928.952 491.392V497.44H935.792C938.072 497.44 939.248 496.504 939.248 494.392C939.248 492.328 938.024 491.392 935.792 491.392H928.952ZM949.345 499.24C945.961 499.24 944.305 496.888 944.305 494.08V487.144H946.009V493.816C946.009 496.288 947.209 497.704 949.945 497.704C952.849 497.704 954.361 495.952 954.361 492.904V487.144H956.065V499H954.529V495.304H954.409C954.001 497.32 952.297 499.24 949.345 499.24ZM961.986 485.632H960.282V482.92H961.986V485.632ZM961.986 499H960.282V487.144H961.986V499ZM967.907 499H966.203V482.92H967.907V499ZM979.396 499H976.828C974.476 499 972.964 498.016 972.964 495.232V488.608H970.852V487.144H972.964V484.312H974.692V487.144H979.396V488.608H974.692V495.328C974.692 496.984 975.508 497.44 977.236 497.44H979.396V499ZM1044.14 503.08H1042.44V487.144H1043.97V490.48H1044.16C1044.69 488.344 1046.47 486.904 1049.28 486.904C1052.97 486.904 1055.08 489.472 1055.08 493.072C1055.08 496.672 1053 499.24 1049.23 499.24C1046.61 499.24 1044.72 497.8 1044.16 495.52H1044.14V503.08ZM1044.14 493.288C1044.14 496.096 1045.99 497.68 1048.77 497.68C1051.53 497.68 1053.36 496.504 1053.36 493.072C1053.36 489.64 1051.51 488.488 1048.82 488.488C1045.87 488.488 1044.14 490.144 1044.14 493.072V493.288ZM1060.23 499H1058.53V487.144H1060.06V490.384H1060.18C1060.54 488.488 1061.89 486.904 1064.36 486.904C1067.1 486.904 1068.3 488.92 1068.3 491.128V492.304H1066.59V491.392C1066.59 489.376 1065.75 488.392 1063.69 488.392C1061.29 488.392 1060.23 489.904 1060.23 492.568V499ZM1077.43 499.24C1073.57 499.24 1071 496.672 1071 493.072C1071 489.472 1073.57 486.904 1077.43 486.904C1081.32 486.904 1083.89 489.472 1083.89 493.072C1083.89 496.672 1081.32 499.24 1077.43 499.24ZM1077.43 497.704C1080.69 497.704 1082.21 495.952 1082.21 493.072C1082.21 490.216 1080.69 488.44 1077.43 488.44C1074.17 488.44 1072.68 490.216 1072.68 493.072C1072.68 495.952 1074.17 497.704 1077.43 497.704ZM1089.23 485.632H1087.53V482.92H1089.23V485.632ZM1085.56 503.08H1084.65V501.688H1085.65C1086.85 501.688 1087.53 501.208 1087.53 499.912V487.144H1089.23V499.552C1089.23 502.144 1087.65 503.08 1085.56 503.08ZM1099.11 499.24C1095.29 499.24 1092.87 496.84 1092.87 493.072C1092.87 489.472 1095.27 486.904 1099.09 486.904C1102.57 486.904 1105.04 488.92 1105.04 492.448C1105.04 492.88 1104.99 493.24 1104.92 493.552H1094.48C1094.57 496.216 1095.94 497.824 1099.09 497.824C1101.87 497.824 1103.17 496.792 1103.17 495.064V494.896H1104.87V495.064C1104.87 497.536 1102.42 499.24 1099.11 499.24ZM1099.06 488.32C1095.99 488.32 1094.6 489.904 1094.48 492.496H1103.43C1103.43 492.376 1103.43 492.256 1103.43 492.136C1103.43 489.64 1101.85 488.32 1099.06 488.32ZM1114.31 499.24C1110.52 499.24 1108.05 496.672 1108.05 493.072C1108.05 489.472 1110.52 486.904 1114.31 486.904C1117.63 486.904 1120.22 488.872 1120.22 491.728V491.92H1118.54V491.776C1118.54 489.664 1117 488.464 1114.29 488.464C1111.12 488.464 1109.75 490.168 1109.75 493.072C1109.75 495.976 1111.12 497.68 1114.29 497.68C1117 497.68 1118.54 496.48 1118.54 494.368V494.224H1120.22V494.416C1120.22 497.272 1117.63 499.24 1114.31 499.24ZM1131.12 499H1128.56C1126.2 499 1124.69 498.016 1124.69 495.232V488.608H1122.58V487.144H1124.69V484.312H1126.42V487.144H1131.12V488.608H1126.42V495.328C1126.42 496.984 1127.24 497.44 1128.96 497.44H1131.12V499ZM1139.55 499.24C1135.9 499.24 1133.79 497.776 1133.79 495.04V494.992H1135.49V495.136C1135.49 497.128 1136.67 497.824 1139.57 497.824C1142.24 497.824 1143.15 497.2 1143.15 495.832C1143.15 494.584 1142.41 494.176 1140.44 493.864L1137.27 493.408C1135.11 493.12 1133.74 492.28 1133.74 490.312C1133.74 488.224 1135.73 486.904 1139 486.904C1142.41 486.904 1144.61 488.344 1144.61 491.128V491.176H1142.91V491.056C1142.91 489.28 1141.97 488.32 1138.95 488.32C1136.45 488.32 1135.42 488.92 1135.42 490.336C1135.42 491.56 1136.05 491.992 1138.01 492.28L1140.92 492.688C1143.46 493.048 1144.83 493.912 1144.83 495.832C1144.83 498.064 1142.62 499.24 1139.55 499.24ZM1212.94 499H1210.83L1207.04 487.144H1208.79L1211.31 494.992L1211.91 497.512H1212.06L1212.87 494.848L1215.99 487.144H1218.18L1221.27 494.848L1222.09 497.488H1222.23L1222.81 494.992L1225.35 487.144H1227.1L1223.26 499H1221.13L1218.06 491.248L1217.12 488.608H1217L1216.06 491.248L1212.94 499ZM1231.83 485.632H1230.12V482.92H1231.83V485.632ZM1231.83 499H1230.12V487.144H1231.83V499ZM1243.32 499H1240.75C1238.4 499 1236.88 498.016 1236.88 495.232V488.608H1234.77V487.144H1236.88V484.312H1238.61V487.144H1243.32V488.608H1238.61V495.328C1238.61 496.984 1239.43 497.44 1241.16 497.44H1243.32V499ZM1248.24 499H1246.53V482.92H1248.24V490.768H1248.36C1248.74 488.776 1250.28 486.904 1253.3 486.904C1256.61 486.904 1258.27 489.112 1258.27 492.112V499H1256.57V492.328C1256.57 489.616 1255.29 488.464 1252.63 488.464C1249.46 488.464 1248.24 490.48 1248.24 493.432V499ZM930.728 529.24C928.4 529.24 926.816 528.136 926.816 526.216C926.816 524.272 928.424 523.432 930.632 523.192L936.272 522.568V521.656C936.272 519.352 935.264 518.44 932.672 518.44C930.128 518.44 928.784 519.352 928.784 521.44V521.536H927.08V521.44C927.08 518.944 929.144 516.904 932.792 516.904C936.392 516.904 937.928 518.968 937.928 521.584V529H936.392V525.808H936.272C935.576 527.992 933.488 529.24 930.728 529.24ZM928.52 526.096C928.52 527.296 929.312 527.92 931.112 527.92C933.992 527.92 936.272 526.648 936.272 523.792V523.696L931.16 524.272C929.384 524.44 928.52 524.872 928.52 526.096ZM947.192 529.24C943.4 529.24 941.288 526.672 941.288 523.072C941.288 519.472 943.4 516.904 947.048 516.904C949.856 516.904 951.608 518.416 952.136 520.456H952.256V512.92H953.96V529H952.4V525.496H952.304C951.728 527.872 949.808 529.24 947.192 529.24ZM943.016 523.072C943.016 526.504 944.84 527.68 947.624 527.68C950.408 527.68 952.256 526.072 952.256 523.264V523.048C952.256 520.12 950.504 518.488 947.576 518.488C944.864 518.488 943.016 519.64 943.016 523.072ZM964.724 529H962.636L956.972 517.144H958.82L963.62 527.32H963.764L968.54 517.144H970.388L964.724 529ZM976.709 529.24C974.381 529.24 972.797 528.136 972.797 526.216C972.797 524.272 974.405 523.432 976.613 523.192L982.253 522.568V521.656C982.253 519.352 981.245 518.44 978.653 518.44C976.109 518.44 974.765 519.352 974.765 521.44V521.536H973.061V521.44C973.061 518.944 975.125 516.904 978.773 516.904C982.373 516.904 983.909 518.968 983.909 521.584V529H982.373V525.808H982.253C981.557 527.992 979.469 529.24 976.709 529.24ZM974.501 526.096C974.501 527.296 975.293 527.92 977.093 527.92C979.973 527.92 982.253 526.648 982.253 523.792V523.696L977.141 524.272C975.365 524.44 974.501 524.872 974.501 526.096ZM989.765 529H988.061V517.144H989.597V520.864H989.717C990.125 518.848 991.805 516.904 994.757 516.904C998.093 516.904 999.749 519.28 999.749 522.088V529H998.045V522.328C998.045 519.88 996.869 518.464 994.157 518.464C991.277 518.464 989.765 520.216 989.765 523.264V529ZM1009.54 529.24C1005.74 529.24 1003.27 526.672 1003.27 523.072C1003.27 519.472 1005.74 516.904 1009.54 516.904C1012.85 516.904 1015.44 518.872 1015.44 521.728V521.92H1013.76V521.776C1013.76 519.664 1012.22 518.464 1009.51 518.464C1006.34 518.464 1004.98 520.168 1004.98 523.072C1004.98 525.976 1006.34 527.68 1009.51 527.68C1012.22 527.68 1013.76 526.48 1013.76 524.368V524.224H1015.44V524.416C1015.44 527.272 1012.85 529.24 1009.54 529.24ZM1024.71 529.24C1020.9 529.24 1018.47 526.84 1018.47 523.072C1018.47 519.472 1020.87 516.904 1024.69 516.904C1028.17 516.904 1030.64 518.92 1030.64 522.448C1030.64 522.88 1030.59 523.24 1030.52 523.552H1020.08C1020.18 526.216 1021.55 527.824 1024.69 527.824C1027.47 527.824 1028.77 526.792 1028.77 525.064V524.896H1030.47V525.064C1030.47 527.536 1028.03 529.24 1024.71 529.24ZM1024.67 518.32C1021.59 518.32 1020.2 519.904 1020.08 522.496H1029.03C1029.03 522.376 1029.03 522.256 1029.03 522.136C1029.03 519.64 1027.45 518.32 1024.67 518.32ZM1039.37 529.24C1035.57 529.24 1033.46 526.672 1033.46 523.072C1033.46 519.472 1035.57 516.904 1039.22 516.904C1042.03 516.904 1043.78 518.416 1044.31 520.456H1044.43V512.92H1046.13V529H1044.57V525.496H1044.48C1043.9 527.872 1041.98 529.24 1039.37 529.24ZM1035.19 523.072C1035.19 526.504 1037.01 527.68 1039.8 527.68C1042.58 527.68 1044.43 526.072 1044.43 523.264V523.048C1044.43 520.12 1042.68 518.488 1039.75 518.488C1037.04 518.488 1035.19 519.64 1035.19 523.072ZM1083.54 529H1080.97C1078.62 529 1077.11 528.016 1077.11 525.232V518.608H1074.99V517.144H1077.11V514.312H1078.83V517.144H1083.54V518.608H1078.83V525.328C1078.83 526.984 1079.65 527.44 1081.38 527.44H1083.54V529ZM1092.4 529.24C1088.58 529.24 1086.16 526.84 1086.16 523.072C1086.16 519.472 1088.56 516.904 1092.37 516.904C1095.85 516.904 1098.33 518.92 1098.33 522.448C1098.33 522.88 1098.28 523.24 1098.21 523.552H1087.77C1087.86 526.216 1089.23 527.824 1092.37 527.824C1095.16 527.824 1096.45 526.792 1096.45 525.064V524.896H1098.16V525.064C1098.16 527.536 1095.71 529.24 1092.4 529.24ZM1092.35 518.32C1089.28 518.32 1087.89 519.904 1087.77 522.496H1096.72C1096.72 522.376 1096.72 522.256 1096.72 522.136C1096.72 519.64 1095.13 518.32 1092.35 518.32ZM1107.6 529.24C1103.81 529.24 1101.34 526.672 1101.34 523.072C1101.34 519.472 1103.81 516.904 1107.6 516.904C1110.91 516.904 1113.5 518.872 1113.5 521.728V521.92H1111.82V521.776C1111.82 519.664 1110.29 518.464 1107.58 518.464C1104.41 518.464 1103.04 520.168 1103.04 523.072C1103.04 525.976 1104.41 527.68 1107.58 527.68C1110.29 527.68 1111.82 526.48 1111.82 524.368V524.224H1113.5V524.416C1113.5 527.272 1110.91 529.24 1107.6 529.24ZM1118.84 529H1117.14V512.92H1118.84V520.768H1118.96C1119.35 518.776 1120.88 516.904 1123.91 516.904C1127.22 516.904 1128.87 519.112 1128.87 522.112V529H1127.17V522.328C1127.17 519.616 1125.9 518.464 1123.23 518.464C1120.07 518.464 1118.84 520.48 1118.84 523.432V529ZM1132.8 531.112H1132.3V530.08H1132.78C1133.09 530.08 1133.26 530.008 1133.26 529.576V529H1132.32V525.664H1134.44V529.552C1134.44 530.608 1133.81 531.112 1132.8 531.112ZM1169.08 529.24C1165.44 529.24 1163.32 527.776 1163.32 525.04V524.992H1165.03V525.136C1165.03 527.128 1166.2 527.824 1169.11 527.824C1171.77 527.824 1172.68 527.2 1172.68 525.832C1172.68 524.584 1171.94 524.176 1169.97 523.864L1166.8 523.408C1164.64 523.12 1163.28 522.28 1163.28 520.312C1163.28 518.224 1165.27 516.904 1168.53 516.904C1171.94 516.904 1174.15 518.344 1174.15 521.128V521.176H1172.44V521.056C1172.44 519.28 1171.51 518.32 1168.48 518.32C1165.99 518.32 1164.96 518.92 1164.96 520.336C1164.96 521.56 1165.58 521.992 1167.55 522.28L1170.45 522.688C1173 523.048 1174.36 523.912 1174.36 525.832C1174.36 528.064 1172.16 529.24 1169.08 529.24ZM1179.66 529H1177.95V512.92H1179.66V520.768H1179.78C1180.16 518.776 1181.7 516.904 1184.72 516.904C1188.03 516.904 1189.69 519.112 1189.69 522.112V529H1187.99V522.328C1187.99 519.616 1186.71 518.464 1184.05 518.464C1180.88 518.464 1179.66 520.48 1179.66 523.432V529ZM1197.15 529.24C1194.82 529.24 1193.24 528.136 1193.24 526.216C1193.24 524.272 1194.84 523.432 1197.05 523.192L1202.69 522.568V521.656C1202.69 519.352 1201.68 518.44 1199.09 518.44C1196.55 518.44 1195.2 519.352 1195.2 521.44V521.536H1193.5V521.44C1193.5 518.944 1195.56 516.904 1199.21 516.904C1202.81 516.904 1204.35 518.968 1204.35 521.584V529H1202.81V525.808H1202.69C1202 527.992 1199.91 529.24 1197.15 529.24ZM1194.94 526.096C1194.94 527.296 1195.73 527.92 1197.53 527.92C1200.41 527.92 1202.69 526.648 1202.69 523.792V523.696L1197.58 524.272C1195.8 524.44 1194.94 524.872 1194.94 526.096ZM1210.2 533.08H1208.5V517.144H1210.03V520.48H1210.23C1210.75 518.344 1212.53 516.904 1215.34 516.904C1219.03 516.904 1221.15 519.472 1221.15 523.072C1221.15 526.672 1219.06 529.24 1215.29 529.24C1212.67 529.24 1210.78 527.8 1210.23 525.52H1210.2V533.08ZM1210.2 523.288C1210.2 526.096 1212.05 527.68 1214.83 527.68C1217.59 527.68 1219.42 526.504 1219.42 523.072C1219.42 519.64 1217.57 518.488 1214.88 518.488C1211.93 518.488 1210.2 520.144 1210.2 523.072V523.288ZM1226.3 515.632H1224.59V512.92H1226.3V515.632ZM1226.3 529H1224.59V517.144H1226.3V529ZM1232.22 529H1230.51V517.144H1232.05V520.864H1232.17C1232.58 518.848 1234.26 516.904 1237.21 516.904C1240.54 516.904 1242.2 519.28 1242.2 522.088V529H1240.5V522.328C1240.5 519.88 1239.32 518.464 1236.61 518.464C1233.73 518.464 1232.22 520.216 1232.22 523.264V529ZM1251.41 528.04C1247.88 528.04 1245.72 525.712 1245.72 522.472C1245.72 519.232 1247.96 516.904 1251.6 516.904C1254.1 516.904 1256.07 518.08 1256.55 520.192H1256.67V517.144H1258.2V527.872C1258.2 531.784 1255.73 533.32 1252.16 533.32C1248.94 533.32 1246.49 531.712 1246.49 528.952H1248.2C1248.2 531.04 1249.59 531.856 1252.23 531.856C1255.3 531.856 1256.5 530.92 1256.5 527.968V524.872H1256.38C1255.9 526.696 1254.15 528.04 1251.41 528.04ZM1247.43 522.472C1247.43 525.496 1249.3 526.528 1251.87 526.528C1254.8 526.528 1256.5 525.064 1256.5 522.544V522.136C1256.5 519.808 1254.72 518.416 1251.99 518.416C1249.32 518.416 1247.43 519.448 1247.43 522.472ZM934.952 559.24C930.176 559.24 926.84 555.976 926.84 550.96C926.84 545.944 930.176 542.68 934.952 542.68C939.776 542.68 943.112 545.944 943.112 550.96C943.112 555.304 940.616 558.328 936.824 559.072L939.272 562.384H937.208L935.024 559.24H934.952ZM934.952 557.584C939.032 557.584 941.312 555.328 941.312 550.96C941.312 546.592 939.032 544.336 934.952 544.336C930.896 544.336 928.64 546.592 928.64 550.96C928.64 555.328 930.896 557.584 934.952 557.584ZM951.712 559.24C948.328 559.24 946.672 556.888 946.672 554.08V547.144H948.376V553.816C948.376 556.288 949.576 557.704 952.312 557.704C955.216 557.704 956.728 555.952 956.728 552.904V547.144H958.432V559H956.896V555.304H956.776C956.368 557.32 954.664 559.24 951.712 559.24ZM965.937 559.24C963.609 559.24 962.025 558.136 962.025 556.216C962.025 554.272 963.633 553.432 965.841 553.192L971.481 552.568V551.656C971.481 549.352 970.473 548.44 967.881 548.44C965.337 548.44 963.993 549.352 963.993 551.44V551.536H962.289V551.44C962.289 548.944 964.353 546.904 968.001 546.904C971.601 546.904 973.137 548.968 973.137 551.584V559H971.601V555.808H971.481C970.785 557.992 968.697 559.24 965.937 559.24ZM963.729 556.096C963.729 557.296 964.521 557.92 966.321 557.92C969.201 557.92 971.481 556.648 971.481 553.792V553.696L966.369 554.272C964.593 554.44 963.729 554.872 963.729 556.096ZM978.993 559H977.289V547.144H978.825V550.864H978.945C979.353 548.848 981.033 546.904 983.985 546.904C987.321 546.904 988.977 549.28 988.977 552.088V559H987.273V552.328C987.273 549.88 986.097 548.464 983.385 548.464C980.505 548.464 978.993 550.216 978.993 553.264V559ZM1000.37 559H997.804C995.452 559 993.94 558.016 993.94 555.232V548.608H991.828V547.144H993.94V544.312H995.668V547.144H1000.37V548.608H995.668V555.328C995.668 556.984 996.484 557.44 998.212 557.44H1000.37V559ZM1009.4 552.736H1002.87V551.224H1009.4V552.736ZM1013.46 559H1011.59L1018.86 542.92H1021.24L1028.53 559H1026.61L1024.45 554.272H1015.62L1013.46 559ZM1019.08 546.64L1016.32 552.736H1023.76L1020.97 546.64L1020.09 544.552H1019.94L1019.08 546.64ZM1033.14 563.08H1031.44V547.144H1032.98V550.48H1033.17C1033.7 548.344 1035.47 546.904 1038.28 546.904C1041.98 546.904 1044.09 549.472 1044.09 553.072C1044.09 556.672 1042 559.24 1038.23 559.24C1035.62 559.24 1033.72 557.8 1033.17 555.52H1033.14V563.08ZM1033.14 553.288C1033.14 556.096 1034.99 557.68 1037.78 557.68C1040.54 557.68 1042.36 556.504 1042.36 553.072C1042.36 549.64 1040.51 548.488 1037.82 548.488C1034.87 548.488 1033.14 550.144 1033.14 553.072V553.288ZM1049.24 563.08H1047.53V547.144H1049.07V550.48H1049.26C1049.79 548.344 1051.57 546.904 1054.37 546.904C1058.07 546.904 1060.18 549.472 1060.18 553.072C1060.18 556.672 1058.09 559.24 1054.33 559.24C1051.71 559.24 1049.81 557.8 1049.26 555.52H1049.24V563.08ZM1049.24 553.288C1049.24 556.096 1051.09 557.68 1053.87 557.68C1056.63 557.68 1058.45 556.504 1058.45 553.072C1058.45 549.64 1056.61 548.488 1053.92 548.488C1050.97 548.488 1049.24 550.144 1049.24 553.072V553.288ZM1068.83 559.24C1065.19 559.24 1063.07 557.776 1063.07 555.04V554.992H1064.78V555.136C1064.78 557.128 1065.95 557.824 1068.86 557.824C1071.52 557.824 1072.43 557.2 1072.43 555.832C1072.43 554.584 1071.69 554.176 1069.72 553.864L1066.55 553.408C1064.39 553.12 1063.03 552.28 1063.03 550.312C1063.03 548.224 1065.02 546.904 1068.28 546.904C1071.69 546.904 1073.9 548.344 1073.9 551.128V551.176H1072.19V551.056C1072.19 549.28 1071.26 548.32 1068.23 548.32C1065.74 548.32 1064.71 548.92 1064.71 550.336C1064.71 551.56 1065.33 551.992 1067.3 552.28L1070.2 552.688C1072.75 553.048 1074.11 553.912 1074.11 555.832C1074.11 558.064 1071.91 559.24 1068.83 559.24ZM1086 559H1084.3V548.608H1082.4V547.144H1084.32C1084.52 544.336 1086.41 542.92 1089.48 542.92H1090.78V544.264H1089.24C1087.08 544.264 1085.91 544.984 1086 547.144H1090.78V548.608H1086V559ZM1098.78 559.24C1095.39 559.24 1093.74 556.888 1093.74 554.08V547.144H1095.44V553.816C1095.44 556.288 1096.64 557.704 1099.38 557.704C1102.28 557.704 1103.79 555.952 1103.79 552.904V547.144H1105.5V559H1103.96V555.304H1103.84C1103.43 557.32 1101.73 559.24 1098.78 559.24ZM1116.99 559H1114.42C1112.07 559 1110.56 558.016 1110.56 555.232V548.608H1108.44V547.144H1110.56V544.312H1112.28V547.144H1116.99V548.608H1112.28V555.328C1112.28 556.984 1113.1 557.44 1114.83 557.44H1116.99V559ZM1125.18 559.24C1121.79 559.24 1120.14 556.888 1120.14 554.08V547.144H1121.84V553.816C1121.84 556.288 1123.04 557.704 1125.78 557.704C1128.68 557.704 1130.19 555.952 1130.19 552.904V547.144H1131.9V559H1130.36V555.304H1130.24C1129.83 557.32 1128.13 559.24 1125.18 559.24ZM1137.82 559H1136.11V547.144H1137.65V550.384H1137.77C1138.13 548.488 1139.47 546.904 1141.94 546.904C1144.68 546.904 1145.88 548.92 1145.88 551.128V552.304H1144.18V551.392C1144.18 549.376 1143.34 548.392 1141.27 548.392C1138.87 548.392 1137.82 549.904 1137.82 552.568V559ZM1154.85 559.24C1151.03 559.24 1148.61 556.84 1148.61 553.072C1148.61 549.472 1151.01 546.904 1154.82 546.904C1158.3 546.904 1160.77 548.92 1160.77 552.448C1160.77 552.88 1160.73 553.24 1160.65 553.552H1150.21C1150.31 556.216 1151.68 557.824 1154.82 557.824C1157.61 557.824 1158.9 556.792 1158.9 555.064V554.896H1160.61V555.064C1160.61 557.536 1158.16 559.24 1154.85 559.24ZM1154.8 548.32C1151.73 548.32 1150.33 549.904 1150.21 552.496H1159.17C1159.17 552.376 1159.17 552.256 1159.17 552.136C1159.17 549.64 1157.58 548.32 1154.8 548.32Z" fill="#C0C4CD"/><defs><clipPath id="clip0_817_5651"><rect width="1397" height="457" fill="white"/></clipPath><bx:export><bx:file format="svg"/></bx:export></defs></svg>