<svg width="40" height="40" viewBox="0 0 40 40" fill="none" xmlns="http://www.w3.org/2000/svg">
<path d="M6.03542 26.4488C6.96911 25.5038 7.84662 24.6328 8.69348 23.7334C8.78848 23.6329 8.75273 23.3588 8.70472 23.1842C7.72301 19.6139 8.23685 16.2792 10.3198 13.2074C12.939 9.34584 17.7454 7.45769 22.4466 8.4109C27.0078 9.33671 30.6792 13.0379 31.5465 17.5837C32.8173 24.247 28.4206 30.4211 21.661 31.4464C19.9703 31.7032 18.297 31.5722 16.6615 31.0738C16.3387 30.9753 16.1436 31.0342 15.9107 31.2697C15.1037 32.0869 14.2691 32.8777 13.3844 33.7375C14.0648 34.0187 14.6184 34.2755 15.1926 34.4776C15.7799 34.6836 16.0997 35.0643 16.2509 35.6632C16.5338 36.7768 16.8791 37.8752 17.1713 38.9858C17.3041 39.4883 17.5911 39.7329 18.1101 39.7319C19.387 39.7299 20.665 39.7319 21.9419 39.7339C22.4139 39.7339 22.6999 39.5116 22.8256 39.0528C23.1524 37.863 23.5028 36.6794 23.8256 35.4886C23.9513 35.0237 24.2251 34.7222 24.6664 34.5435C25.5173 34.1994 26.3652 33.8472 27.2121 33.4939C27.636 33.3173 28.0334 33.3558 28.4328 33.5832C29.4809 34.1811 30.5352 34.7679 31.5884 35.3556C32.1758 35.6835 32.3709 35.6592 32.8469 35.1881C33.7275 34.3161 34.5948 33.432 35.4856 32.5711C35.8707 32.1996 35.8911 31.8331 35.6357 31.3915C35.0341 30.351 34.4559 29.2963 33.8501 28.2588C33.5865 27.8081 33.5804 27.3706 33.7786 26.9036C34.1157 26.1088 34.4538 25.3149 34.7685 24.512C34.9513 24.046 35.269 23.7669 35.7481 23.6369C36.88 23.3304 38.0098 23.0146 39.1407 22.704C39.8588 22.5071 39.9916 22.3416 39.9926 21.6036C39.9947 20.4027 39.9814 19.2008 39.9998 17.9999C40.008 17.4527 39.7761 17.1685 39.2428 17.0314C38.1069 16.7401 36.9862 16.3919 35.8513 16.1006C35.2864 15.9554 34.936 15.6437 34.7296 15.1067C34.4334 14.3332 34.1075 13.5698 33.7745 12.8115C33.5589 12.3222 33.5824 11.8695 33.8521 11.4086C34.4324 10.4138 34.9952 9.40878 35.5693 8.4109C35.9259 7.79066 35.9044 7.5653 35.409 7.07194C34.5672 6.23344 33.7244 5.39697 32.8806 4.5605C32.3709 4.05496 32.1512 4.02755 31.5373 4.37473C30.5311 4.9432 29.5197 5.50356 28.5186 6.07914C28.0395 6.35424 27.5706 6.38672 27.0588 6.16441C26.2641 5.81926 25.4571 5.4995 24.6521 5.1777C24.2087 5.00106 23.9339 4.7016 23.8083 4.23667C23.4947 3.0784 23.1627 1.92419 22.8347 0.76998C22.6519 0.121309 22.4935 0.00253784 21.8295 0.0015227C20.62 -0.000507568 19.4115 -0.000507568 18.202 0.0015227C17.4951 0.00253784 17.3255 0.13146 17.1304 0.826828C16.8189 1.93333 16.5042 3.03881 16.209 4.14937C16.067 4.68434 15.7565 5.02746 15.2334 5.22642C14.4387 5.52893 13.6562 5.86088 12.8747 6.19486C12.418 6.39078 11.99 6.3786 11.5569 6.13193C10.5077 5.53604 9.44738 4.96046 8.4054 4.35239C7.93345 4.07729 7.55548 4.11993 7.17444 4.50771C6.3051 5.39088 5.42862 6.26491 4.53783 7.12676C4.14556 7.50642 4.09856 7.87491 4.37642 8.34492C4.98016 9.36513 5.54609 10.4067 6.1437 11.4309C6.40215 11.8745 6.45323 12.3029 6.24177 12.7821C5.88116 13.6033 5.54303 14.4337 5.20694 15.2651C5.03532 15.6904 4.74112 15.9483 4.29368 16.0691C3.11175 16.3889 1.93901 16.7391 0.755042 17.0487C0.223838 17.1878 -0.00601002 17.4882 0.000119259 18.0273C0.0133994 19.2454 0.000119258 20.4636 0.00727008 21.6818C0.0113563 22.3396 0.143136 22.5121 0.779559 22.6918C1.90837 23.0106 3.03718 23.3293 4.17211 23.6258C4.71149 23.7669 5.06699 24.0653 5.26415 24.5871C5.4848 25.1718 5.74121 25.7423 6.03542 26.4499V26.4488Z" fill="white"/>
<path d="M11.3821 19.573C11.5675 20.4919 11.7197 21.4191 11.9537 22.3257C12.049 22.6961 11.9972 22.9112 11.7311 23.1746C8.17275 26.6949 4.61855 30.2193 1.07886 33.7581C-0.358564 35.1947 -0.351315 37.3556 1.05089 38.7345C2.41478 40.0774 4.60405 40.0733 6.04147 38.6851C7.51307 37.263 8.95256 35.8069 10.4045 34.3653C12.5161 32.2691 14.6318 30.1782 16.732 28.0707C16.9868 27.8145 17.1918 27.763 17.5398 27.8762C23.3982 29.7789 29.3125 25.4364 29.1872 19.3291C29.1779 18.8692 29.1292 18.402 29.0246 17.9554C28.9749 17.7403 28.7875 17.4697 28.598 17.4028C28.4426 17.3472 28.1433 17.5067 27.9911 17.6549C26.6231 18.9865 25.2613 20.3252 23.9264 21.6897C23.4914 22.1353 23.0523 22.2217 22.4848 22.0221C20.1878 21.2122 18.6468 19.6708 17.8391 17.3863C17.6423 16.8296 17.7511 16.4098 18.1736 15.9982C19.5178 14.6913 20.8465 13.369 22.1607 12.0323C22.3429 11.8471 22.5687 11.4797 22.4962 11.3243C22.3947 11.1082 22.0478 10.9292 21.7796 10.8788C17.109 10.0051 12.3866 13.3289 11.6223 18.0161C11.5395 18.5213 11.5115 19.0359 11.4577 19.5463L11.381 19.572L11.3821 19.573Z" fill="white"/>
</svg>
