<svg width="32" height="31" viewBox="0 0 32 31" fill="none" xmlns="http://www.w3.org/2000/svg">
<path fill-rule="evenodd" clip-rule="evenodd" d="M31.5328 15.2207C31.5328 23.6269 24.6685 30.4415 16.201 30.4415C7.73343 30.4415 0.869141 23.6269 0.869141 15.2207C0.869141 6.81456 7.73343 0 16.201 0C24.6685 0 31.5328 6.81456 31.5328 15.2207ZM16.7504 11.2366C15.2591 11.8524 12.2787 13.1269 7.80921 15.0601C7.08343 15.3466 6.70323 15.6269 6.66862 15.901C6.61012 16.3642 7.19443 16.5466 7.9901 16.795C8.09833 16.8288 8.21047 16.8638 8.32544 16.9009C9.10826 17.1535 10.1613 17.449 10.7087 17.4608C11.2053 17.4714 11.7595 17.2682 12.3714 16.8511C16.5474 14.0525 18.7031 12.638 18.8384 12.6076C18.9339 12.586 19.0662 12.559 19.1559 12.6381C19.2455 12.7172 19.2367 12.867 19.2272 12.9072C19.1693 13.1522 16.8757 15.2691 15.6888 16.3646C15.3188 16.7061 15.0563 16.9483 15.0026 17.0036C14.8824 17.1276 14.7599 17.2448 14.6422 17.3575C13.9149 18.0535 13.3696 18.5754 14.6724 19.4277C15.2985 19.8373 15.7995 20.176 16.2993 20.5139C16.8451 20.883 17.3896 21.251 18.094 21.7094C18.2734 21.8262 18.4448 21.9475 18.6118 22.0657C19.247 22.5152 19.8177 22.9192 20.5227 22.8547C20.9324 22.8173 21.3556 22.4349 21.5705 21.2943C22.0784 18.5987 23.0768 12.7581 23.3075 10.3513C23.3278 10.1405 23.3023 9.87061 23.2819 9.75215C23.2615 9.63369 23.2188 9.4649 23.0637 9.33995C22.88 9.19198 22.5964 9.16077 22.4696 9.16299C21.8929 9.17308 21.0082 9.47848 16.7504 11.2366Z" fill="white" fill-opacity="0.7"/>
</svg>
