<svg width="49" height="39" viewBox="0 0 49 39" fill="none" xmlns="http://www.w3.org/2000/svg">
<path d="M1.35748 19.6551C1.90438 19.6551 2.41842 19.6428 2.93247 19.6604C3.1997 19.6701 3.31956 19.5995 3.37638 19.3156C4.78268 12.2453 8.76544 7.13988 15.2723 3.96764C15.3628 3.92355 15.448 3.86887 15.6265 3.76833C15.4152 3.74893 15.2953 3.72864 15.1755 3.72864C12.1427 3.72688 9.10991 3.73129 6.07712 3.72247C5.77349 3.72159 5.61901 3.80008 5.48228 4.09375C4.89721 5.34872 3.53885 5.97752 2.19913 5.65739C0.891376 5.34519 -0.00265752 4.20752 5.93502e-06 2.85908C0.00266939 1.51151 0.937542 0.364146 2.27105 0.073997C3.59212 -0.213507 4.91142 0.436463 5.49738 1.68172C5.60214 1.90397 5.69891 2.02743 5.9768 2.02743C10.9628 2.01861 15.9488 2.02126 20.9339 2.0195C21.0333 2.0195 21.1336 2.00098 21.2837 1.98598V0.0669417H26.9773V2.02126C27.2179 2.02126 27.391 2.02126 27.565 2.02126C32.4471 2.02126 37.3292 2.01861 42.2113 2.02655C42.5105 2.02655 42.6748 1.96129 42.8124 1.66144C43.3788 0.429408 44.7514 -0.226735 46.0485 0.0713513C47.374 0.375611 48.3009 1.53268 48.2973 2.88112C48.2938 4.21634 47.3793 5.36283 46.0769 5.66532C44.7345 5.97664 43.4001 5.33549 42.8026 4.07788C42.7005 3.86358 42.6153 3.72071 42.3303 3.72159C39.1936 3.73305 36.057 3.72864 32.9212 3.73041C32.8679 3.73041 32.8138 3.74452 32.6744 3.7648C32.8209 3.85564 32.8963 3.91208 32.9798 3.95265C39.46 7.09843 43.441 12.1738 44.8828 19.1974C44.9574 19.5599 45.0728 19.6983 45.4483 19.6666C45.8452 19.6331 46.2474 19.6445 46.6451 19.671C46.7472 19.678 46.9239 19.8174 46.9248 19.8976C46.9407 21.687 46.9372 23.4773 46.9372 25.2985H41.2516V19.656H43.2083C42.4848 15.7456 40.7722 12.4234 38.0483 9.62952C35.0298 6.53313 31.3586 4.66082 26.9959 3.95794V5.68296H21.2952V3.95882C17.3613 4.57793 13.9805 6.16978 11.1013 8.78906C7.88827 11.7117 5.89512 15.3143 5.06057 19.6595C5.64387 19.6595 6.16857 19.6666 6.69238 19.6569C6.93209 19.6525 7.03508 19.7265 7.0333 19.9832C7.02443 21.7029 7.02798 23.4218 7.02531 25.1415C7.02531 25.1829 7.004 25.2244 6.98447 25.2985H1.35748V19.6551Z" fill="white"/>
<path d="M23.6266 8.03577C23.6337 8.18834 23.6488 8.34532 23.6488 8.5023C23.6497 13.1897 23.6471 17.877 23.6559 22.5644C23.6559 22.8898 23.592 23.0812 23.2591 23.2347C22.3864 23.6359 21.9664 24.5708 22.1893 25.4738C22.413 26.3813 23.2298 27.0225 24.1584 27.0198C25.0827 27.0163 25.9074 26.3584 26.1134 25.458C26.3212 24.5505 25.8888 23.6333 25.0241 23.2214C24.7701 23.1006 24.6405 22.9895 24.6414 22.6791C24.653 17.9185 24.6494 13.157 24.6503 8.39647C24.6503 8.28094 24.6645 8.16541 24.6725 8.03489C25.0782 7.91848 25.3499 7.97227 25.5798 8.38236C27.6857 12.1455 29.7668 15.9218 31.3773 19.9266C31.8851 21.1904 32.3912 22.4912 32.6176 23.822C33.1733 27.0842 31.9295 29.7167 29.3904 31.7813C28.8008 32.261 28.1794 32.7029 27.5614 33.1456C27.4664 33.2135 27.3093 33.2144 27.1815 33.2144C25.1697 33.2188 23.1579 33.2267 21.1461 33.2064C20.9499 33.2047 20.7439 33.0459 20.5619 32.9295C20.2902 32.7567 20.0461 32.5406 19.7735 32.3704C17.0452 30.6701 15.6079 28.2289 15.5324 25.0285C15.5022 23.7435 15.9319 22.5388 16.3625 21.35C17.5717 18.0093 19.1973 14.8591 20.8717 11.7327C21.4621 10.6304 22.1005 9.55354 22.6829 8.44763C22.8862 8.06223 23.1224 7.87967 23.6266 8.03401V8.03577Z" fill="white"/>
<path d="M24.1478 38.8807C22.6847 38.8807 21.2215 38.8807 19.7593 38.8807C19.002 38.8807 18.836 38.7228 18.8333 37.9899C18.8297 36.8893 18.8289 35.7878 18.8315 34.6872C18.8333 34.091 19.026 33.8952 19.6261 33.8943C22.6412 33.8917 25.6553 33.8917 28.6703 33.8943C29.2652 33.8943 29.4623 34.0945 29.464 34.6898C29.4676 35.8204 29.4676 36.9501 29.464 38.0808C29.4623 38.676 29.2652 38.8771 28.6694 38.8789C27.1619 38.8833 25.6544 38.8807 24.1478 38.8798V38.8807Z" fill="white"/>
</svg>
