<svg width="13" height="13" viewBox="0 0 13 13" fill="none" xmlns="http://www.w3.org/2000/svg">
<path d="M0 13L0.91379 9.66169C0.349916 8.68452 0.0536249 7.57682 0.0541665 6.44094C0.0557915 2.88979 2.94558 0 6.49619 0C8.21923 0.000541666 9.83664 0.671665 11.0532 1.88933C12.2693 3.10699 12.9388 4.72549 12.9382 6.4469C12.9366 9.9986 10.0468 12.8884 6.49619 12.8884C5.41828 12.8878 4.35607 12.6176 3.4152 12.1041L0 13ZM3.57337 10.9379C4.4812 11.4768 5.34786 11.7996 6.49403 11.8002C9.44502 11.8002 11.8489 9.39844 11.8506 6.44582C11.8516 3.48724 9.4591 1.08875 6.49836 1.08766C3.5452 1.08766 1.14291 3.48941 1.14183 6.44149C1.14129 7.64669 1.49445 8.54911 2.08758 9.49323L1.54645 11.4692L3.57337 10.9379ZM9.74131 7.97819C9.70123 7.91102 9.59398 7.87094 9.43256 7.79023C9.27169 7.70953 8.48031 7.32007 8.33244 7.26644C8.18511 7.21282 8.07786 7.18573 7.97007 7.34715C7.86282 7.50803 7.55407 7.87094 7.46036 7.97819C7.36665 8.08544 7.2724 8.09898 7.11153 8.01827C6.95065 7.93757 6.43174 7.76802 5.81694 7.21932C5.33865 6.79249 5.01528 6.26544 4.92157 6.10403C4.82786 5.94315 4.91182 5.85595 4.99199 5.77578C5.06457 5.70374 5.15286 5.58782 5.23357 5.49357C5.31536 5.4004 5.3419 5.33324 5.39607 5.22545C5.4497 5.1182 5.42315 5.02395 5.38253 4.94324C5.3419 4.86307 5.02016 4.07062 4.88636 3.74833C4.75528 3.4347 4.62257 3.47695 4.52399 3.47208L4.21524 3.46666C4.10799 3.46666 3.93357 3.50674 3.78624 3.66816C3.63891 3.82958 3.22291 4.21849 3.22291 5.01095C3.22291 5.8034 3.79978 6.56878 3.87995 6.67603C3.96066 6.78328 5.01474 8.40936 6.62944 9.10648C7.01348 9.27223 7.31357 9.37135 7.54702 9.44556C7.93269 9.56798 8.28369 9.55065 8.56102 9.50948C8.87031 9.46344 9.51327 9.12002 9.6476 8.74411C9.78194 8.36765 9.78194 8.04536 9.74131 7.97819Z" fill="#C2C5D1"/>
</svg>
