<svg width="41" height="49" viewBox="0 0 41 49" fill="none" xmlns="http://www.w3.org/2000/svg">
<g clip-path="url(#clip0_590_454)">
<path d="M29.1711 8.33566C29.0153 8.04509 28.7877 7.7969 28.5332 7.58805C27.7725 6.95849 26.7873 6.66187 25.811 6.55896C24.8348 6.45302 23.8465 6.52264 22.8643 6.54685C20.6512 6.60133 18.3573 6.43486 16.303 7.27024C15.8448 7.4579 15.3956 7.69399 14.9075 7.76663C14.5062 7.82414 14.0929 7.76966 13.6976 7.85743C13.3023 7.94521 12.901 8.24486 12.895 8.65347L12.1404 11.9345C12.9639 12.452 13.9581 12.5913 14.9224 12.6821C16.1233 12.7941 17.3301 12.8485 18.537 12.903C19.8337 12.9605 21.1304 13.0211 22.4301 13.0211C22.9811 13.0211 23.5381 13.012 24.0771 12.8909C24.736 12.7426 25.3499 12.4369 25.9937 12.2281C26.6046 12.0313 27.2485 11.9254 27.8265 11.6469C28.4224 11.3594 28.9375 10.8751 29.21 10.2667C29.4825 9.65835 29.4885 8.91982 29.1741 8.33263L29.1711 8.33566ZM14.4463 10.3636C13.0957 10.3636 13.0987 8.24486 14.4463 8.24486C15.7939 8.24486 15.7939 10.3636 14.4463 10.3636ZM26.6915 10.3424C25.3409 10.3424 25.3439 8.22367 26.6915 8.22367C28.0391 8.22367 28.0391 10.3424 26.6915 10.3424Z" fill="white"/>
<path d="M2.94386 15.9177C1.20995 15.9238 0.0300493 17.2283 0.00908659 19.2139C-0.0118761 21.1813 0.00309726 23.1456 0.00908659 25.113C0.00908659 27.1288 -0.00888141 29.1477 0.0150759 31.1635C0.0390333 33.2428 1.2369 34.6019 2.98878 34.5867C4.71371 34.5716 5.92955 33.2822 5.94751 31.2815C5.98345 27.2469 5.97746 23.2122 5.92954 19.1806C5.90559 17.1769 4.67777 15.9117 2.94686 15.9177H2.94386Z" fill="white"/>
<path d="M33.831 16.5625H7.24131C7.19938 16.9953 7.13949 17.3343 7.13949 17.6733C7.1335 23.6208 7.11553 29.5714 7.14548 35.519C7.15746 38.1764 8.25351 39.2146 10.9218 39.254C11.362 39.26 11.8052 39.254 12.5089 39.254C12.5089 41.6088 12.5059 43.7154 12.5089 45.825C12.5119 47.2294 13.1288 48.2555 14.4315 48.7791C16.411 49.5722 18.3485 48.1798 18.4084 45.8795C18.4623 43.7275 18.4204 41.5755 18.4204 39.257C19.4745 39.257 20.316 39.3145 21.1455 39.2419C22.1667 39.1541 22.58 39.4901 22.5321 40.5797C22.4542 42.2898 22.4872 44.006 22.5141 45.7191C22.5441 47.6744 23.7599 48.9789 25.4938 48.9789C27.1708 48.9789 28.3867 47.7349 28.4495 45.8493C28.5064 44.1361 28.5304 42.4199 28.4585 40.7098C28.4106 39.6142 28.7071 39.2116 29.866 39.2177C32.8817 39.2388 33.828 38.2007 33.831 35.0801C33.8399 29.3837 33.831 23.6874 33.831 17.9911C33.831 17.5128 33.831 17.0346 33.831 16.5564V16.5625Z" fill="white"/>
<path d="M40.9611 18.9867C40.9371 17.1495 39.6165 15.8934 37.9455 15.8994C36.3044 15.9055 35.0466 17.2282 35.0197 19.0473C34.9897 21.06 35.0137 23.0728 35.0107 25.0826C35.0107 27.1953 34.9747 29.3079 35.0197 31.4206C35.0586 33.2851 36.2774 34.5684 37.9275 34.6017C39.5386 34.635 40.9251 33.3244 40.9521 31.5084C41.015 27.3345 41.012 23.1576 40.9581 18.9837L40.9611 18.9867Z" fill="white"/>
<path d="M27.1468 4.47656C27.9044 3.00556 28.5872 1.68287 29.267 0.357156C29.0514 0.239113 28.8358 0.12107 28.6202 0C27.8565 1.35296 27.0929 2.70591 26.2933 4.12546C22.4092 2.54549 18.5671 2.55457 14.698 4.1073C13.8565 2.70591 13.0509 1.36809 12.2453 0.0302675C12.0537 0.145284 11.862 0.2603 11.6733 0.375317C12.3831 1.74643 13.0928 3.11755 13.7906 4.46445C8.99311 7.78782 6.95674 11.1021 7.13941 15.2578H33.9147C33.6722 10.2819 31.1776 6.87677 27.1468 4.47656ZM14.4464 10.3636C13.0958 10.3636 13.0988 8.24486 14.4464 8.24486C15.794 8.24486 15.794 10.3636 14.4464 10.3636ZM26.6916 10.3424C25.341 10.3424 25.344 8.22367 26.6916 8.22367C28.0392 8.22367 28.0392 10.3424 26.6916 10.3424Z" fill="white"/>
<path d="M12.5089 39.2538C11.8052 39.2538 11.365 39.2598 10.9218 39.2538C8.25351 39.2175 7.15746 38.1793 7.14548 35.5188C7.11553 29.5712 7.1335 23.6237 7.13949 17.6731C7.13949 17.3341 7.19938 16.9921 7.24131 16.5623H33.831C33.831 17.0405 33.831 17.5187 33.831 17.9969C33.831 23.6933 33.837 29.3896 33.831 35.0859C33.828 38.2065 32.8817 39.2447 29.866 39.2235C28.7071 39.2144 28.4106 39.62 28.4585 40.7157C28.5334 42.4258 28.5064 44.145 28.4495 45.8551C28.3867 47.7408 27.1708 48.9848 25.4938 48.9848C23.7569 48.9848 22.5441 47.6802 22.5141 45.725C22.4872 44.0118 22.4542 42.2957 22.5321 40.5855C22.58 39.4929 22.1667 39.1569 21.1455 39.2477C20.316 39.3204 19.4775 39.2629 18.4204 39.2629C18.4204 41.5813 18.4623 43.7334 18.4084 45.8854C18.3515 48.1857 16.411 49.578 14.4315 48.785C13.1288 48.2614 12.5119 47.2353 12.5089 45.8309C12.5029 43.7213 12.5089 41.6146 12.5089 39.2598V39.2538Z" fill="white"/>
<path d="M27.1468 4.47656C27.9044 3.00556 28.5872 1.68287 29.267 0.357156C29.0514 0.239113 28.8358 0.12107 28.6202 0C27.8565 1.35296 27.0929 2.70591 26.2933 4.12546C22.4092 2.54549 18.5671 2.55457 14.698 4.1073C13.8565 2.70591 13.0509 1.36809 12.2453 0.0302675C12.0537 0.145284 11.862 0.2603 11.6733 0.375317C12.3831 1.74643 13.0928 3.11755 13.7906 4.46445C8.99311 7.78782 6.95674 11.1021 7.13941 15.2578H33.9147C33.6722 10.2819 31.1776 6.87677 27.1468 4.47656ZM14.4464 10.3636C13.0958 10.3636 13.0988 8.24486 14.4464 8.24486C15.794 8.24486 15.794 10.3636 14.4464 10.3636ZM26.6916 10.3424C25.341 10.3424 25.344 8.22367 26.6916 8.22367C28.0392 8.22367 28.0392 10.3424 26.6916 10.3424Z" fill="white"/>
<path d="M35.0109 25.0858C35.0109 23.073 34.9869 21.0602 35.0198 19.0504C35.0468 17.2283 36.3076 15.9087 37.9456 15.9026C39.6167 15.8966 40.9373 17.1527 40.9613 18.9899C41.0152 23.1638 41.0182 27.3407 40.9553 31.5146C40.9283 33.3306 39.5418 34.6412 37.9307 34.6079C36.2776 34.5746 35.0618 33.2913 35.0228 31.4268C34.9779 29.3141 35.0139 27.2015 35.0139 25.0888L35.0109 25.0858Z" fill="white"/>
<path d="M0.00619073 25.113C0.00619073 23.1456 -0.0117773 21.1813 0.0091854 19.2139C0.0301481 17.2283 1.21005 15.9238 2.94396 15.9177C4.67488 15.9117 5.8997 17.1799 5.92665 19.1806C5.97756 23.2152 5.98055 27.2469 5.94462 31.2815C5.92665 33.2822 4.71081 34.5716 2.98589 34.5867C1.234 34.6019 0.0331427 33.2398 0.0121801 31.1635C-0.00878261 29.1477 0.00619073 27.1288 0.00619073 25.113Z" fill="white"/>
</g>
<defs>
<clipPath id="clip0_590_454">
<rect width="41" height="49" fill="white"/>
</clipPath>
</defs>
</svg>
