<svg width="43" height="43" viewBox="0 0 43 43" fill="none" xmlns="http://www.w3.org/2000/svg">
<g clip-path="url(#clip0_253_4713)">
<path d="M43 20.7989V22.2011C42.9682 22.5381 42.929 22.8746 42.9061 23.2121C42.7915 24.9246 42.4419 26.5904 41.9105 28.2183C41.3464 29.9462 40.5668 31.5756 39.5815 33.1025C38.2382 35.1847 36.5888 36.9879 34.6243 38.5037C32.4276 40.1989 29.9967 41.4249 27.3284 42.1788C25.9739 42.5616 24.5955 42.8168 23.1887 42.9079C22.8746 42.9285 22.5614 42.9687 22.2478 42.9995H20.7989C20.7414 42.9846 20.6839 42.9584 20.6255 42.9565C18.9901 42.8986 17.3874 42.642 15.8072 42.2129C13.6217 41.6193 11.5922 40.6902 9.70117 39.4534C8.23123 38.492 6.90057 37.3614 5.71105 36.0681C4.59165 34.851 3.62088 33.526 2.80528 32.0855C1.93687 30.5515 1.26336 28.9371 0.794098 27.2391C0.436076 25.943 0.194435 24.625 0.0962826 23.2822C0.0710435 22.9368 0.0327174 22.5928 0 22.2478C0 21.7491 0 21.2509 0 20.7522C0.0149565 20.6942 0.0373913 20.6372 0.0434674 20.5783C0.140685 19.6758 0.205652 18.7681 0.338391 17.8707C0.619761 15.9694 1.21148 14.1559 2.02661 12.4195C3.32268 9.65771 5.11887 7.26934 7.42918 5.2703C9.933 3.10301 12.7846 1.591 15.9815 0.735206C17.2285 0.401489 18.4961 0.175739 19.787 0.0934783C20.0941 0.0738478 20.3993 0.0317826 20.7054 0C21.2196 0 21.7337 0 22.2478 0C22.3058 0.0149565 22.3628 0.0373913 22.4217 0.0439348C23.3322 0.14162 24.2478 0.20425 25.1522 0.340728C27.0447 0.625837 28.8516 1.21382 30.5809 2.02614C33.8013 3.53909 36.4934 5.71386 38.642 8.55139C40.1377 10.5266 41.258 12.6986 41.9988 15.0654C42.5513 16.8312 42.8743 18.6363 42.9528 20.4848C42.9575 20.59 42.9836 20.6942 43 20.7989ZM30.2028 16.0119H18.0203C18.0203 15.6782 18.0207 15.3622 18.0203 15.0467C18.0179 14.1021 18.6667 13.4333 19.6169 13.4141C20.2072 13.402 20.798 13.3996 21.3888 13.4062C21.564 13.4081 21.6103 13.3538 21.6089 13.18C21.601 11.9647 21.6005 10.75 21.6094 9.53478C21.6108 9.34128 21.543 9.29828 21.3677 9.30062C20.3404 9.31604 19.3126 9.30529 18.2862 9.33801C16.9901 9.37914 15.7927 9.761 14.7434 10.5303C13.4169 11.5025 12.6509 12.7799 12.7 14.4746C12.7126 14.9102 12.7023 15.3468 12.7014 15.7833C12.7014 15.8572 12.6939 15.931 12.6887 16.0264H10.4738V19.8403H12.6813V28.4693H10.4761V32.4327C10.5588 32.4379 10.6205 32.4449 10.6818 32.4449C13.8128 32.4454 16.9443 32.444 20.0754 32.4486C20.2684 32.4486 20.3339 32.3883 20.3329 32.1958C20.3268 31.0352 20.3264 29.8747 20.3334 28.7142C20.3348 28.5216 20.2722 28.4557 20.0796 28.459C19.4883 28.4688 18.8971 28.4585 18.3063 28.4683C18.1156 28.4716 18.0343 28.4333 18.0348 28.2141C18.0427 25.5112 18.0418 22.8087 18.0357 20.1058C18.0357 19.9062 18.1039 19.859 18.2918 19.8595C20.4026 19.8651 22.5133 19.8655 24.624 19.8595C24.8236 19.859 24.8708 19.9277 24.8704 20.1151C24.8652 22.818 24.8647 25.5205 24.8713 28.2234C24.8718 28.4272 24.7965 28.4707 24.6147 28.4679C24.0393 28.4599 23.463 28.473 22.8882 28.4599C22.697 28.4557 22.6526 28.5179 22.654 28.6988C22.661 29.8747 22.6573 31.0511 22.6582 32.2271C22.6582 32.2935 22.6689 32.3603 22.675 32.4271H32.5192C32.5295 32.3874 32.5403 32.3654 32.5403 32.3435C32.5417 31.1054 32.5403 29.8668 32.5454 28.6287C32.5459 28.4627 32.4519 28.4637 32.3346 28.4637C31.7279 28.4655 31.1213 28.4651 30.5146 28.4641C30.4169 28.4641 30.3192 28.4557 30.2033 28.4506V16.0119H30.2028ZM30.1547 11.5184C30.1449 10.0541 29.0278 8.90053 27.549 8.87716C26.1071 8.85426 24.912 10.0737 24.9138 11.5235C24.9157 12.9402 26.1108 14.1129 27.5527 14.1129C28.9731 14.1129 30.1523 12.9365 30.1542 11.5179L30.1547 11.5184Z" fill="#01B22C"/>
<path d="M30.2028 16.0119V28.4496C30.3187 28.4548 30.4164 28.4632 30.5141 28.4632C31.1208 28.4641 31.7274 28.4646 32.3341 28.4627C32.4514 28.4627 32.5454 28.4613 32.5449 28.6277C32.5398 29.8658 32.5412 31.1044 32.5398 32.3425C32.5398 32.3645 32.529 32.3865 32.5187 32.4262H22.6745C22.6685 32.3594 22.6577 32.2925 22.6577 32.2262C22.6568 31.0502 22.6605 29.8738 22.6535 28.6978C22.6526 28.5169 22.697 28.4548 22.8877 28.459C23.463 28.4721 24.0389 28.459 24.6142 28.4669C24.7965 28.4697 24.8713 28.4263 24.8708 28.2225C24.8643 25.5196 24.8647 22.8171 24.8699 20.1142C24.8699 19.9263 24.8231 19.8576 24.6236 19.8585C22.5128 19.8651 20.4021 19.8646 18.2914 19.8585C18.1039 19.8581 18.0348 19.9048 18.0352 20.1048C18.0408 22.8078 18.0418 25.5102 18.0343 28.2131C18.0338 28.4323 18.1151 28.4707 18.3058 28.4674C18.8971 28.4576 19.4883 28.4674 20.0791 28.4581C20.2712 28.4548 20.3339 28.5207 20.3329 28.7133C20.3259 29.8738 20.3264 31.0343 20.3324 32.1948C20.3334 32.3879 20.2679 32.4482 20.0749 32.4477C16.9439 32.4426 13.8128 32.4444 10.6813 32.444C10.6201 32.444 10.5584 32.437 10.4756 32.4318V28.4683H12.6808V19.8394H10.4733V16.0254H12.6883C12.6934 15.9301 12.7004 15.8563 12.7009 15.7824C12.7018 15.3463 12.7121 14.9098 12.6995 14.4737C12.6504 12.7789 13.4169 11.5016 14.7429 10.5294C15.7922 9.76007 16.9901 9.37821 18.2857 9.33708C19.3121 9.30436 20.3404 9.31511 21.3673 9.29969C21.5425 9.29688 21.6103 9.34035 21.6089 9.53385C21.5995 10.7491 21.6005 11.9638 21.6084 13.179C21.6094 13.3529 21.5636 13.4071 21.3883 13.4053C20.798 13.3992 20.2067 13.4015 19.6164 13.4132C18.6662 13.4324 18.0175 14.1012 18.0198 15.0458C18.0207 15.3613 18.0198 15.6772 18.0198 16.011H30.2019L30.2028 16.0119Z" fill="white"/>
<path d="M30.1547 11.5184C30.1528 12.9369 28.9731 14.1134 27.5532 14.1134C26.1113 14.1134 24.9162 12.9407 24.9143 11.524C24.9124 10.0737 26.1071 8.85473 27.5494 8.87764C29.0283 8.90101 30.1453 10.0541 30.1552 11.5189L30.1547 11.5184Z" fill="white"/>
</g>
<defs>
<clipPath id="clip0_253_4713">
<rect width="43" height="43" fill="white"/>
</clipPath>
</defs>
</svg>
