<svg width="71" height="75" viewBox="0 0 71 75" fill="none" xmlns="http://www.w3.org/2000/svg">
<path d="M57.7856 46.6353C58.0605 45.6833 58.3484 44.7346 58.6042 43.7769C58.7535 43.2184 58.9242 43.0179 59.4965 42.9138C60.7703 42.6807 62.0451 42.4527 63.3195 42.2213C63.7949 42.1351 63.9972 41.8975 63.9983 41.4088C64.0011 40.1606 64.0005 38.913 63.9983 37.6648C63.9972 37.1496 63.7977 36.9182 63.2811 36.8242C62.0164 36.5939 60.7528 36.3597 59.4864 36.1395C59.0115 36.0568 58.745 35.8023 58.6419 35.3282C58.1445 33.0412 57.2673 30.9096 55.9846 28.9487C55.7395 28.5737 55.7581 28.2156 56.0139 27.8502C56.7569 26.7895 57.4938 25.7248 58.2318 24.6607C58.5422 24.2131 58.5152 23.9305 58.1287 23.5437C57.2532 22.667 56.3761 21.7915 55.4995 20.9161C55.1519 20.5687 54.8488 20.5309 54.4466 20.808C53.3875 21.5365 52.3323 22.2718 51.2755 23.0043C50.7949 23.3376 50.5302 23.3444 50.0361 23.0308C48.0914 21.7966 45.9929 20.9324 43.7462 20.4319C43.2629 20.3243 42.9981 20.0574 42.913 19.5721C42.6899 18.2974 42.4539 17.025 42.2207 15.7515C42.1322 15.2684 41.9024 15.077 41.4089 15.0759C40.1599 15.0742 38.9115 15.0742 37.6626 15.0759C37.1409 15.0759 36.9172 15.2645 36.822 15.7875C36.5899 17.0605 36.3601 18.3346 36.1314 19.6082C36.0412 20.1087 35.8322 20.3063 35.3466 20.4426C34.4621 20.6908 33.585 20.9645 32.7056 21.2308C32.6093 21.2601 32.5191 21.3079 32.4008 21.3575C32.478 21.4414 32.5377 21.5112 32.6025 21.5759C34.4407 23.4147 36.2806 25.2513 38.1161 27.0935C38.249 27.2269 38.3549 27.2365 38.5476 27.21C39.0191 27.1459 39.5025 27.1295 39.9785 27.1492C45.8419 27.3874 50.551 31.4175 51.6986 37.1693C51.9036 38.1968 51.9487 39.235 51.898 40.2789C51.8969 40.2974 51.9019 40.3194 51.8935 40.3346C51.6856 40.7135 51.9402 40.9168 52.1774 41.1521C53.9418 42.9053 55.6989 44.6659 57.4566 46.4259C57.5287 46.498 57.5834 46.5875 57.6465 46.6686C57.6927 46.6573 57.7389 46.646 57.7845 46.6348L57.7856 46.6353Z" fill="white"/>
<path d="M21.2836 32.4225C21.0492 33.1685 20.8149 33.8982 20.5929 34.6306C20.5169 34.8812 20.4684 35.1407 20.411 35.3969C20.3169 35.8186 20.0622 36.0641 19.633 36.1401C18.3857 36.3614 17.1401 36.5911 15.8928 36.814C15.1915 36.939 15.0478 37.1057 15.0472 37.8247C15.0472 39.007 15.0467 40.1888 15.0472 41.3711C15.0472 41.937 15.2163 42.1436 15.7807 42.2477C17.0539 42.4831 18.3277 42.7156 19.6025 42.9425C20.0313 43.0191 20.2887 43.2578 20.3828 43.6818C20.896 45.9941 21.7855 48.1499 23.0672 50.1435C23.3038 50.5117 23.2745 50.8636 23.0266 51.2172C22.2897 52.2706 21.5602 53.3285 20.8245 54.3831C20.4994 54.8487 20.5208 55.1386 20.9276 55.5457C21.7968 56.415 22.6661 57.2843 23.537 58.1525C23.8976 58.5122 24.1967 58.5398 24.6125 58.2516C25.662 57.5247 26.7093 56.7962 27.7582 56.0693C28.2354 55.7382 28.5193 55.7304 28.9971 56.0383C30.9418 57.2933 33.0515 58.1497 35.3089 58.6508C35.8249 58.7656 36.026 58.9734 36.1201 59.4908C36.35 60.7548 36.5793 62.0187 36.8074 63.2827C36.9004 63.7967 37.1308 63.9983 37.6468 63.9994C38.8952 64.0011 40.1442 64.0017 41.3926 63.9994C41.8787 63.9983 42.1238 63.7922 42.2089 63.3227C42.4393 62.0491 42.6686 60.7756 42.8978 59.502C42.9993 58.9407 43.2015 58.7577 43.7615 58.6085C44.7107 58.3557 45.6521 58.0742 46.5968 57.8045C46.6177 57.7533 46.6385 57.7021 46.6594 57.6508C46.5613 57.5928 46.4453 57.5529 46.367 57.4752C44.5727 55.6859 42.7807 53.8944 40.9943 52.0966C40.832 51.9334 40.685 51.8765 40.4422 51.8883C35.6277 52.1231 31.7958 50.3068 29.1001 46.2919C27.5143 43.9295 26.9217 41.2754 27.1673 38.4383C27.174 38.359 27.1464 38.2492 27.0929 38.1957C25.2 36.2927 23.3021 34.3942 21.4041 32.4962C21.3856 32.4777 21.3574 32.4687 21.2813 32.4242L21.2836 32.4225Z" fill="white"/>
<path d="M48.2401 56.741C49.3961 55.5845 50.6158 54.365 51.8411 53.1393C43.0741 44.4103 34.2926 35.666 25.5369 26.9482C24.3871 28.0979 23.1629 29.3208 21.9235 30.5594C30.6685 39.2598 39.454 48.0001 48.2401 56.741Z" fill="white"/>
<path d="M26.8354 25.6381C35.5894 34.3553 44.3716 43.0996 53.1368 51.8281C54.3137 50.6525 55.5395 49.4279 56.7564 48.2124C48.0063 39.4766 39.2366 30.721 30.4894 21.988C29.2973 23.1788 28.0737 24.4011 26.8354 25.6381Z" fill="white"/>
<path d="M29.2632 20.5993C28.9212 20.2756 28.5387 19.9299 28.1753 19.5656C26.5918 17.9768 25.0144 16.3823 23.4336 14.7912C21.6393 12.9839 18.8777 12.4901 16.5353 13.5565C14.2475 14.597 12.825 17.0264 13.0177 19.5588C13.1287 21.0193 13.6819 22.2906 14.7066 23.3316C16.635 25.2921 18.5859 27.23 20.5278 29.1775C20.5599 29.2096 20.5971 29.2377 20.6095 29.2484C23.4832 26.3759 26.3478 23.5129 29.2632 20.5987V20.5993Z" fill="white"/>
<path d="M57.7456 49.7956C55.0798 52.4592 52.4287 55.1094 49.7629 57.7736C49.813 57.7989 49.8823 57.8389 49.9561 57.8687C51.8912 58.6603 53.8275 59.4491 55.7604 60.2463C55.9316 60.3167 56.0364 60.3088 56.1733 60.1709C57.4876 58.8456 58.8087 57.527 60.1348 56.2134C60.2706 56.0789 60.2864 55.9803 60.2131 55.8041C59.4216 53.8899 58.6408 51.9717 57.8572 50.054C57.8217 49.9673 57.7834 49.8823 57.7462 49.7961L57.7456 49.7956Z" fill="white"/>
<path d="M63.2879 63.3204C62.5144 61.4315 61.7742 59.6231 61.0503 57.8535C59.9771 58.9272 58.9033 60.0014 57.8211 61.0841C59.5765 61.802 61.3905 62.544 63.2879 63.3204Z" fill="white"/>
</svg>
