<svg width="222" height="55" viewBox="0 0 222 55" fill="none" xmlns="http://www.w3.org/2000/svg">
<path d="M78.3156 29.1422C78.3879 29.1422 78.4516 29.1538 78.5124 29.1683C78.524 28.927 78.5326 28.6798 78.5326 28.4239V18.1646H74.3646V28.4239C74.3646 28.6798 74.353 28.9183 74.3328 29.1422H78.3185H78.3156Z" fill="white"/>
<path d="M69.7796 31.9862C65.8547 31.9309 65.0645 31.0324 65.0645 28.4239V18.1646H60.937V28.4239C60.937 33.92 63.7215 36.6709 70.1762 36.6709C71.6032 36.6709 72.842 36.4877 73.9014 36.1271L69.7796 31.9862Z" fill="white"/>
<path d="M84.9669 36.3713L87.4735 31.6895H90.8398C91.6416 31.6895 92.5823 31.6895 93.2249 31.7447C92.8631 31.0905 92.3015 29.9767 91.8616 29.1043L89.4563 24.2858L83.1637 36.3684H78.2546L86.8541 19.9035C87.4157 18.842 88.2377 17.8621 89.5402 17.8621C90.8427 17.8621 91.604 18.7606 92.1858 19.9035L100.562 36.3684H84.9698L84.9669 36.3713Z" fill="white"/>
<path d="M113.969 35.6909L105.752 25.6758V36.3714H101.983V21.2673C101.983 18.845 103.066 17.865 104.247 17.865C104.748 17.865 105.248 18.0278 105.911 18.845L114.129 28.8601V18.1645H117.917V33.2424C117.917 35.6647 116.835 36.6709 115.634 36.6709C115.113 36.6709 114.612 36.508 113.969 35.6909Z" fill="white"/>
<path d="M129.383 26.8419H125.394V36.3714H129.542V26.8245C129.493 26.8332 129.438 26.8419 129.38 26.8419H129.383Z" fill="white"/>
<path d="M121.788 18.1646L119.102 22.8987H125.342C125.38 22.8929 125.414 22.8871 125.455 22.8871H130.228C130.268 22.8871 130.303 22.8929 130.341 22.8987H134.332L137.018 18.1646H121.785H121.788Z" fill="white"/>
<path d="M143.595 25.4026L141.571 28.9125H134.876L136.9 25.4026H143.595Z" fill="white"/>
<path d="M147.864 36.3713L150.371 31.6895H153.737C154.539 31.6895 155.479 31.6895 156.122 31.7447C155.76 31.0905 155.199 29.9767 154.759 29.1043L152.353 24.2858L146.061 36.3684H141.152L149.751 19.9035C150.313 18.842 151.135 17.8621 152.437 17.8621C153.74 17.8621 154.501 18.7606 155.083 19.9035L163.459 36.3684H147.867L147.864 36.3713Z" fill="white"/>
<path d="M176.045 31.7157H169.028V36.3685H164.901V27.06H176.444C177.726 27.06 178.467 26.2167 178.467 24.9634C178.467 23.71 177.726 22.8958 176.444 22.8958H164.901L167.648 18.1616H176.065C180.213 18.1616 182.638 20.9387 182.638 24.9925C182.638 29.0462 180.213 31.7157 176.045 31.7157Z" fill="white"/>
<path d="M195.849 31.7157H188.832V36.3685H184.705V27.06H196.248C197.53 27.06 198.271 26.2167 198.271 24.9634C198.271 23.71 197.53 22.8958 196.248 22.8958H184.705L187.452 18.1616H195.869C200.017 18.1616 202.442 20.9387 202.442 24.9925C202.442 29.0462 200.017 31.7157 195.849 31.7157Z" fill="white"/>
<path d="M211.36 22.8377C211.38 22.858 211.395 22.8784 211.409 22.8987H218.975L221.641 18.1646H209.997C208.885 18.1646 207.953 18.3332 207.183 18.6444C208.575 20.0431 209.965 21.4389 211.357 22.8377H211.36Z" fill="white"/>
<path d="M216.975 25.4286H209.681C208.72 25.4286 208.257 25.0738 208.257 24.1491C208.257 24.0909 208.263 24.0386 208.266 23.9862L204.934 20.6392C204.465 21.5145 204.245 22.5904 204.245 23.8234C204.245 26.9524 205.829 29.049 209.276 29.049H216.57C217.551 29.049 217.994 29.43 217.994 30.3547C217.994 31.2795 217.554 31.6895 216.57 31.6895H206.428L203.762 36.3713H216.249C220.339 36.3713 222 34.1409 222 30.41C222 27.0891 220.237 25.4286 216.969 25.4286H216.975Z" fill="white"/>
<path d="M38.0258 37.9225C36.2862 38.7833 33.8751 39.1351 31.4669 38.856C25.9385 38.2162 21.9065 35.346 19.6951 30.2571C17.5184 25.2553 18.1089 20.3845 21.2841 15.8975C22.5288 14.1411 22.5925 14.1032 24.6273 14.8448C35.1516 18.6717 43.123 25.5025 48.2057 35.5321C49.4271 37.9399 50.2115 40.6386 50.7731 43.2935C51.598 47.199 50.9467 50.9648 48.5009 54.3497C48.7238 54.3497 48.8367 54.3787 48.9206 54.3468C52.145 53.0789 54.2406 50.7787 55.2248 47.4374C56.3247 43.6977 55.8905 40.0191 54.9093 36.3377C54.7761 35.8346 54.808 35.1803 55.0135 34.7063C56.6633 30.8997 57.4014 26.9652 57.1236 22.7952C56.0526 6.85075 40.1127 -3.85934 25.0614 1.31396C24.332 1.56404 23.6316 1.90137 22.769 2.25614C23.0758 2.44807 23.1858 2.54403 23.3132 2.59056C27.9414 4.24229 32.0024 6.85947 35.7999 9.93902C36.1241 10.2007 36.5294 10.3956 36.9259 10.5264C42.0607 12.2218 45.3893 15.6532 46.8511 20.8934C46.9205 21.1435 46.9234 21.4139 46.9987 21.9751C46.5298 21.4721 46.2606 21.1987 46.0059 20.9108C40.8132 15.0338 34.7608 10.2996 27.6173 7.04558C22.9195 4.90531 18.0192 3.588 12.8004 3.84971C4.53961 4.26556 -0.514149 9.92739 0.0415901 18.1977C0.467078 24.4935 3.14447 29.911 6.6902 34.968C6.73072 35.0262 6.8494 35.032 7.04043 35.0989C6.82624 34.6016 6.66126 34.209 6.49048 33.8193C5.22849 30.955 4.36883 27.9918 4.32831 24.8337C4.26752 19.9367 6.5339 16.2144 10.6875 14.4697C12.7049 13.6234 14.8208 13.289 17.0466 13.4664C15.2781 14.144 13.5617 14.7488 11.8916 15.4613C10.3025 16.1388 9.31839 17.334 9.14472 19.1399C9.04341 20.178 8.7887 21.2016 8.67871 22.2398C7.10411 36.9978 19.8427 50.0749 34.5553 48.8623C37.5279 48.618 40.3645 47.9405 43.0448 46.6523C43.8379 46.2713 44.2344 46.4371 44.7034 47.1263C45.7772 48.7053 46.9292 50.2291 48.0523 51.7703C48.2578 52.0524 48.4893 52.3112 48.8627 52.7706C48.9814 52.1483 49.1261 51.747 49.1261 51.3399C49.1406 49.0368 49.3287 46.7133 49.0769 44.4364C48.4662 38.9287 46.6079 33.8571 43.233 29.3992C42.7062 28.7042 42.1388 28.4047 41.2502 28.4221C38.3413 28.4803 35.4323 28.4425 32.5234 28.4454C32.1818 28.4454 31.8432 28.4803 31.2788 28.5123C33.5857 31.7285 35.7768 34.7848 38.0258 37.9196V37.9225Z" fill="black"/>
<path d="M38.026 37.9223C35.777 34.7875 33.5859 31.7341 31.279 28.5149C31.8434 28.483 32.185 28.4481 32.5236 28.4481C35.4326 28.4452 38.3415 28.4801 41.2505 28.4248C42.142 28.4074 42.7093 28.7069 43.2332 29.4019C46.6082 33.8598 48.4664 38.9313 49.0771 44.439C49.329 46.7131 49.1408 49.0395 49.1264 51.3426C49.1264 51.7468 48.9816 52.151 48.863 52.7733C48.4896 52.3138 48.258 52.0521 48.0525 51.773C46.9266 50.2317 45.7746 48.708 44.7036 47.1289C44.2347 46.4397 43.8382 46.274 43.0451 46.6549C40.3648 47.9432 37.5282 48.6207 34.5556 48.865C19.8429 50.0776 7.10435 37.0004 8.67895 22.2424C8.78894 21.2043 9.04365 20.1807 9.14496 19.1425C9.32152 17.3367 10.3028 16.1444 11.8918 15.4639C13.5619 14.7515 15.2812 14.1466 17.0469 13.4691C14.821 13.2917 12.7052 13.6261 10.6877 14.4723C6.53414 16.2171 4.26777 19.9393 4.32855 24.8364C4.36908 27.9944 5.22873 30.9576 6.49073 33.822C6.6615 34.2117 6.82938 34.6043 7.04068 35.1015C6.84964 35.0346 6.73097 35.0288 6.69044 34.9707C3.14761 29.9137 0.467322 24.4932 0.0418342 18.1974C-0.513905 9.92715 4.53985 4.26532 12.8007 3.85238C18.0194 3.59067 22.9198 4.90798 27.6175 7.04825C34.7611 10.3023 40.8134 15.0365 46.0061 20.9135C46.2608 21.2014 46.5271 21.4747 46.9989 21.9778C46.9266 21.4166 46.9237 21.1461 46.8513 20.896C45.3896 15.6588 42.0609 12.2245 36.9261 10.5291C36.5267 10.3982 36.1244 10.2034 35.8002 9.94169C32.0026 6.86505 27.9388 4.24496 23.3134 2.59323C23.1861 2.5467 23.0761 2.45074 22.7693 2.25881C23.6318 1.90113 24.3323 1.56671 25.0617 1.31663C40.1101 -3.85667 56.0528 6.85342 57.1209 22.8008C57.4017 26.9708 56.6636 30.9053 55.0108 34.7118C54.8053 35.1859 54.7735 35.8401 54.9066 36.3432C55.8879 40.0247 56.3249 43.7033 55.2221 47.443C54.238 50.7842 52.1424 53.0845 48.918 54.3523C48.8311 54.3872 48.7211 54.3552 48.4983 54.3552C50.9441 50.9704 51.5924 47.2045 50.7704 43.2991C50.2089 40.6441 49.4245 37.9426 48.203 35.5377C43.1174 25.5081 35.146 18.6773 24.6246 14.8504C22.5898 14.1117 22.5261 14.1466 21.2815 15.903C18.1063 20.3901 17.5187 25.258 19.6924 30.2626C21.9038 35.3516 25.9358 38.2218 31.4643 38.8615C33.8725 39.1407 36.2836 38.7888 38.0231 37.9281L38.026 37.9223Z" fill="white"/>
</svg>
